<svg id="レイヤー_1" data-name="レイヤー 1" xmlns="http://www.w3.org/2000/svg" viewBox="0 0 1200 400"><defs><style>.cls-1{fill:#fff;}.cls-2{fill:#69b;}.cls-3{fill:#4db56a;}.cls-4{fill:#2cff60;}.cls-5{fill:#75d85f;}.cls-6{fill:#606060;}.cls-7{fill:#097300;}.cls-8{fill:#00b914;}.cls-9{fill:#00d046;}.cls-10{fill:#0097b9;}.cls-11{fill:#00008b;}.cls-12{fill:#00732a;}.cls-13{fill:#e3cd2e;}.cls-14{fill:#5ceaff;}.cls-15{fill:#8b5d00;}.cls-16{fill:#ff45f7;}</style></defs><g id="天結島"><path class="cls-1" d="M723.19,348.17a6.87,6.87,0,0,1-5.88-3,6.56,6.56,0,0,1-1.24-3.59,6.48,6.48,0,0,1,3.22-5.38,53.53,53.53,0,0,1,4.91-2.6,86.07,86.07,0,0,0,31.92-26.13,57.18,57.18,0,0,0,8.57-16.6l-34,1.82h-.78a9.22,9.22,0,0,1-4-.88c-2.59-1.4-3.89-3.83-3.89-7.23,0-5.4,2.68-8.41,7.73-8.7l38-2.17c.16-2.36.23-4.47.23-6.43v-12l-41.13,2.42h-.64c-5.18,0-7.92-2.84-7.92-8.23,0-6.88,4.12-8.56,7.58-8.77l101.79-6.13h.8a7.69,7.69,0,0,1,5.54,2.2,9.07,9.07,0,0,1,2.44,6.72c0,5.18-2.64,8.08-7.65,8.37l-40.44,2.3V267c0,1.62,0,3.48-.16,5.54l36.63-2h.74a9.25,9.25,0,0,1,3.94.88c2.59,1.42,3.88,3.87,3.88,7.31,0,7-4.13,8.72-7.59,8.88l-37.48,2c4.28,6.26,11,13.53,20,21.64a128.8,128.8,0,0,0,33.93,22.16c5.41,2.43,7.83,4.34,7.84,6.2s-1.89,3.22-5.94,4.67c-7.46,2.59-12.71,3.85-16.07,3.85a15,15,0,0,1-8.91-3.07,158,158,0,0,1-25.63-23.81,165.18,165.18,0,0,1-13-17.25,74.37,74.37,0,0,1-21.35,26.6,99.92,99.92,0,0,1-30.59,16.6,17.75,17.75,0,0,1-5.15,1Z"/><path class="cls-2" d="M828.51,235.48a6.85,6.85,0,0,1,4.87,1.92,8.15,8.15,0,0,1,2.18,6.07q0,7-6.78,7.44l-41.31,2.35V267c0,1.88-.07,4.05-.22,6.53l37.67-2.09h.69a8,8,0,0,1,3.53.79c2.25,1.22,3.36,3.38,3.36,6.46q0,7.65-6.7,8l-39.12,2.09q6.42,10,21.07,23.17a130.21,130.21,0,0,0,34.17,22.32q7.27,3.27,7.29,5.35,0,1.89-5.33,3.8-10.92,3.78-15.75,3.79a14,14,0,0,1-8.33-2.87,156.47,156.47,0,0,1-25.51-23.69,162.8,162.8,0,0,1-13.9-18.53,72.53,72.53,0,0,1-21.78,27.8,99.52,99.52,0,0,1-30.31,16.45,16.58,16.58,0,0,1-4.88.91h-.23a6,6,0,0,1-5.1-2.54A5.83,5.83,0,0,1,717,341.6a5.48,5.48,0,0,1,2.78-4.55,51.31,51.31,0,0,1,4.81-2.54A86.72,86.72,0,0,0,756.87,308a57.88,57.88,0,0,0,9.1-18.15l-35.34,1.89h-.73a8.12,8.12,0,0,1-3.56-.79q-3.36-1.81-3.36-6.39,0-7.38,6.86-7.77l38.84-2.22c.18-2.61.28-5,.28-7.31v-13l-42.11,2.48h-.59q-7,0-7-7.3T726,241.6l101.78-6.13h.75m0-1.86a6.61,6.61,0,0,0-.89,0l-101.76,6.13c-5.45.32-8.45,3.76-8.45,9.69s3.14,9.16,8.85,9.16h.7l40.14-2.36v11c0,1.71-.05,3.53-.17,5.55L729.73,275c-5.55.32-8.61,3.74-8.61,9.63,0,4.69,2.36,6.95,4.33,8h0a10.12,10.12,0,0,0,4.36,1h.86l32.62-1.75a57,57,0,0,1-8,15,85.1,85.1,0,0,1-31.6,25.87,48.74,48.74,0,0,0-5,2.62,7.38,7.38,0,0,0-3.68,6.13v.08a7.58,7.58,0,0,0,1.41,4.1,7.82,7.82,0,0,0,6.64,3.37h.29a18.35,18.35,0,0,0,5.44-1,100.44,100.44,0,0,0,30.85-16.75,75.83,75.83,0,0,0,20.91-25.44,163.93,163.93,0,0,0,12.2,15.94,159.43,159.43,0,0,0,25.8,24A15.87,15.87,0,0,0,828,349h0c3.51,0,8.86-1.28,16.4-3.9,3.07-1.1,6.58-2.71,6.58-5.55,0-2.34-2.44-4.38-8.39-7a128.16,128.16,0,0,1-33.68-22c-8.31-7.49-14.65-14.24-18.91-20.12l35.81-1.91c5.45-.26,8.46-3.75,8.46-9.82,0-4.73-2.35-7-4.32-8.09h0a10.18,10.18,0,0,0-4.34-1h-.84l-35.55,2c.07-1.68.11-3.2.11-4.56V255l39.56-2.25c5.5-.32,8.53-3.63,8.53-9.3a10,10,0,0,0-2.74-7.4,8.62,8.62,0,0,0-6.17-2.45Z"/><path class="cls-1" d="M921.54,350.46c-3.32,0-5.8-1.11-7.34-3.29a5.52,5.52,0,0,1-.89-3.06V300.88l-1.15.26c-8.1,1.67-12.86,2.47-14.55,2.47a6.25,6.25,0,0,1-5.61-3.34,9.82,9.82,0,0,1-1.7-4.79,5.45,5.45,0,0,1,1.37-3.67,49.7,49.7,0,0,1,3.61-3.5c2.21-2.1,5.86-5.75,10.83-10.81-2-1-4.61-2.2-7.94-3.65-4.66-2-7-4.55-7-7.47,0-2.28,1.65-5.18,5.05-8.85a174.15,174.15,0,0,0,17-22.19c2.14-3.26,4.84-4.91,8-4.91a9.08,9.08,0,0,1,5.08,1.51,6.53,6.53,0,0,1,3.35,5.89c0,2-1,4.33-3,7.13a141.71,141.71,0,0,1-17.47,18.93l1,.53c2.43,1.3,4.16,2.24,5.26,2.87,4.83-5.38,9.29-10.79,13.28-16.1,2.33-3,5-4.55,7.84-4.55a8.76,8.76,0,0,1,5.47,1.88,7.08,7.08,0,0,1,3.08,5.6c0,2.07-1.3,4.52-4,7.51A257.67,257.67,0,0,1,914,288c5.87-1.1,11.69-2.44,17.38-4-.41-.71-.88-1.52-1.41-2.41a7.44,7.44,0,0,1-1.05-3.47,4.79,4.79,0,0,1,2.11-4,6.41,6.41,0,0,1,4-1.4,8,8,0,0,1,5.93,2.87,69.51,69.51,0,0,1,9.17,12.78,12,12,0,0,1,1.83,5.39,6.28,6.28,0,0,1-3.9,6,10.31,10.31,0,0,1-4.32,1.06,6.54,6.54,0,0,1-6.15-3.71h0a20.84,20.84,0,0,1-1-2.27c-2.54.84-4.76,1.53-6.64,2.06v47.2a5.25,5.25,0,0,1-2.19,4.39,10,10,0,0,1-6,1.94Zm46.9-.63c-6.88,0-8.77-3.71-9.15-6.83L955,306.91a6.67,6.67,0,0,1,3.61-7,11,11,0,0,1,5.21-1.29H964c3.23,0,5.77.8,7.53,2.38l35.85-2.9c.71-.05,1.59-.07,2.62-.07,4.12,0,7.2,1,9.14,2.92a9.41,9.41,0,0,1,2.48,7,22.23,22.23,0,0,1-.22,3.26l-3,18.08c2.39,1.31,3.6,3.57,3.6,6.72,0,4.67-2.56,7.3-7.42,7.59l-37.58,2c-1.39,2.83-4.26,4.26-8.56,4.27Zm8.08-19.36,23.88-1.26,1.75-13.4v-.46c0-1.07-.35-1.78-2-1.78h-.64L975,315.74ZM894.94,342a8.05,8.05,0,0,1-3.62-1,5.49,5.49,0,0,1-3.17-5.18,14.89,14.89,0,0,1,1.16-4.68A155.82,155.82,0,0,0,895.66,311c1-4.24,3.66-6.39,8-6.39,7.08,0,8.57,4.16,8.57,7.65a28.56,28.56,0,0,1-1.91,8.3,76.72,76.72,0,0,1-9,17.68c-1.74,2.48-3.87,3.73-6.32,3.73Zm49.65-8.16c-3,0-6.77-1.28-8.11-7.38a116.89,116.89,0,0,0-4.55-16.53,8.85,8.85,0,0,1-.56-2.83,4.9,4.9,0,0,1,3.09-4.54,7.57,7.57,0,0,1,3.42-.86,7,7,0,0,1,6.19,3.7,99.11,99.11,0,0,1,7.14,14.51,18.8,18.8,0,0,1,1.8,6.53,6.73,6.73,0,0,1-4.34,6.42,9,9,0,0,1-4.07,1h0ZM960,293.38a7.27,7.27,0,0,1-5.51-2.4,7.8,7.8,0,0,1-1.77-5.24c0-4.32,2.47-6.83,7.14-7.22l17.35-1.34V266.73l-21,1.6H955a8,8,0,0,1-4.92-1.63A7,7,0,0,1,947.6,261c0-4.92,2.5-7.72,7.24-8l22.33-1.69V236.44a6.68,6.68,0,0,1,3.5-6.1,10.91,10.91,0,0,1,5.55-1.48h.56a10,10,0,0,1,6.82,2.58,6.51,6.51,0,0,1,2.09,5.06v13.14l24-2.12h1.15a10.51,10.51,0,0,1,5.07,2.31,7.81,7.81,0,0,1,2.47,6.16c0,4.51-2.54,7.11-7.34,7.46L996.6,265.3v10.54l18.31-1.36c.26,0,.59-.06.91-.07h.2a7.48,7.48,0,0,1,5.08,1.88,7,7,0,0,1,2.34,5.58c0,4.77-2.52,7.48-7.28,7.78l-55.51,3.72Z"/><path class="cls-2" d="M986.77,229.78a9,9,0,0,1,6.18,2.33,5.58,5.58,0,0,1,1.8,4.33v14.21l25-2.21h.87a9.81,9.81,0,0,1,4.63,2.08,6.91,6.91,0,0,1,2.18,5.42q0,6.12-6.48,6.59l-25.27,1.91v12.4l19.31-1.43a8.5,8.5,0,0,1,.87-.07h.17a6.57,6.57,0,0,1,4.45,1.63,6,6,0,0,1,2,4.83q0,6.52-6.41,6.92l-55.52,3.72H960a6.26,6.26,0,0,1-4.8-2.08,6.79,6.79,0,0,1-1.56-4.59q0-5.81,6.3-6.33l18.2-1.41V265.72l-22,1.69H955a7.1,7.1,0,0,1-4.35-1.43,6,6,0,0,1-2.12-4.91q0-6.76,6.37-7.17l23.2-1.75V236.44a5.81,5.81,0,0,1,3-5.3,10,10,0,0,1,5.08-1.36h.56m-65.51,1.57a8.29,8.29,0,0,1,4.56,1.36,5.65,5.65,0,0,1,2.94,5.07c0,1.81-1,4-2.86,6.63a139.91,139.91,0,0,1-18.33,19.67l2.15,1.16c2.92,1.56,4.88,2.63,5.88,3.23h0q7.6-8.42,13.84-16.72c2.15-2.78,4.52-4.18,7.1-4.18a7.84,7.84,0,0,1,4.88,1.67,6.16,6.16,0,0,1,2.74,4.89c0,1.8-1.25,4.1-3.73,6.88a257.34,257.34,0,0,1-29.76,28.55,219.49,219.49,0,0,0,22.09-4.95c-.53-.94-1.19-2.1-2-3.47a6.39,6.39,0,0,1-.92-3,3.85,3.85,0,0,1,1.73-3.21,5.55,5.55,0,0,1,3.51-1.22,7,7,0,0,1,5.24,2.57,68.16,68.16,0,0,1,9,12.6,11.17,11.17,0,0,1,1.73,5,5.4,5.4,0,0,1-3.38,5.08,9.31,9.31,0,0,1-3.94,1,5.66,5.66,0,0,1-5.31-3.22,27.37,27.37,0,0,1-1.29-3c-3.2,1.08-5.91,1.92-8.1,2.51v47.91a4.39,4.39,0,0,1-1.82,3.66,9.1,9.1,0,0,1-5.45,1.74h-.22q-4.54,0-6.6-2.89a4.56,4.56,0,0,1-.72-2.51V299.72l-2.28.52q-11.92,2.44-14.35,2.44a5.36,5.36,0,0,1-4.81-2.89,9,9,0,0,1-1.58-4.38,4.6,4.6,0,0,1,1.15-3c1.11-1.18,2.29-2.32,3.52-3.41q3.58-3.4,11.76-11.76-3-1.61-9.11-4.25-6.47-2.82-6.46-6.62,0-3,4.81-8.22A174.22,174.22,0,0,0,914,235.84q2.94-4.49,7.23-4.49M1010,299q10.69,0,10.69,8.94a20.49,20.49,0,0,1-.21,3.13l-3.12,18.73c2.47,1.1,3.7,3.16,3.7,6.2q0,6.27-6.55,6.66l-38.14,2q-1.68,4.23-7.94,4.24-7.5,0-8.23-6l-4.29-36.09a7,7,0,0,1-.07-.92,5.58,5.58,0,0,1,3.2-5.15,10,10,0,0,1,4.77-1.17H964c3.21,0,5.62.8,7.21,2.41l36.25-2.94q1-.06,2.55-.06m-34.32,32.48,25.54-1.35,1.85-14.22v-.53c0-1.81-1-2.71-3-2.71h-.73L974,314.9l1.71,16.55m-37.8-28.85a6.17,6.17,0,0,1,5.39,3.26,98.53,98.53,0,0,1,7.06,14.36,17.83,17.83,0,0,1,1.74,6.27,5.77,5.77,0,0,1-3.8,5.51,8.26,8.26,0,0,1-3.71.91q-5.75,0-7.2-6.65a119.86,119.86,0,0,0-4.59-16.64,8.25,8.25,0,0,1-.5-2.55,3.94,3.94,0,0,1,2.54-3.66,6.69,6.69,0,0,1,3-.78m-34.28,2.94q7.63,0,7.64,6.72a27.24,27.24,0,0,1-1.85,8,76.25,76.25,0,0,1-8.88,17.5Q898.18,341,895,341a7,7,0,0,1-3.2-.84,4.63,4.63,0,0,1-2.7-4.31,14.75,14.75,0,0,1,1.09-4.38,155.11,155.11,0,0,0,6.41-20.29c.88-3.79,3.2-5.68,7-5.68m83.16-77.62h-.56a11.72,11.72,0,0,0-6,1.62,7.72,7.72,0,0,0-4,7v13.92L954.75,252c-5.19.34-8.07,3.52-8.09,9a7.86,7.86,0,0,0,2.75,6.36h0a8.94,8.94,0,0,0,5.49,1.83h1.25l20-1.53v8.59l-16.48,1.28c-5.16.42-8,3.31-8,8.14a8.81,8.81,0,0,0,2,5.8h0a8.19,8.19,0,0,0,6.22,2.73h.76l55.52-3.72c5.23-.33,8.12-3.42,8.14-8.72a8,8,0,0,0-2.63-6.25,8.55,8.55,0,0,0-5.72-2.13h-.22a4.14,4.14,0,0,0-1,.08l-17.26,1.28v-8.68l23.55-1.78c5.27-.37,8.18-3.35,8.2-8.38a8.69,8.69,0,0,0-2.74-6.81,11.25,11.25,0,0,0-5.53-2.57h-1.43l-23,2v-12a7.41,7.41,0,0,0-2.37-5.72,10.91,10.91,0,0,0-7.47-2.85Zm-65.5,1.58h0c-3.51,0-6.47,1.79-8.79,5.32a174.08,174.08,0,0,1-17,22.09c-3.6,3.89-5.29,6.91-5.29,9.47,0,3.33,2.55,6.13,7.57,8.33,2.71,1.17,5,2.19,6.75,3.05-4.48,4.57-7.81,7.88-9.9,9.88a50.12,50.12,0,0,0-3.63,3.51h0a6.47,6.47,0,0,0-1.6,4.21v.13a10.74,10.74,0,0,0,1.87,5.24,7.17,7.17,0,0,0,6.37,3.75,15.32,15.32,0,0,0,2.14-.18c-2.54,1-4.24,3.21-5,6.44a155.81,155.81,0,0,1-6.33,20,16.53,16.53,0,0,0-1.21,4.9,6.43,6.43,0,0,0,3.68,6.11,8.87,8.87,0,0,0,4,1.06H895c2.78,0,5.16-1.39,7.07-4.12a77.69,77.69,0,0,0,9.11-17.91,29.56,29.56,0,0,0,1.23-3.91V344a6.47,6.47,0,0,0,1,3.5h0c1.73,2.44,4.46,3.68,8.12,3.68h.22a10.92,10.92,0,0,0,6.57-2.12,6.24,6.24,0,0,0,2.56-5.19V309.79l.15.44a117.56,117.56,0,0,1,4.5,16.36c1.48,6.75,5.73,8.15,9,8.15a10,10,0,0,0,4.51-1.09,7.61,7.61,0,0,0,4.84-7.28,19.92,19.92,0,0,0-1.89-6.89,99.93,99.93,0,0,0-7.17-14.57,8.06,8.06,0,0,0-7-4.17h0a8.57,8.57,0,0,0-3.84,1,6.22,6.22,0,0,0-3.11,3v-7.11q2.29-.66,5.18-1.61l.28.67a7.36,7.36,0,0,0,.44.89h0a7.52,7.52,0,0,0,7,4.2,11.49,11.49,0,0,0,4.78-1.17,7.17,7.17,0,0,0,4.39-6.85,12.9,12.9,0,0,0-2-5.85,69.63,69.63,0,0,0-9.25-12.9,8.89,8.89,0,0,0-6.62-3.19,7.77,7.77,0,0,0-2.66.48q4.88-4.94,9.41-10.05c2.82-3.17,4.2-5.82,4.2-8.12a8,8,0,0,0-3.47-6.36,9.53,9.53,0,0,0-6-2.06c-3.18,0-6.07,1.65-8.58,4.91-3.84,5.11-8.12,10.32-12.75,15.49-1.05-.59-2.51-1.38-4.45-2.42a139.26,139.26,0,0,0,16.6-18.15c2.18-3,3.23-5.49,3.25-7.7a7.49,7.49,0,0,0-3.79-6.7,10.07,10.07,0,0,0-5.56-1.64Zm-4,56.93q5.61-4.86,10.92-10a5.48,5.48,0,0,0-.24,1.71,8.38,8.38,0,0,0,1.18,3.93l.8,1.36c-4.17,1.11-8.4,2.11-12.66,3ZM904,303.68c2-.37,4.74-.89,8.32-1.62h0v6.32c-1-2.39-3.32-4.58-8.37-4.69Zm106-6.57c-1.06,0-2,0-2.67.07l-35.49,2.87A12.1,12.1,0,0,0,964,297.7h-.18a11.89,11.89,0,0,0-5.66,1.4A7.43,7.43,0,0,0,954,306a7,7,0,0,0,.09,1.12l4.29,36c.34,2.86,2.12,7.65,10.07,7.65,5.3,0,7.88-2.15,9.13-4.3l37-2c5.37-.32,8.31-3.35,8.31-8.52,0-3.85-1.7-6-3.51-7.19l2.91-17.43a23.43,23.43,0,0,0,.23-3.45,10.28,10.28,0,0,0-2.75-7.59c-2.12-2.13-5.42-3.2-9.8-3.2Zm-34,19.47,23.52-2.05h.57c1.11,0,1.11.23,1.11.85v.4l-1.64,12.57-22.22,1.18Z"/><path class="cls-1" d="M1152.24,351.33a32.57,32.57,0,0,1-16.19-4.67c-3-1.68-4.54-3.71-4.54-6a7,7,0,0,1,.12-1.11c-1,2.33-3.28,4.34-8.44,4.34-5.88,0-8-2.49-8.71-4.89l-43.78,4.47c-1.58.17-3.19.25-4.79.27-4.17,0-7.15-1-8.87-2.86-1.44-1.53-2.28-4-2.49-7.22l-.58-10.31v-.78c0-3.4,1.79-7.45,10.34-7.45,6.45,0,8.07,3.52,8.29,6.47l.44,5.94c.09,1.41.65,1.41,1,1.41h.17a6.11,6.11,0,0,0,.86-.06l9.4-.84v-9.48a13.72,13.72,0,0,1,1.59-4,12.85,12.85,0,0,1-6.33,1.64h-.92a11.12,11.12,0,0,1-6.91-2.3,6.51,6.51,0,0,1-2.46-4.89l-2-61.21a6.6,6.6,0,0,1,1.68-4.68c2-2,4.82-3.06,8.56-3.06,3.33,0,5.93.76,7.72,2.25l2.84-.19a190.2,190.2,0,0,0,14-13.23,11.28,11.28,0,0,1,8.55-3.76,15.27,15.27,0,0,1,5.66,1.12c3.08,1.18,4.65,3.14,4.65,5.82a6.48,6.48,0,0,1-3.11,5.28c-1.07.75-2.76,1.83-5,3.21l29.46-1.85c.76-.05,1.41-.07,1.91-.07,10.27,0,12.43,5.55,12.43,10.2a18.11,18.11,0,0,1-.31,3.11l-4.15,23.29c-.51,2.9-2.27,6.3-7.65,6.93L1163.1,281h.64c4.42.46,6.61,2.66,6.61,6.54,0,2.78-1.13,6.17-6.55,6.55l-74.66,4.25.1,3.1,73.58-4c1,0,1.81-.07,2.31-.07,4.9,0,8.32,1,10.46,3s3,4.83,3,8.83c0,6.15-1.71,13.76-5.09,22.59-2.65,6.83-5.46,11.81-8.35,14.8C1162,349.7,1157.67,351.33,1152.24,351.33ZM1124,313.51c3.22,0,5.67.94,7.29,2.8a7.27,7.27,0,0,1,1.74,5.77l-.83,14.76a8.25,8.25,0,0,1-.18,1.4,5,5,0,0,1,5.13-3.37,8,8,0,0,1,2.11.29,22.49,22.49,0,0,0,6,.81,5.89,5.89,0,0,0,5.31-3.33,51.3,51.3,0,0,0,5.57-13.84,32.2,32.2,0,0,0,1.22-6.39c0-.9-1.92-1.92-3.29-2.35h-.79l-52.86,3.62a6.84,6.84,0,0,1,2.58,5.7v7.81l11.5-1.15.19-4.9c.14-3.48,1.76-7.62,8.63-7.63Zm-34.86-27.74,54-3.56h-.34c-3.43,0-6-.82-7.76-2.45l-45.86,3.11Zm-.76-14.62,45.79-3.14.36-2.95-46.24,3.12Zm-.46-13.39,47.93-3.16.18-1.52c0-.73-.18-1.43-1.84-1.43h-.34l-46,3.13Z"/><path class="cls-2" d="M1110.77,226a14.24,14.24,0,0,1,5.31,1.05c2.72,1,4.07,2.7,4.07,5a5.58,5.58,0,0,1-2.69,4.5q-2.31,1.63-8.33,5.16l33.31-2.09c.73-.05,1.36-.07,1.85-.07q11.51,0,11.51,9.27a18.09,18.09,0,0,1-.3,2.94l-4.16,23.3c-.72,4.17-3.59,6.26-8.58,6.26-3.4,0-5.86-.83-7.41-2.48l-47.14,3.2v4.77l74.88-4.95h.58c3.79.39,5.68,2.13,5.68,5.61s-1.89,5.35-5.68,5.62l-75.55,4.31.14,5,74.54-4c1,0,1.77-.07,2.26-.07q6.92,0,9.83,2.75c1.79,1.68,2.68,4.4,2.69,8.15q0,9.1-5,22.26-3.93,10.11-8.15,14.49-4.38,4.54-12.16,4.55a31.44,31.44,0,0,1-15.73-4.55c-2.72-1.52-4.07-3.26-4.07-5.22a5.48,5.48,0,0,1,.43-2,4.1,4.1,0,0,1,4.28-2.8h0a7.7,7.7,0,0,1,1.85.25,22.83,22.83,0,0,0,6.26.85h.07c2.52,0,4.53-1.25,6-3.79a52,52,0,0,0,5.67-14.09,32.31,32.31,0,0,0,1.24-6.53c0-2.18-4.07-3.36-4.07-3.36h-.93L1096.85,313c3.5.93,5.25,3.05,5.24,6.38v8.84l13.32-1.33.23-5.71q.27-6.74,7.71-6.74h.65q4.43,0,6.59,2.48a6.4,6.4,0,0,1,1.52,5l-.83,14.84q-.36,6.14-8.09,6.14h0q-7.17,0-8-5l-44.6,4.55c-1.56.16-3.13.24-4.71.26q-5.85,0-8.18-2.55-2-2.09-2.24-6.66l-.58-10.31v-.72q0-6.53,9.41-6.52,6.95,0,7.36,5.61l.44,5.94c.1,1.51.75,2.27,2,2.27h.16a6.73,6.73,0,0,0,1-.07l10.2-.91V318.72s.93-4.39,3.26-5.48l-2.62.2a11.76,11.76,0,0,1-6.29,1.77h-.92a10.19,10.19,0,0,1-6.33-2.1,5.55,5.55,0,0,1-2.11-4.18l-2-61.22a5.72,5.72,0,0,1,1.45-4q2.63-2.75,7.86-2.74,5,0,7.4,2.28l3.53-.24A193.74,193.74,0,0,0,1103,229.5a10.28,10.28,0,0,1,7.87-3.46M1087,258.75l49.67-3.27.28-2.34c0-1.61-.92-2.42-2.77-2.42h-.37l-46.94,3.2.13,4.83m48.58,5.3-48.26,3.27.15,4.83,47.52-3.26.59-4.84m-24.82-39.91h0a12.16,12.16,0,0,0-9.23,4.05c-3.16,3.42-7.75,7.78-13.66,13l-2.16.14a13,13,0,0,0-8-2.23c-4,0-7.09,1.11-9.2,3.31h0a7.53,7.53,0,0,0-1.9,5.36l2,61.19a7.41,7.41,0,0,0,2.78,5.54h0a12,12,0,0,0,7.48,2.5h.92a14,14,0,0,0,4.41-.71,17,17,0,0,0-.58,2v8.83l-8.51.76H1075a4.53,4.53,0,0,1-.74.05h-.18a2.54,2.54,0,0,1-.09-.54l-.43-5.94c-.21-2.75-1.68-7.34-9.22-7.34-9.81,0-11.27,5.25-11.27,8.38v.83l.58,10.31c.23,3.54,1.12,6.1,2.75,7.82,1.91,2.1,5,3.14,9.53,3.14,1.64,0,3.28-.11,4.9-.27l43-4.39c1,2.47,3.46,4.81,9.33,4.81,3.8,0,6.18-1.05,7.65-2.47q.87,3,4.79,5.15a33.4,33.4,0,0,0,16.63,4.79c5.69,0,10.23-1.72,13.5-5.12,3-3.13,5.81-8.07,8.55-15.11,3.42-9,5.15-16.66,5.15-22.93,0-4.26-1.11-7.46-3.28-9.51-2.32-2.19-6-3.25-11.1-3.25-.52,0-1.29,0-2.34.07l-72.65,3.94v-1.24l73.75-4.21c4.8-.33,7.43-3,7.43-7.47,0-3.05-1.27-6.83-7.35-7.46h-.9l-12.67.84a9.15,9.15,0,0,0,2.89-5.47l4.15-23.29a19.55,19.55,0,0,0,.33-3.23c0-5.11-2.33-11.16-13.37-11.16-.54,0-1.2,0-2,.07l-25.76,1.62c.77-.5,1.42-.92,1.94-1.29a7.4,7.4,0,0,0,3.5-6c0-2.16-.91-5-5.26-6.73a16,16,0,0,0-6-1.17Zm23.11,28.44h.31a1.7,1.7,0,0,1,.86.14h0a.86.86,0,0,1,0,.32l-.08.69-46.2,3v-1.12l45.09-3.07Zm-44.64,16.47,44.23-3-.13,1.08-44.06,3V269Zm.83,14.69,44.6-3a8,8,0,0,0,1.5,1l-46.1,3Zm63.3,27.26h.59a5.13,5.13,0,0,1,2.49,1.5,31.49,31.49,0,0,1-1.16,6h0v.05a50.17,50.17,0,0,1-5.47,13.6c-1.16,2-2.57,2.86-4.43,2.86h-.07a21.56,21.56,0,0,1-5.76-.78,9.62,9.62,0,0,0-2.33-.32,6.7,6.7,0,0,0-4,1.15l.74-13a8.3,8.3,0,0,0-2-6.4,9,9,0,0,0-5.33-2.91l26.67-1.83Zm-50.84,3.48,16.25-1.11c-3.1,1.23-4.83,3.87-5,7.74l-.16,4.1-9.67,1v-6.78a8.33,8.33,0,0,0-1.43-4.91Z"/></g><path id="つ" class="cls-1" d="M820.39,155.41l-.86-2.76c-.74-2.45,1.05-4.94,4.07-5.66a28.82,28.82,0,0,0,7.74-2.8c2.58-1.54,4.23-4,3.83-5.75a5,5,0,0,0-2.73-3c-3.91-2-10.16-1.38-16.77-.42l-27,3.79c-3.8.53-7.41-1.51-8.07-4.55l-.52-2.4c-.66-3,1.87-5.94,5.67-6.48h0l27-3.81c7.58-1.06,19-2.66,28.84,2.36,5.39,2.7,9.13,7.08,10.32,12.08,1.54,6.94-2.58,14.44-10.49,19.11a44.41,44.41,0,0,1-11.48,4.54c-3.91,1-8.11-.72-9.36-3.86A1.18,1.18,0,0,1,820.39,155.41Z"/><g id="ち"><path class="cls-1" d="M850.19,65.53,911.26,55.2c4.12-.7,8.16,1.41,9,4.72l.4,1.53c.87,3.31-1.76,6.55-5.88,7.24L853.74,79c-4.12.7-8.16-1.41-9-4.71l-.4-1.54C843.44,69.47,846.07,66.23,850.19,65.53Z"/><path class="cls-1" d="M898.14,139.67c-.79.14-1.6.26-2.41.38-3.86.58-7.56-1.46-8.28-4.55a2.66,2.66,0,0,0-.07-.37L887,132.7c-.41-2.94,2.07-5.64,5.69-6.2,11.12-1.68,18.06-4.78,29.5-10.22,5.5-2.61,8.73-5.37,8.66-7.37s-3.6-4.42-8.36-5.88c-14.89-4.57-33-1.32-44,7.9l-3.09,2.59a8.36,8.36,0,0,1-10,.18,5.06,5.06,0,0,1-2.14-4.72l7.17-52.66c.4-3.12,3.87-5.39,7.76-5.07h0l3,.27c3.88.35,6.68,3.15,6.25,6.26l-3.39,25c-.43,3.11,2.37,5.91,6.25,6.26a9.07,9.07,0,0,0,2.6-.16,72.05,72.05,0,0,1,35.69,1.27c11.82,3.64,19.07,10.49,19.39,18.32.3,7.53-5.45,14.15-17.09,19.68C919,133.78,910.73,137.52,898.14,139.67Z"/></g><g id="み"><path class="cls-1" d="M644.65,153.94a3.32,3.32,0,0,1-2.8-1.44l-1.6-2.49c-6.75-10.49-2.71-24.68,9.42-33,9.94-6.83,22.67-8.66,32.65-9.5,3.5-.29,7-.49,10.52-.62a3.13,3.13,0,0,0,3-2.14A207.49,207.49,0,0,0,702,76h-.42a98.36,98.36,0,0,1-25.9-3.2c-4-1-6.41-4.81-5.14-8.46l.86-2.5c1.12-3.33,5-5.23,8.68-4.32,11,2.68,17.2,3,31.32,2.46h1.37c4.54-.19,8.24,3.29,7.85,7.39l-.12,1.22a220.19,220.19,0,0,1-6.31,35.3,2.93,2.93,0,0,0,2.21,3.51,3,3,0,0,0,.6.07,214,214,0,0,1,46.31,8.71c4.38,1.34,6.62,5.71,5,9.61l-2.22,5a3.27,3.27,0,0,1-3.83,1.74l-.28-.08a196.18,196.18,0,0,0-51.24-9.61,3.18,3.18,0,0,0-3.19,2c-1.94,5.11-4.54,10.65-9.14,15.37-5.82,5.94-14.47,10.14-25,12.13C664.77,154,656.23,154,648,154Zm42.18-26c1.47-2.07-.3-4.7-3-4.48h0c-7.69.65-17.35,2-23.8,6.38a15.08,15.08,0,0,0-4,4.08c-1.29,2,.42,4.47,3,4.35a79.34,79.34,0,0,0,10.54-1.13c6.77-1.29,12.3-3.83,15.57-7.18a17,17,0,0,0,1.74-2Z"/><path class="cls-1" d="M714.21,155.6l-.7-1.44a6.74,6.74,0,0,1,3.09-8.93,52.41,52.41,0,0,0,18.72-16.84A45.93,45.93,0,0,0,743,105.71a7.54,7.54,0,0,1,7.28-6.79l1.72-.13c4.7-.32,8.73,3.1,8.51,7.35a60.93,60.93,0,0,1-10.15,30.41,69.4,69.4,0,0,1-24.93,22.36C721.38,161.09,716.1,159.51,714.21,155.6Z"/></g><g id="や"><path class="cls-1" d="M1009.56,112.27l-.86-2c-1.1-2.63.51-5.5,3.7-6.59a21.37,21.37,0,0,0,6.34-3.06c1.72-1.38,2.19-3.3,1.72-3.77s-2.58-1.3-7.61-1.12c-14.5.6-28.27,5.29-38.88,13.25a7.86,7.86,0,0,1-8.83.17l-2-1.36c-2.78-1.9-3.12-5.24-.76-7.47l.46-.39c13.41-10.15,30.89-16.14,49.31-16.9,9.73-.36,16.78,1.71,21,6.15,5.51,5.83,4.11,14.64-3.24,20.48a37.48,37.48,0,0,1-11.6,5.84c-3.38,1.1-7.24-.21-8.61-2.92Z"/><path class="cls-1" d="M1003.77,97.9l-2.58-.49c-3.11-.58-5.26-2.87-5.09-5.42a21.24,21.24,0,0,0-1.59-9.71c-1-2.42.34-5.07,3.15-6.28l2.32-1c3.21-1.41,7.24-.47,9,2.11a5.26,5.26,0,0,1,.46.84,31.83,31.83,0,0,1,2.49,15.17c-.26,2.93-3.45,5.13-7.1,4.92A9.31,9.31,0,0,1,1003.77,97.9Z"/><path class="cls-1" d="M967.78,85.62l2.15-1.2c3-1.67,7.13-1.07,9.21,1.35l34.14,39.51c2.08,2.41,1.33,5.72-1.68,7.39l-2.14,1.19c-3,1.67-7.14,1.07-9.22-1.34L966.11,93C964,90.6,964.78,87.29,967.78,85.62Z"/></g><path class="cls-1" d="M585.63,85.46q-24.14,2.82-55.3,4.57-11.9.68-14.08.57-9.71-.5-9.11-9,.38-5.35,6.4-6.66a69.43,69.43,0,0,1,9-.5q19-.39,51.1-2.54,22.73-1.61,37-3.25a37.16,37.16,0,0,1,5.87-.35q6,.3,8.44,4.21a8.56,8.56,0,0,1,1.34,5.19q-.36,5.17-8.54,7.19A82.68,82.68,0,0,0,592.6,95.4q-19,12.1-20.16,28.25Q571.25,141,595.59,148.6q7.1,2.28,6.69,8a7.93,7.93,0,0,1-2.63,5.24c-1.79,1.75-4.31,2.54-7.58,2.37q-9.71-.48-21.74-9-17.91-12.63-16.55-31.84,1.13-16,16.69-28.68a66.28,66.28,0,0,1,13.39-8.48Z"/><g id="き"><path class="cls-1" d="M480.9,116.67h0c-2.15,3-6.39,4.65-10.67,4.14a88.94,88.94,0,0,0-33.84,2.12,185.74,185.74,0,0,0-18.55,5.88q-6.55,2.59-9.74,6.25a7,7,0,0,0-1.39,7.9q3.92,9.16,34.68.76l7.6-2.13,1.57-.43c2.38-.66,5.75-1.68,10.12-3.1q5.94-1.94,25.87-9.57a4.9,4.9,0,0,1,5.77,1.71c.05.09.1.18.14.27l3.34,7c.87,1.74-.1,3.73-2.22,4.54q-21.37,7.71-37.77,12.2-23,6.28-36.11,7.45t-21.65-2.06a19.81,19.81,0,0,1-11.82-11q-4.75-11.08,6-20.53t33.38-15.59q7.13-2,14.48-3.32c2.37-.51,3.78-2.46,3.15-4.36a3.64,3.64,0,0,0-1.37-1.77l-.11-.07a5.12,5.12,0,0,0-4.25-.73L373.6,119.64c-2.3.59-4.77-.43-5.52-2.28l-2.43-5.71c-.82-1.83.36-3.84,2.64-4.51l52.32-14.3c2.31-.69,3.48-2.74,2.62-4.59a3.27,3.27,0,0,0-.8-1.08c-.43-.42-.86-.87-1.35-1.33a5,5,0,0,0-4.77-1.16L370.16,97.3c-2.3.59-4.77-.43-5.52-2.28l-2.38-5.61c-.82-1.82.36-3.84,2.64-4.5h0l39.72-10.86c2.29-.68,3.46-2.72,2.61-4.55a2.85,2.85,0,0,0-.38-.63l-1.66-2.27c-1.27-1.68-.59-3.87,1.51-4.89a3.9,3.9,0,0,1,.47-.2l12.26-4.14A4.82,4.82,0,0,1,424.91,59q2.05,3,3.81,5.47a4.81,4.81,0,0,0,5.16,1.6l33.43-9.14c2.31-.59,4.78.42,5.52,2.27l2.38,5.61c.82,1.83-.36,3.84-2.63,4.5h0l-26,7.12c-2.3.69-3.47,2.74-2.61,4.59a3.37,3.37,0,0,0,.89,1.16l1.52,1.38a5,5,0,0,0,4.6,1l32-8.76c2.31-.59,4.78.42,5.52,2.27l2.5,5.7c.81,1.83-.37,3.85-2.64,4.51l-18.83,5.15c-2.31.7-3.48,2.77-2.6,4.63a3.69,3.69,0,0,0,1.52,1.61q4.53,2.76,8.89,5.09C482.18,107.37,483.75,112.55,480.9,116.67Z"/></g><path class="cls-3" d="M122.6,293.15a22.17,22.17,0,0,0,3.86-5.4,55.79,55.79,0,0,1,3.22-5c3.56-5.24,5.7-8.56,6.81-10.67l3.39-1.9a23.92,23.92,0,0,1-1.29,2.52l-2.75,4.82,5-1.94,31.21,18.53c-12.88,16.29-37,28-60.77,29.37-5.51.32-7.88-2.35-10.37-5.18v-.07Z"/><path id="左足" class="cls-3" d="M135,109.94a10.32,10.32,0,0,1,.18,1.09,20.67,20.67,0,0,1,.15,4.78,13.69,13.69,0,0,1-1.76,5.84,10.35,10.35,0,0,1-5.47,4.42,19,19,0,0,1-7.46.87c28.11-27.37,18-.9-4.2,15l-16.78-2.49c-2-.29-5-3.32-6.64-4.5l-.33-.24c-1.11-.82-2.2-1.65-3.28-2.5a23.12,23.12,0,0,0-3-2.31c-.7-.38-1.47-.58-2.14-1a25.27,25.27,0,0,1-3-2.52,102.53,102.53,0,0,1-9.8-10.3,100.23,100.23,0,0,1-8.27-11.58c-1.24-2-2.41-4.09-3.51-6.19-.54-1.06-1.07-2.12-1.58-3.19a16.91,16.91,0,0,1-.75-1.62c-.06-.2-.07-.4-.12-.6a7.08,7.08,0,0,0-.83-1.56c-.07-.13-.38-.55-.35-.74a6.47,6.47,0,0,0,1.77.26l1.88.24,3.78.47q3.8.48,7.57,1c5,.69,10.08,1.45,15.09,2.33s10,1.89,14.9,3.09,9.75,2.57,14.52,4.2a127.47,127.47,0,0,1,14,5.66l1.79.88a5.13,5.13,0,0,0,1.66.69c.74,0,1.64-.56,1.93.43Z"/><path class="cls-1" d="M116.5,142.34l-.15,0-16.78-2.49c-1.58-.23-3.65-2-5.32-3.36-.56-.46-1.08-.9-1.49-1.2l-.34-.25c-1.09-.81-2.2-1.65-3.28-2.51q-.44-.34-.87-.72a12.84,12.84,0,0,0-2.09-1.55,7.3,7.3,0,0,0-.9-.41A8.74,8.74,0,0,1,84,129.2a18.52,18.52,0,0,1-2.4-2l-.6-.55a102.43,102.43,0,0,1-18.14-22c-1.25-2-2.43-4.12-3.52-6.22-.55-1-1.08-2.13-1.59-3.2-.07-.15-.15-.3-.22-.44A9.44,9.44,0,0,1,57,93.6a2.74,2.74,0,0,1-.09-.39.86.86,0,0,0,0-.23,4,4,0,0,0-.54-1.07c-.08-.14-.17-.27-.24-.41L56,91.41a1.48,1.48,0,0,1-.35-.88l.08-.5.46.21a3.36,3.36,0,0,0,1.12.19l.53,0,5.67.71q3.8.48,7.57,1c5.65.78,10.6,1.55,15.11,2.34,5.4.95,10.28,2,14.92,3.09,5.2,1.27,10,2.64,14.56,4.21a131,131,0,0,1,14,5.68l1.8.88a3.72,3.72,0,0,1,.39.21A3,3,0,0,0,133,109a2.11,2.11,0,0,0,.59-.06c.51-.1,1.37-.26,1.67.76l0,.13c.08.3.12.62.17.93l0,.2a21.08,21.08,0,0,1,.21,3.87,2.51,2.51,0,0,1,1.43,0,1.37,1.37,0,0,1,.94,1.2c.57,3.86-8.39,16.87-21.47,26.24Zm-16.83-3.26,16.64,2.47c13.18-9.49,21.52-22.15,21-25.43-.07-.43-.28-.55-.44-.6a2.05,2.05,0,0,0-1.23.1c0,.08,0,.15,0,.22a14,14,0,0,1-1.8,6,10.74,10.74,0,0,1-5.67,4.58,19.06,19.06,0,0,1-7.61.9l-.85,0,.61-.6c6.58-6.41,11.62-10.38,14.62-11.57a20.11,20.11,0,0,0-.19-4l0-.21a6.27,6.27,0,0,0-.14-.85l0-.1c-.1-.32-.19-.35-.81-.23a3.33,3.33,0,0,1-.78.07,3.48,3.48,0,0,1-1.44-.54l-.36-.19c-.6-.3-1.19-.59-1.79-.87a128,128,0,0,0-13.95-5.65c-4.57-1.56-9.31-2.93-14.49-4.19-4.62-1.12-9.49-2.13-14.87-3.08-4.5-.79-9.44-1.56-15.08-2.33q-3.78-.53-7.56-1l-5.67-.71c-.15,0-.32,0-.49,0l-.55-.05c.07.13.15.25.23.38a4.86,4.86,0,0,1,.63,1.27c0,.1,0,.2.06.3a2.3,2.3,0,0,0,.06.28,7.85,7.85,0,0,0,.5,1.12c.08.15.15.31.23.46.5,1.06,1,2.13,1.58,3.17,1.08,2.09,2.25,4.16,3.49,6.17a100.71,100.71,0,0,0,18,21.8l.6.56a17.51,17.51,0,0,0,2.31,1.93,6,6,0,0,0,1.14.55c.33.14.66.28,1,.45a13.26,13.26,0,0,1,2.22,1.64c.28.24.56.48.85.71,1.07.85,2.17,1.68,3.26,2.49l.33.24c.43.32,1,.76,1.53,1.23,1.51,1.27,3.58,3,5,3.2Zm21.82-12.48a17.2,17.2,0,0,0,6.44-.89,9.92,9.92,0,0,0,5.28-4.25,13.18,13.18,0,0,0,1.69-5.54C132.82,116.84,128.87,119.48,121.49,126.6Z"/><path id="左足-2" data-name="左足" class="cls-3" d="M85.4,230.25a10,10,0,0,1,.41,1A20.53,20.53,0,0,1,87,235.91,13.79,13.79,0,0,1,86.5,242a10.47,10.47,0,0,1-4.41,5.48,19,19,0,0,1-7.1,2.44c21.64-32.72,17.39-4.71-.92,15.55l-16.92,1.14c-2,.13-5.62-2.18-7.45-3l-.37-.16c-1.26-.57-2.5-1.15-3.73-1.75a23.93,23.93,0,0,0-3.44-1.62c-.76-.22-1.56-.25-2.31-.54a23.92,23.92,0,0,1-3.42-1.83,101.08,101.08,0,0,1-11.78-8,102.62,102.62,0,0,1-10.54-9.55c-1.64-1.72-3.23-3.49-4.74-5.31-.76-.91-1.5-1.84-2.23-2.78a14.65,14.65,0,0,1-1.07-1.42c-.11-.18-.16-.38-.25-.56a7,7,0,0,0-1.14-1.35c-.1-.11-.49-.45-.51-.64A6.39,6.39,0,0,0,6,228l1.89-.17,3.8-.34c2.53-.22,5.07-.44,7.6-.64,5.08-.39,10.16-.73,15.25-.93s10.14-.27,15.21-.15,10.08.44,15.09,1a129.43,129.43,0,0,1,14.87,2.56l1.93.47a4.75,4.75,0,0,0,1.77.33c.73-.11,1.49-.9,2,0A.47.47,0,0,0,85.4,230.25Z"/><path class="cls-1" d="M57,267c-1.59,0-3.87-1.2-5.72-2.17-.64-.33-1.24-.65-1.71-.86l-.38-.16c-1.25-.56-2.5-1.15-3.74-1.75l-1-.52a13,13,0,0,0-2.38-1.08c-.31-.09-.64-.15-1-.21a7.79,7.79,0,0,1-1.37-.33,19.31,19.31,0,0,1-2.78-1.45l-.7-.42a101,101,0,0,1-11.82-8,102.3,102.3,0,0,1-10.58-9.58c-1.65-1.72-3.25-3.51-4.76-5.33-.77-.93-1.52-1.86-2.24-2.79l-.3-.38a9.34,9.34,0,0,1-.79-1.08,2.92,2.92,0,0,1-.17-.36,1.47,1.47,0,0,0-.1-.22,4.26,4.26,0,0,0-.75-.93L4.4,229l-.08-.08a1.45,1.45,0,0,1-.52-.79l0-.5.49.11a3.42,3.42,0,0,0,1.13-.06c.19,0,.37-.06.54-.07l5.69-.51c2.53-.23,5.07-.44,7.6-.64,5.69-.44,10.68-.75,15.26-.93,5.48-.22,10.46-.27,15.24-.16,5.36.13,10.3.47,15.12,1A131.48,131.48,0,0,1,79.75,229l2,.48.42.12a2.9,2.9,0,0,0,1.2.19,2.27,2.27,0,0,0,.56-.18c.48-.2,1.29-.54,1.79.39l.06.11a6,6,0,0,1,.36.88l.07.19a21.37,21.37,0,0,1,1,3.73,2.57,2.57,0,0,1,1.39-.34,1.38,1.38,0,0,1,1.17,1c1.38,3.65-4.61,18.26-15.4,30.2l-.1.11L57.17,267ZM5,228.52l.31.32A4.79,4.79,0,0,1,6.15,230a2.39,2.39,0,0,1,.13.28,1.45,1.45,0,0,0,.11.26,9.31,9.31,0,0,0,.73,1l.32.39c.71.92,1.45,1.85,2.22,2.77,1.5,1.8,3.08,3.58,4.72,5.29a101.81,101.81,0,0,0,10.5,9.51,100.41,100.41,0,0,0,11.74,7.95l.71.42A16.06,16.06,0,0,0,40,259.2a6.14,6.14,0,0,0,1.23.3c.35.07.7.13,1.05.23a14.2,14.2,0,0,1,2.51,1.14l1,.5c1.23.6,2.48,1.19,3.72,1.74l.37.17c.49.22,1.11.54,1.76.88,1.75.91,4.12,2.15,5.51,2.07L73.9,265.1C84.76,253,90.22,238.88,89.05,235.79c-.16-.42-.39-.49-.55-.51a2.19,2.19,0,0,0-1.19.37l0,.22a14,14,0,0,1-.49,6.25,10.69,10.69,0,0,1-4.56,5.67,19.1,19.1,0,0,1-7.24,2.5l-.85.13.47-.71c5.07-7.66,9.15-12.61,11.83-14.42a20.67,20.67,0,0,0-1-3.88l-.07-.19a7.07,7.07,0,0,0-.33-.8l0-.09c-.17-.3-.26-.31-.85-.06a3.38,3.38,0,0,1-.74.24,3.65,3.65,0,0,1-1.52-.22l-.4-.11c-.64-.17-1.28-.32-1.93-.47a127.88,127.88,0,0,0-14.83-2.56c-4.79-.55-9.71-.88-15-1-4.76-.11-9.73-.06-15.19.16-4.57.18-9.55.48-15.23.93-2.53.19-5.07.41-7.6.63L6,228.38l-.49.06Zm81.65,7.59c-1.83,1.34-5.13,4.76-10.83,13.29a17.5,17.5,0,0,0,6.11-2.24,9.93,9.93,0,0,0,4.25-5.28A13.06,13.06,0,0,0,86.61,236.11Z"/><path id="左足-3" data-name="左足" class="cls-3" d="M220.9,153.58c-.21.3-.47.58-.71.86a20.68,20.68,0,0,1-3.51,3.23,13.75,13.75,0,0,1-5.56,2.51,10.42,10.42,0,0,1-6.93-1.25,18.71,18.71,0,0,1-5.54-5.06c39.09,3.31,12.47,13-14.09,6.66l-9.11-14.31c-1.08-1.69-.79-6-.95-8,0-.14,0-.28,0-.41-.11-1.37-.19-2.74-.25-4.11a24.09,24.09,0,0,0-.23-3.8c-.17-.77-.53-1.49-.64-2.28a25.25,25.25,0,0,1,0-3.89,101.31,101.31,0,0,1,4.69-28c.71-2.26,1.51-4.5,2.38-6.7.44-1.11.9-2.2,1.37-3.29a15.78,15.78,0,0,1,.74-1.62c.11-.18.25-.32.37-.49A7.33,7.33,0,0,0,183.5,82c.05-.14.16-.64.32-.75a6.33,6.33,0,0,0,1,1.51l1.06,1.58c.71,1,1.42,2.11,2.12,3.17,1.41,2.11,2.82,4.23,4.21,6.37,2.78,4.26,5.5,8.56,8.12,12.93s5.1,8.76,7.43,13.27,4.45,9,6.35,13.73A130.4,130.4,0,0,1,219,148.11c.18.64.35,1.29.51,1.93a4.87,4.87,0,0,0,.57,1.71c.44.59,1.49.87.93,1.73Z"/><path class="cls-1" d="M202.61,163a78.94,78.94,0,0,1-18.13-2.13l-.15,0-.08-.13-9.12-14.31c-.85-1.34-.9-4-.94-6.22,0-.72,0-1.41-.07-1.91l0-.41c-.11-1.37-.19-2.76-.26-4.13,0-.37,0-.75,0-1.13a13.17,13.17,0,0,0-.2-2.6,7.79,7.79,0,0,0-.28-.94,8.33,8.33,0,0,1-.36-1.37,18.19,18.19,0,0,1-.06-3.13l0-.81a101.51,101.51,0,0,1,4.7-28.1c.72-2.26,1.52-4.53,2.39-6.73.44-1.11.9-2.22,1.38-3.3l.19-.45a8.9,8.9,0,0,1,.57-1.21,2.62,2.62,0,0,1,.23-.32l.15-.19a4.61,4.61,0,0,0,.45-1.11c.05-.15.09-.3.15-.45l0-.11a1.35,1.35,0,0,1,.44-.83l.42-.27.14.48a3.46,3.46,0,0,0,.6,1l.32.43,1.06,1.58,2.11,3.17q2.13,3.18,4.21,6.37c3.11,4.77,5.77,9,8.13,12.94,2.82,4.71,5.26,9.06,7.44,13.3,2.46,4.77,4.54,9.27,6.36,13.76a130.37,130.37,0,0,1,4.9,14.31c.18.65.35,1.29.52,1.94l.09.43a2.87,2.87,0,0,0,.41,1.14,2.42,2.42,0,0,0,.43.41c.41.32,1.09.87.52,1.76l-.07.11c-.18.25-.4.5-.61.74l-.12.14a21.39,21.39,0,0,1-2.79,2.69,2.49,2.49,0,0,1,1,1.06,1.36,1.36,0,0,1-.3,1.49C216.85,161.69,210.67,163,202.61,163ZM184.8,160.2c15.8,3.75,30.84,1.75,33-.76a.66.66,0,0,0,.18-.73,2.16,2.16,0,0,0-.9-.86l-.17.13a14.05,14.05,0,0,1-5.72,2.57,10.72,10.72,0,0,1-7.17-1.29,19.06,19.06,0,0,1-5.66-5.16l-.52-.67.85.07c9.15.77,15.45,2,18.32,3.46a20.47,20.47,0,0,0,2.91-2.77L220,154a7,7,0,0,0,.55-.67l.06-.09c.18-.28.14-.37-.36-.77a2.84,2.84,0,0,1-.56-.54,3.57,3.57,0,0,1-.54-1.44l-.09-.39-.51-1.93A131.74,131.74,0,0,0,213.72,134c-1.82-4.47-3.89-8.95-6.34-13.7-2.17-4.22-4.6-8.56-7.41-13.25-2.35-3.93-5-8.15-8.12-12.92q-2.08-3.19-4.2-6.37l-2.12-3.16L184.47,83a4.41,4.41,0,0,0-.29-.4l-.33-.44c0,.14-.09.28-.13.42a4.86,4.86,0,0,1-.55,1.31l-.19.24c-.06.08-.12.15-.17.23a9.42,9.42,0,0,0-.52,1.11c-.06.16-.13.32-.2.47-.47,1.08-.92,2.18-1.36,3.28-.86,2.18-1.66,4.43-2.37,6.68a100.6,100.6,0,0,0-4.67,27.88l0,.83a17.63,17.63,0,0,0,.06,3,6.38,6.38,0,0,0,.32,1.23,9.21,9.21,0,0,1,.31,1,14.22,14.22,0,0,1,.21,2.75c0,.38,0,.74,0,1.11.06,1.36.15,2.74.26,4.1l0,.4c0,.54.06,1.23.07,2,0,2,.08,4.66.83,5.83l-.07,0C176.21,146.71,177.9,149.38,184.8,160.2Zm14.68-5.88a17.54,17.54,0,0,0,4.9,4.29,10,10,0,0,0,6.67,1.2,13.21,13.21,0,0,0,5.29-2.35C214.28,156.49,209.7,155.23,199.48,154.32Z"/><path id="しっぽ" class="cls-4" d="M76.57,192.15c-9.43-1-29.43-8.13-35.57-11.58-5.76-3.21-13-9.25-16.75-12.93L26.58,169l-4.2-2.21c6.26-3.88,22.38-2.31,33.1-1.63,11.35.7,22.87,1.58,34.23,2.61l-.15,3c0,15-34,12.42-33.94-2.59,0-3.68,28.57,4.62,23.88,6.56,2.75,4.33-38.66,7.65-34.83,4.07C61.8,162.74,95.6,175,78.48,191l-1.88,1.2Z"/><path class="cls-1" d="M76.43,192.77l-.12-.27c-9.46-1.08-29.23-8.08-35.49-11.6-6-3.32-13-9.32-16.56-12.73l-2.64-1.39.56-.34.19-.12-.45-.44.62.35c5.93-3.32,19.06-2.42,29.65-1.7l3.31.22c11.31.7,22.83,1.58,34.24,2.61l.36,0-.17,3.32a9,9,0,0,1-4.93,8,15,15,0,0,1-1.93.92,8.51,8.51,0,0,1,.3,1c.78,3.4-.82,7.08-4.64,10.64Zm-50-23.57a89.46,89.46,0,0,0,14.72,11c6.27,3.52,26.12,10.54,35.42,11.53l1.68-1.07c3.55-3.33,5.08-6.76,4.36-9.88a7,7,0,0,0-.27-.89,27.15,27.15,0,0,1-16.84-.32c-9.34,1.22-20,1.57-21.31,0-.11-.13-.42-.61.19-1.18A27.91,27.91,0,0,1,56,172a9.86,9.86,0,0,1-.8-3.93c0-.47.29-1.06,1.67-1.25,4.68-.62,22.73,4.32,23.45,7a.82.82,0,0,1-.38.93,1.12,1.12,0,0,1,0,.64,10.67,10.67,0,0,1,2.85,3.5,13.69,13.69,0,0,0,1.85-.88,8.29,8.29,0,0,0,4.55-7.4l.14-2.62c-11.29-1-22.68-1.89-33.86-2.58l-3.32-.22c-9.72-.66-22.87-1.56-28.83,1.39l3.46,2Zm40.81,10.17a26.17,26.17,0,0,0,14.8-.12,9.63,9.63,0,0,0-2.58-3.16l-.27.21C77.61,177.47,72.82,178.57,67.27,179.37Zm-22.48-.19s.39.61,5.05.69A115.85,115.85,0,0,0,64,179a20.27,20.27,0,0,1-2.38-1.18,13.33,13.33,0,0,1-5.26-5.13A27.27,27.27,0,0,0,44.92,179a.53.53,0,0,0-.13.17Zm12.33-6.65A13.05,13.05,0,0,0,62,177.2a21,21,0,0,0,3.59,1.64c6.24-.79,11.81-2,13.3-3.22a19.38,19.38,0,0,0-5.79-2.78A31,31,0,0,0,57.12,172.53Zm7.5-1.65a30.17,30.17,0,0,1,8.7,1.24,20.1,20.1,0,0,1,5.9,2.82.25.25,0,0,0,0-.07l-.24-.38.42-.17s.3-.13.28-.22c-.51-1.91-17.45-7.18-22.63-6.49-.31,0-1,.17-1,.5a9,9,0,0,0,.79,3.73A32.28,32.28,0,0,1,64.62,170.88Z"/><g id="顔"><path id="顔の輪郭" class="cls-5" d="M205.83,268.27c6.47,6.52,20.65,20,29.16,24.25s18.33,6.55,26.89,5C276.2,295,283.57,283,289.62,272c4.68-8.54,9.42-17.24,10.64-27.07a35.08,35.08,0,0,0-10.11-29.45c-6.38-6.22-15.24-10.15-24-12.26s-17.75-2.51-26.52-2.89"/><path class="cls-1" d="M256.23,300.89a51.25,51.25,0,0,1-22.53-5.79c-10-5-26.68-21.54-29.91-24.8l4.08-4.06c8.64,8.7,21.26,20.13,28.41,23.7,8.67,4.33,17.81,6.07,25.09,4.75,12.77-2.25,19.45-12.67,25.73-24.08,4.49-8.2,9.14-16.69,10.3-26a32.37,32.37,0,0,0-9.28-27.05c-6.81-6.64-16.07-9.93-22.64-11.51-8.55-2.06-17.41-2.44-26-2.81l.24-5.76c8.85.39,18,.78,27.07,3,7.28,1.75,17.58,5.43,25.34,13a38.2,38.2,0,0,1,11,31.88c-1.3,10.42-6.22,19.4-11,28.08-6.7,12.18-14.52,24.29-29.77,27A35.19,35.19,0,0,1,256.23,300.89Z"/><circle class="cls-6" cx="281.42" cy="266.75" r="2.35"/><circle class="cls-7" cx="284.25" cy="260.12" r="2.35"/><circle id="左目の外の白" class="cls-1" cx="284.27" cy="239.86" r="10.79" transform="translate(-83.34 183.23) rotate(-31.4)"/><circle id="右目の外の白" class="cls-1" cx="264.07" cy="275.37" r="10.79"/><circle id="左目の黒" cx="285.67" cy="240.42" r="7.06"/><circle id="右目の黒" cx="266.16" cy="275.16" r="7.06"/><circle id="左目の小さい白" class="cls-1" cx="288.68" cy="241.04" r="2.75"/><circle id="右目の小さい白" class="cls-1" cx="267.8" cy="275.86" r="2.75"/></g><path class="cls-3" d="M54.49,250.72C38.78,225,36,193.31,47.14,166c9.35-23,27.64-40.77,51.54-50a103.48,103.48,0,0,1,124.14,42.3c15.53,25.44,18.29,55.37,7.56,82C221.62,262.1,203.72,279,180,288c-23.39,8.82-50.53,9.25-76.44,1.22A87,87,0,0,1,54.49,250.72Z"/><path class="cls-1" d="M220.86,159.48c15.22,24.93,17.92,54.2,7.41,80.3-8.57,21.29-26.05,37.83-49.21,46.58-23,8.67-49.67,9.09-75.16,1.19a85.18,85.18,0,0,1-48-37.68,94.62,94.62,0,0,1-13.37-40.49,91,91,0,0,1,6.15-42.53C57.81,144.36,75.73,127,99.1,117.94a101.51,101.51,0,0,1,121.73,41.52h0m3.35-2.05a104.2,104.2,0,0,0-50-42.11c-51.59-21-109.45,1.46-129.18,50-11.56,28.42-8.06,61,7.49,86.51a89.51,89.51,0,0,0,50.17,39.38c53.77,16.68,110.39-3.35,129.18-50,11.33-28.14,7.53-58.86-7.69-83.8Z"/><path class="cls-3" d="M61.75,240.86c-14.06-23-16.56-49.87-6.89-73.65,8.42-20.77,25.08-36.73,46.88-45s46.27-7.82,68.71,1.27a94.24,94.24,0,0,1,45.47,38.24c14,23,16.56,49.86,6.89,73.65-8.42,20.77-25.09,36.73-46.89,45s-46.26,7.82-68.7-1.27A94.1,94.1,0,0,1,61.75,240.86Z"/><polygon class="cls-8" points="118.36 169.7 103.59 206.05 127.68 237.01 166.55 231.61 181.33 195.26 157.23 164.3 118.36 169.7"/><path class="cls-9" d="M126.49,240l-26-33.47,16-39.28,42-5.84,26.05,33.46-16,39.29Zm-19.76-34.33,22.14,28.45,35.73-5,13.59-33.42L156,167.24l-35.73,5Z"/><rect class="cls-10" x="147.99" y="143.82" width="37.34" height="4.4" transform="translate(-44.52 213.11) rotate(-58.85)"/><rect class="cls-11" x="181.25" y="191.08" width="43.17" height="5.49" transform="translate(-15.9 18.14) rotate(-4.93)"/><rect class="cls-12" x="177.33" y="227.47" width="5.49" height="44.67" transform="matrix(0.8, -0.61, 0.61, 0.8, -114.5, 160.05)"/><rect class="cls-13" x="48.97" y="207.65" width="55.4" height="6.11" transform="translate(-9.72 3.79) rotate(-2.67)"/><rect class="cls-14" x="99.49" y="257.01" width="45.52" height="5.49" transform="translate(-164.42 275.23) rotate(-67.89)"/><rect class="cls-15" x="100.43" y="125.78" width="5.49" height="49.24" transform="translate(-69.98 93.11) rotate(-37.24)"/><path id="ピンクの輪" class="cls-16" d="M212.85,163c13.12,21.51,15.08,46.81,5.35,69.44-17.56,40.84-67.93,60.26-112.29,43.28a85.87,85.87,0,0,1-43.23-35.4c-13.13-21.51-15.08-46.82-5.36-69.44,17.56-40.87,67.91-60.27,112.29-43.3A85.84,85.84,0,0,1,212.85,163h0m3.34-2a90.12,90.12,0,0,0-45.07-37c-46.39-17.76-98.93,2.6-117.36,45.47-10.57,24.59-7.62,51.25,5.56,72.85a90.15,90.15,0,0,0,45,37c46.43,17.73,99-2.62,117.4-45.5,10.57-24.59,7.62-51.25-5.57-72.85Z"/></svg>