<svg id="レイヤー_1" data-name="レイヤー 1" xmlns="http://www.w3.org/2000/svg" viewBox="0 0 230 230"><defs><style>.cls-1,.cls-5{fill:#fff;}.cls-1,.cls-2,.cls-4,.cls-6{stroke:#003d80;stroke-miterlimit:10;}.cls-1{stroke-width:4px;}.cls-2,.cls-3,.cls-4{fill:#003d80;}.cls-2{stroke-width:2px;}.cls-4{stroke-width:10px;}.cls-6{fill:#0075d0;stroke-width:5px;}</style></defs><g id="_3trees" data-name="3trees"><g id="tree"><path class="cls-1" d="M153.78,35.69l-8.43,24.83a5.35,5.35,0,0,0,5.07,7.07h16.86a5.35,5.35,0,0,0,5.06-7.07l-8.43-24.83A5.35,5.35,0,0,0,153.78,35.69Z"/><polygon class="cls-2" points="165.2 86.15 154.15 86.15 156.78 60.78 161.25 60.51 165.2 86.15"/><polygon class="cls-2" points="158.74 42.83 156.14 64.65 161.35 64.65 158.74 42.83"/><polygon class="cls-2" points="151.64 58.15 156.78 72.46 163.59 70.29 151.64 58.15"/><polygon class="cls-2" points="165.3 52.3 157.31 67.98 163.06 71.03 165.3 52.3"/></g><g id="tree-2" data-name="tree"><path class="cls-1" d="M184,35.69l-8.43,24.83a5.35,5.35,0,0,0,5.06,7.07h16.86a5.35,5.35,0,0,0,5.07-7.07l-8.43-24.83A5.35,5.35,0,0,0,184,35.69Z"/><polygon class="cls-2" points="195.42 86.15 184.36 86.15 187 60.78 191.47 60.51 195.42 86.15"/><polygon class="cls-2" points="188.96 42.83 186.35 64.65 191.56 64.65 188.96 42.83"/><polygon class="cls-2" points="181.86 58.15 187 72.46 193.81 70.29 181.86 58.15"/><polygon class="cls-2" points="195.51 52.3 187.52 67.98 193.28 71.03 195.51 52.3"/></g><g id="tree-3" data-name="tree"><path class="cls-1" d="M170.26,35.69l-8.43,24.83a5.35,5.35,0,0,0,5.07,7.07h16.86a5.36,5.36,0,0,0,5.07-7.07L180.4,35.69A5.36,5.36,0,0,0,170.26,35.69Z"/><polygon class="cls-2" points="181.68 86.15 170.63 86.15 173.26 60.78 177.74 60.51 181.68 86.15"/><polygon class="cls-2" points="175.22 42.83 172.62 64.65 177.83 64.65 175.22 42.83"/><polygon class="cls-2" points="168.12 58.15 173.26 72.46 180.07 70.29 168.12 58.15"/><polygon class="cls-2" points="181.78 52.3 173.79 67.98 179.54 71.03 181.78 52.3"/></g></g><g id="道"><path class="cls-3" d="M202.63,174c-7.74-6.76-13.82-7-21.53-7.29-8.45-.32-18-.69-28.95-10.23s-12.59-19-14.06-27.31c-1.33-7.6-2.39-13.6-10.12-20.35s-13.82-7-21.53-7.28c-8.45-.33-18-.7-28.95-10.24s-12.59-19-14-27.3c-1.34-7.6-2.39-13.6-10.13-20.35l7.89-9c10.93,9.54,12.59,19,14,27.31,1.34,7.59,2.39,13.59,10.13,20.34s13.82,7,21.52,7.29c8.45.32,18,.69,29,10.23s12.59,19,14,27.31c1.34,7.59,2.39,13.59,10.13,20.35s13.82,7,21.53,7.28c8.44.33,18,.7,29,10.24Z"/><polygon class="cls-4" points="52.24 29.54 49.46 52.28 78.54 38.96 52.24 29.54"/></g><g id="カメラ"><rect class="cls-5" x="38.5" y="94.24" width="149.46" height="80.83" rx="9.6"/><path class="cls-3" d="M178.35,96.74a7.1,7.1,0,0,1,7.1,7.1v61.63a7.11,7.11,0,0,1-7.1,7.1H48.1a7.11,7.11,0,0,1-7.1-7.1V103.84a7.11,7.11,0,0,1,7.1-7.1H178.35m0-5H48.1A12.1,12.1,0,0,0,36,103.84v61.63a12.1,12.1,0,0,0,12.1,12.1H178.35a12.1,12.1,0,0,0,12.1-12.1V103.84a12.09,12.09,0,0,0-12.1-12.1Z"/><rect class="cls-5" x="44.17" y="81.89" width="16.1" height="11.42" rx="3"/><path class="cls-3" d="M57.27,83.89a1,1,0,0,1,1,1V90.3a1,1,0,0,1-1,1H47.18a1,1,0,0,1-1-1V84.89a1,1,0,0,1,1-1H57.27m0-4H47.18a5,5,0,0,0-5,5V90.3a5,5,0,0,0,5,5H57.27a5,5,0,0,0,5-5V84.89a5,5,0,0,0-5-5Z"/><path class="cls-5" d="M80.17,93.26A2.68,2.68,0,0,1,77.88,92a2.37,2.37,0,0,1-.11-2.32l6.52-14.13c.11-.22.53-.38,2.36-.38h52.09a2.7,2.7,0,0,1,2.4,1.44l6.49,13.07a2.37,2.37,0,0,1-.11,2.32,2.68,2.68,0,0,1-2.29,1.24Z"/><path class="cls-3" d="M138.74,77.69a.3.3,0,0,1,.16,0l6.45,13a.27.27,0,0,1-.12,0H80.17a.32.32,0,0,1-.13,0l0-.06,6-13h52.68m0-5H86.65c-2,0-3.77.1-4.63,1.83L75.53,88.58a5,5,0,0,0,4.64,7.18h65.06a5,5,0,0,0,4.64-7.18l-6.49-13.06a5.17,5.17,0,0,0-4.64-2.83Z"/><path class="cls-5" d="M161.24,101.92h9.41a3.85,3.85,0,0,1,3.85,3.85v.62a3.84,3.84,0,0,1-3.84,3.84h-9.41a3.85,3.85,0,0,1-3.85-3.85v-.62A3.84,3.84,0,0,1,161.24,101.92Z"/><path class="cls-3" d="M170.65,103.42a2.34,2.34,0,0,1,2.34,2.34v.62a2.34,2.34,0,0,1-2.34,2.34h-9.41a2.35,2.35,0,0,1-2.35-2.34v-.62a2.35,2.35,0,0,1,2.35-2.34h9.41m0-3h-9.41a5.34,5.34,0,0,0-5.35,5.34v.62a5.34,5.34,0,0,0,5.35,5.34h9.41a5.34,5.34,0,0,0,5.34-5.34v-.62a5.34,5.34,0,0,0-5.34-5.34Z"/><rect class="cls-6" x="38.64" y="123.6" width="149.17" height="50.37" rx="9.14"/><g id="レンズ"><path class="cls-5" d="M112.7,155.12c-13.9,0-25.21-10.91-25.21-24.32s11.31-24.33,25.21-24.33,25.21,10.92,25.21,24.33S126.6,155.12,112.7,155.12Z"/><path class="cls-3" d="M112.7,112.47c10.59,0,19.21,8.22,19.21,18.33s-8.62,18.32-19.21,18.32S93.49,140.9,93.49,130.8s8.62-18.33,19.21-18.33m0-12c-17.24,0-31.21,13.58-31.21,30.33s14,30.32,31.21,30.32,31.21-13.58,31.21-30.32-14-30.33-31.21-30.33Z"/><path class="cls-5" d="M112.7,149.34c-10.55,0-19.13-8.32-19.13-18.54s8.58-18.55,19.13-18.55,19.13,8.32,19.13,18.55S123.25,149.34,112.7,149.34Z"/><path class="cls-3" d="M112.7,113.75c9.72,0,17.63,7.65,17.63,17.05s-7.91,17-17.63,17-17.63-7.64-17.63-17,7.91-17.05,17.63-17.05m0-3c-11.39,0-20.63,9-20.63,20.05s9.24,20,20.63,20,20.63-9,20.63-20-9.24-20.05-20.63-20.05Z"/></g></g><path class="cls-3" d="M90.45,197.88a1,1,0,0,1-.77-.31,1,1,0,0,1-.31-.77,1,1,0,0,1,.31-.77,1.09,1.09,0,0,1,.77-.31h3a1.31,1.31,0,0,1,1,.4,1.28,1.28,0,0,1,.41.95v5.49a.74.74,0,0,0,.12.39,4.06,4.06,0,0,0,1.5,1.47,7.76,7.76,0,0,0,2.68.72,42.77,42.77,0,0,0,5.06.23h5.66a1,1,0,0,1,.77.32,1,1,0,0,1,.29.78,1.14,1.14,0,0,1-.36.78,1.12,1.12,0,0,1-.82.33H104a32.67,32.67,0,0,1-6.68-.51,6.1,6.1,0,0,1-3.42-1.8c-.1-.11-.2-.12-.29,0a21.24,21.24,0,0,1-2.43,2,1,1,0,0,1-.86.18,1.05,1.05,0,0,1-.7-.54,1.31,1.31,0,0,1-.12-1,1.4,1.4,0,0,1,.56-.8,23.19,23.19,0,0,0,2.11-1.73.37.37,0,0,0,.12-.31v-5.07a.17.17,0,0,0-.19-.19Zm.07-10.15a1.17,1.17,0,0,1,.84-.29,1.26,1.26,0,0,1,.82.36c.73.77,1.56,1.66,2.47,2.67a1,1,0,0,1,.28.8,1.16,1.16,0,0,1-.38.78,1,1,0,0,1-.81.26,1.14,1.14,0,0,1-.77-.38q-.84-.92-2.52-2.64a1.05,1.05,0,0,1-.29-.79A1.14,1.14,0,0,1,90.52,187.73Zm9.94.65a36.8,36.8,0,0,1-2.64,6.31.33.33,0,0,0,0,.36,37.28,37.28,0,0,1,2.93,7.42,1.15,1.15,0,0,1-.14.95,1.13,1.13,0,0,1-.8.53,1.38,1.38,0,0,1-1.58-1,35.38,35.38,0,0,0-2.6-6.89,2.5,2.5,0,0,1,0-2.4A36.8,36.8,0,0,0,97.94,188a1.47,1.47,0,0,1,.62-.82,1.48,1.48,0,0,1,1-.21,1,1,0,0,1,.77.49A1.09,1.09,0,0,1,100.46,188.38Zm4.32,15.21a1.28,1.28,0,0,1-1-.16,1.42,1.42,0,0,1-.6-.82,35.74,35.74,0,0,0-2.56-6.6,2.44,2.44,0,0,1,0-2.4,36.52,36.52,0,0,0,2.3-5.59,1.47,1.47,0,0,1,.62-.82,1.45,1.45,0,0,1,1-.21,1,1,0,0,1,.77.49,1.09,1.09,0,0,1,.12.9,38.18,38.18,0,0,1-2.62,6.24.38.38,0,0,0,0,.36,37.63,37.63,0,0,1,2.9,7.15,1.08,1.08,0,0,1-.14.94A1.19,1.19,0,0,1,104.78,203.59Zm5,0a1.25,1.25,0,0,1-1-.16,1.34,1.34,0,0,1-.6-.82,35.58,35.58,0,0,0-2.6-6.6,2.5,2.5,0,0,1,0-2.4A35.56,35.56,0,0,0,107.9,188a1.47,1.47,0,0,1,.62-.82,1.48,1.48,0,0,1,1-.21,1,1,0,0,1,.77.49,1.09,1.09,0,0,1,.12.9,37.92,37.92,0,0,1-2.64,6.26.4.4,0,0,0,0,.34,37.63,37.63,0,0,1,2.9,7.15,1.11,1.11,0,0,1-.13.94A1.13,1.13,0,0,1,109.77,203.59Z"/><path class="cls-3" d="M119.42,198.89a1,1,0,0,1-.78.07,1,1,0,0,1-.59-.48,1,1,0,0,1-.08-.79,1,1,0,0,1,.46-.62l11.24-7,0,0,0,0h-9.34a1,1,0,0,1-.74-.3,1,1,0,0,1-.32-.73,1.08,1.08,0,0,1,1.06-1.06H133.1a1.09,1.09,0,0,1,.77.31,1.15,1.15,0,0,1,.33.77,1.63,1.63,0,0,1-.89,1.58l-7.65,4.42v0h0a17.68,17.68,0,0,1,3.52-.38c2.44,0,4.22.45,5.37,1.34a4.8,4.8,0,0,1,1.71,4,6.11,6.11,0,0,1-2.42,5.19q-2.43,1.82-6.94,1.82a10.19,10.19,0,0,1-5.22-1.06,3.34,3.34,0,0,1-1.74-3,3.06,3.06,0,0,1,1.44-2.55,6.83,6.83,0,0,1,4.08-1,6.63,6.63,0,0,1,4,.92,3.18,3.18,0,0,1,1.2,2.68,4.77,4.77,0,0,1-.21,1.34.1.1,0,0,0,0,.12s.07,0,.12,0a4,4,0,0,0,3-4.13,3.2,3.2,0,0,0-1.2-2.77,7,7,0,0,0-4-.88A20.51,20.51,0,0,0,119.42,198.89Zm8.64,5.83a3.54,3.54,0,0,0,.41-1.51c0-1.2-1-1.8-3.08-1.8a4,4,0,0,0-2.12.47,1.32,1.32,0,0,0-.76,1.09,1.62,1.62,0,0,0,1.08,1.43,7.89,7.89,0,0,0,3.36.54h.82A.31.31,0,0,0,128.06,204.72Z"/></svg>