<svg id="レイヤー_1" data-name="レイヤー 1" xmlns="http://www.w3.org/2000/svg" viewBox="0 0 230 230"><defs><style>.cls-1,.cls-6{fill:#fff;}.cls-11,.cls-2{fill:#003d80;}.cls-10,.cls-3,.cls-5,.cls-9{fill:none;}.cls-11,.cls-3,.cls-4,.cls-5,.cls-6,.cls-7,.cls-8,.cls-9{stroke:#003d80;}.cls-10,.cls-11,.cls-3,.cls-4,.cls-5,.cls-6,.cls-7,.cls-8,.cls-9{stroke-miterlimit:10;}.cls-3,.cls-4,.cls-6,.cls-7,.cls-8{stroke-width:0.75px;}.cls-4{fill:#0046d0;}.cls-7{fill:#3fa9f5;}.cls-8{fill:#0071bc;}.cls-9{stroke-width:3px;}.cls-10{stroke:#fff;stroke-width:0.25px;}</style></defs><g id="PC"><g id="PC上枠"><rect class="cls-1" x="30.35" y="37" width="127.69" height="97.48" rx="5.27"/><path class="cls-2" d="M152.77,39A3.28,3.28,0,0,1,156,42.27v86.94a3.28,3.28,0,0,1-3.27,3.27H35.62a3.28,3.28,0,0,1-3.27-3.27V42.27A3.28,3.28,0,0,1,35.62,39H152.77m0-4H35.62a7.26,7.26,0,0,0-7.27,7.27v86.94a7.27,7.27,0,0,0,7.27,7.27H152.77a7.28,7.28,0,0,0,7.27-7.27V42.27A7.27,7.27,0,0,0,152.77,35Z"/></g><g id="PC画面"><path class="cls-2" d="M150.77,43.19v81.62H37.39V43.19H150.77m2-2H35.39v85.62H152.77V41.19Z"/></g><g id="PC下枠"><path class="cls-1" d="M24.09,161.86a7.16,7.16,0,0,1-6.25-3.7,8.35,8.35,0,0,1-.12-8.37l7.64-13.85A7.36,7.36,0,0,1,31.74,132H153a7.36,7.36,0,0,1,6.37,3.91L167,149.79a8.35,8.35,0,0,1-.12,8.37,7.16,7.16,0,0,1-6.25,3.7Z"/><path class="cls-2" d="M153,134a5.35,5.35,0,0,1,4.62,2.88l7.64,13.84a6.37,6.37,0,0,1-.09,6.39,5.28,5.28,0,0,1-4.53,2.72H24.09a5.28,5.28,0,0,1-4.53-2.72,6.37,6.37,0,0,1-.09-6.39l7.64-13.84A5.36,5.36,0,0,1,31.74,134H153m0-4H31.74A9.33,9.33,0,0,0,23.61,135L16,148.82c-3.68,6.66.85,15,8.12,15H160.67c7.27,0,11.8-8.38,8.12-15L161.15,135A9.32,9.32,0,0,0,153,130Z"/></g></g><g id="棒_折れ線グラフ" data-name="棒＆折れ線グラフ"><rect class="cls-3" x="45.54" y="56.21" width="58.28" height="50.29"/><rect class="cls-4" x="54.28" y="78.21" width="2.91" height="23.57"/><rect class="cls-4" x="90.7" y="78.21" width="2.91" height="23.57"/><rect class="cls-4" x="68.85" y="68.79" width="2.91" height="33"/><rect class="cls-4" x="61.56" y="73.5" width="2.91" height="28.29" transform="translate(126.04 175.29) rotate(180)"/><rect class="cls-4" x="83.41" y="73.5" width="2.91" height="28.29" transform="translate(169.74 175.29) rotate(180)"/><rect class="cls-4" x="76.13" y="68.79" width="2.91" height="33"/><line class="cls-5" x1="50.93" y1="101.79" x2="64.28" y2="86.03"/><line class="cls-5" x1="64.28" y1="86.03" x2="71.44" y2="76.75"/><line class="cls-5" x1="71.44" y1="76.75" x2="77.58" y2="79.84"/><line class="cls-5" x1="78.6" y1="79.84" x2="92.92" y2="67.47"/><line class="cls-5" x1="92.92" y1="68.5" x2="98.04" y2="73.66"/><ellipse class="cls-1" cx="50.47" cy="102.01" rx="1.02" ry="1.03"/><path class="cls-2" d="M50.47,101a1,1,0,1,0,1,1,1,1,0,0,0-1-1Z"/><ellipse class="cls-1" cx="98.55" cy="74.17" rx="1.02" ry="1.03"/><path class="cls-2" d="M98.55,73.14a1,1,0,1,0,1,1,1,1,0,0,0-1-1Z"/><ellipse class="cls-1" cx="92.41" cy="67.99" rx="1.02" ry="1.03"/><path class="cls-2" d="M92.41,67a1,1,0,1,0,1,1,1,1,0,0,0-1-1Z"/><ellipse class="cls-1" cx="78.09" cy="79.33" rx="1.02" ry="1.03"/><path class="cls-2" d="M78.09,78.3a1,1,0,1,0,1,1,1,1,0,0,0-1-1Z"/><ellipse class="cls-1" cx="71.44" cy="76.75" rx="0.51" ry="0.52"/><path class="cls-2" d="M71.44,76.23a.52.52,0,1,0,.51.52.52.52,0,0,0-.51-.52Z"/><ellipse class="cls-1" cx="78.6" cy="80.87" rx="0.51" ry="0.52"/><path class="cls-2" d="M78.6,80.36a.52.52,0,1,0,.51.51.51.51,0,0,0-.51-.51Z"/><ellipse class="cls-1" cx="84.74" cy="75.72" rx="0.51" ry="0.52"/><path class="cls-2" d="M84.74,75.2a.52.52,0,1,0,.51.52.51.51,0,0,0-.51-.52Z"/></g><g id="円グラフ"><rect class="cls-6" x="95.07" y="82.93" width="46.62" height="34.57"/><ellipse class="cls-7" cx="111.82" cy="101" rx="10.93" ry="11.79"/><ellipse class="cls-8" cx="127.85" cy="101" rx="10.93" ry="11.79"/></g><g id="ノート"><g id="ノート-2" data-name="ノート"><g id="ノート枠"><path class="cls-2" d="M162.08,178a1.76,1.76,0,0,1-1.56-1l-30.89-66.66a1.88,1.88,0,0,1,.79-2.48L178.4,84a1.53,1.53,0,0,1,.69-.17,1.75,1.75,0,0,1,1.56,1l30.89,66.66a1.89,1.89,0,0,1-.78,2.48l-48,23.82A1.71,1.71,0,0,1,162.08,178Z"/><path class="cls-2" d="M179.09,85.37s.13,0,.2.18l30.89,66.66a.42.42,0,0,1-.09.51l-48,23.82s-.13,0-.2-.18L131,109.7a.42.42,0,0,1,.08-.51l48-23.81h0m0-3a3.15,3.15,0,0,0-1.36.32l-48,23.82a3.39,3.39,0,0,0-1.48,4.46l30.89,66.65a3.24,3.24,0,0,0,2.92,1.92,3,3,0,0,0,1.36-.32l48-23.82A3.37,3.37,0,0,0,212.9,151L182,84.29a3.24,3.24,0,0,0-2.92-1.92Z"/><path class="cls-1" d="M155.06,180.28a1.15,1.15,0,0,1-1-.7l-32.4-69.91a1.27,1.27,0,0,1,.51-1.66l51.54-25.58a1,1,0,0,1,.45-.11,1.15,1.15,0,0,1,1,.7l32.39,69.91a1.26,1.26,0,0,1-.51,1.66L155.5,180.17A1,1,0,0,1,155.06,180.28Z"/><path class="cls-2" d="M174,84l32.16,69.41-50.86,25.24-32.16-69.4L174,84m.19-3.15a2.41,2.41,0,0,0-1.11.26l-51.55,25.58a2.78,2.78,0,0,0-1.2,3.64l32.39,69.91a2.66,2.66,0,0,0,2.39,1.57,2.49,2.49,0,0,0,1.11-.27l51.54-25.58a2.74,2.74,0,0,0,1.2-3.63L176.52,82.39a2.64,2.64,0,0,0-2.38-1.57Z"/><g id="右上斜め線"><line class="cls-9" x1="174.24" y1="82.45" x2="180.85" y2="85.09"/></g><g id="左下斜め線"><line class="cls-5" x1="163.44" y1="178.56" x2="156.7" y2="180.59"/></g></g><g id="ノートの線上"><g id="ノートの線"><line class="cls-5" x1="137.22" y1="108.72" x2="168.47" y2="93.21"/></g><line id="ノートの線-2" data-name="ノートの線" class="cls-5" x1="140.69" y1="116.2" x2="171.94" y2="100.69"/><line id="ノートの線-3" data-name="ノートの線" class="cls-5" x1="143.54" y1="124" x2="174.78" y2="108.49"/></g><g id="ノートの線中"><g id="ノートの線-4" data-name="ノートの線"><line class="cls-5" x1="147.75" y1="130.68" x2="179" y2="115.17"/></g><line id="ノートの線-5" data-name="ノートの線" class="cls-5" x1="151.22" y1="138.16" x2="182.46" y2="122.65"/><line id="ノートの線-6" data-name="ノートの線" class="cls-5" x1="154.06" y1="145.96" x2="185.31" y2="130.45"/></g><g id="ノートの線下"><g id="ノートの線-7" data-name="ノートの線"><line class="cls-5" x1="158.16" y1="153.13" x2="189.4" y2="137.62"/></g><line id="ノートの線-8" data-name="ノートの線" class="cls-5" x1="161.62" y1="160.62" x2="192.87" y2="145.11"/><line id="ノートの線-9" data-name="ノートの線" class="cls-5" x1="164.47" y1="168.41" x2="195.71" y2="152.9"/></g></g><g id="ノートの穴"><ellipse class="cls-5" cx="124.66" cy="118.31" rx="4.26" ry="2.95" transform="translate(-40.8 71.84) rotate(-27.82)"/><ellipse class="cls-5" cx="128.64" cy="126.9" rx="4.26" ry="2.95" transform="translate(-44.35 74.69) rotate(-27.82)"/><ellipse class="cls-5" cx="148.53" cy="169.81" rx="4.26" ry="2.95" transform="translate(-62.08 88.93) rotate(-27.82)"/><ellipse class="cls-5" cx="133.12" cy="136.55" rx="4.26" ry="2.95" transform="translate(-48.34 77.9) rotate(-27.82)"/><ellipse class="cls-5" cx="145.05" cy="162.3" rx="4.26" ry="2.95" transform="translate(-58.98 86.44) rotate(-27.82)"/><ellipse class="cls-5" cx="141.07" cy="153.72" rx="4.26" ry="2.95" transform="translate(-55.43 83.59) rotate(-27.82)"/><ellipse class="cls-5" cx="137.09" cy="145.14" rx="4.26" ry="2.95" transform="translate(-51.88 80.74) rotate(-27.82)"/></g><g id="ノートのページ"><line class="cls-10" x1="177.52" y1="86.17" x2="209.42" y2="153.58"/><line class="cls-10" x1="179.15" y1="85.36" x2="210.51" y2="153.03"/><line class="cls-10" x1="180.78" y1="85.96" x2="210.81" y2="150.77"/></g></g><g id="鉛筆"><polygon class="cls-1" points="166.8 104.38 180.91 114.31 165.54 120.92 166.8 104.38"/><path class="cls-2" d="M167.67,106.21l11.2,7.88-12.2,5.26,1-13.14m-1.73-3.66-1.52,19.94,18.53-8-17-12Z"/><polygon class="cls-2" points="167.05 113.68 171.9 116.74 166.92 119.16 167.05 113.68"/><path class="cls-2" d="M168,115.47l1.83,1.16-1.88.91,0-2.07m-1.91-3.58-.22,8.88,8.07-3.92-7.85-5Z"/><path class="cls-1" d="M181.15,114a1.82,1.82,0,0,1-1.06-.33l-12.37-8.7a1.79,1.79,0,0,1-.74-1.17,1.83,1.83,0,0,1,.33-1.39l33.95-47.3a1.92,1.92,0,0,1,1.55-.8,1.86,1.86,0,0,1,1.06.34l12.37,8.7a1.79,1.79,0,0,1,.73,1.17,1.82,1.82,0,0,1-.32,1.39l-34,47.3A1.88,1.88,0,0,1,181.15,114Z"/><path class="cls-2" d="M202.81,55.26a.82.82,0,0,1,.48.16l12.37,8.7a.77.77,0,0,1,.33.52.85.85,0,0,1-.15.63l-34,47.31a.91.91,0,0,1-.73.37.78.78,0,0,1-.48-.15l-12.38-8.7a.77.77,0,0,1-.32-.52.87.87,0,0,1,.15-.64l34-47.3a.88.88,0,0,1,.73-.38m0-2a2.93,2.93,0,0,0-2.36,1.21l-34,47.31a2.81,2.81,0,0,0,.65,4l12.37,8.71a2.91,2.91,0,0,0,1.64.51,2.87,2.87,0,0,0,2.35-1.21l34-47.3a2.82,2.82,0,0,0-.65-4l-12.37-8.7a2.79,2.79,0,0,0-1.63-.52Z"/><path class="cls-2" d="M207.68,58.4h0a2.28,2.28,0,0,1,1.31.41l1.55,1.09a2.22,2.22,0,0,1,.91,1.45,2.32,2.32,0,0,1-.4,1.73L178.2,108.83a2.36,2.36,0,0,1-1.92,1,2.25,2.25,0,0,1-1.31-.42l-1.55-1.09a2.21,2.21,0,0,1-.92-1.45,2.31,2.31,0,0,1,.41-1.72l32.84-45.75a2.39,2.39,0,0,1,1.93-1m0-1.5a3.89,3.89,0,0,0-3.15,1.61l-32.84,45.75a3.76,3.76,0,0,0,.87,5.28l1.54,1.09a3.81,3.81,0,0,0,2.18.69,3.86,3.86,0,0,0,3.14-1.62L212.27,64a3.76,3.76,0,0,0-.87-5.28l-1.55-1.08a3.73,3.73,0,0,0-2.17-.69Z"/></g><ellipse id="中黒" class="cls-11" cx="96.78" cy="193.96" rx="1.02" ry="1.03"/><path class="cls-2" d="M43.7,185.49a31.76,31.76,0,0,1-1.2,5.56c0,.15,0,.23.15.23H46.4a1.33,1.33,0,0,1,1,.42,1.37,1.37,0,0,1,.4,1v8.11a1.37,1.37,0,0,1-.4,1,1.33,1.33,0,0,1-1,.42H42.77c-.15,0-.22.07-.22.2v1a.89.89,0,0,1-.26.63A.88.88,0,0,1,41,204a.89.89,0,0,1-.26-.63V195s0-.05,0-.05,0,0-.07.05a16.31,16.31,0,0,1-1.08,1.78.5.5,0,0,1-.52.23.5.5,0,0,1-.43-.37,2.32,2.32,0,0,1,.32-2,22,22,0,0,0,3-9.11.17.17,0,0,0,0-.15.2.2,0,0,0-.16-.07H40a.79.79,0,0,1-.59-.25.78.78,0,0,1-.24-.57.81.81,0,0,1,.24-.57.82.82,0,0,1,.59-.24H47a.79.79,0,0,1,.81.81.8.8,0,0,1-.23.58.78.78,0,0,1-.58.24H44A.25.25,0,0,0,43.7,185.49Zm-1.15,7.64v7.25a.19.19,0,0,0,.22.22h3.12c.13,0,.2-.07.2-.22v-7.25a.18.18,0,0,0-.2-.2H42.77C42.62,192.93,42.55,193,42.55,193.13Zm18.34-1.19a.82.82,0,0,1,.57.25.81.81,0,0,1,.24.57.84.84,0,0,1-.81.82H59.05a.19.19,0,0,0-.22.22v9.77a.94.94,0,1,1-1.87,0V193.8a.19.19,0,0,0-.22-.22H53.25c-.14,0-.22.06-.22.2a28.5,28.5,0,0,1-.93,6.3,11.26,11.26,0,0,1-2,3.89.76.76,0,0,1-.64.32.85.85,0,0,1-.66-.3.93.93,0,0,1-.29-.7,1.22,1.22,0,0,1,.27-.76,9.55,9.55,0,0,0,1.62-3.29,26.63,26.63,0,0,0,.78-5.46c0-.14-.06-.2-.19-.2H49.3a.86.86,0,0,1-.81-.82.86.86,0,0,1,.81-.82h1.77a.19.19,0,0,0,.22-.22c0-1.51.05-2.78.05-3.78v-2.43c0-.15-.07-.22-.2-.22H49.6A.78.78,0,0,1,49,185a.75.75,0,0,1-.25-.57.78.78,0,0,1,.25-.57.81.81,0,0,1,.59-.24h11a.8.8,0,0,1,.56.23.79.79,0,0,1,.25.58.84.84,0,0,1-.81.82h-1.6a.19.19,0,0,0-.22.22v6.21a.19.19,0,0,0,.22.22ZM57,191.72v-6.21a.19.19,0,0,0-.22-.22H53.4a.19.19,0,0,0-.22.22v2.43c0,1.75,0,3,0,3.76,0,.16.07.24.2.24h3.41A.19.19,0,0,0,57,191.72Z"/><path class="cls-2" d="M70.17,183.58a.94.94,0,0,1,.37-.57.88.88,0,0,1,.64-.17.71.71,0,0,1,.55.32.87.87,0,0,1,.16.64,35.35,35.35,0,0,1-1.47,5.7.93.93,0,0,0-.08.39V204a.89.89,0,0,1-.25.64.91.91,0,0,1-1.54-.64V193.48s0,0,0,0l-.06,0c-.5,1-.79,1.6-.86,1.71a.49.49,0,0,1-.5.24.52.52,0,0,1-.45-.34,2,2,0,0,1,.14-1.9A31,31,0,0,0,70.17,183.58Zm3.73,18.13a.79.79,0,0,1-.61.25.85.85,0,0,1-.63-.25.89.89,0,0,1-.25-.64V187.54a.87.87,0,0,1,.88-.89.8.8,0,0,1,.61.26.85.85,0,0,1,.25.63v13.53A.89.89,0,0,1,73.9,201.71Zm14.44-17.43a.79.79,0,0,1,.79.79.78.78,0,0,1-.24.58.73.73,0,0,1-.55.23h-1a.29.29,0,0,0-.29.18,11.31,11.31,0,0,1-3.14,3.83c-.12.12-.12.2,0,.25a23.46,23.46,0,0,0,4.51,1.73.82.82,0,0,1,.51.42.9.9,0,0,1,.06.64,1,1,0,0,1-1.13.6,22.39,22.39,0,0,1-5.53-2.33.37.37,0,0,0-.39,0,23.67,23.67,0,0,1-5.82,2.2.87.87,0,0,1-.67-.07,1,1,0,0,1-.46-.5.83.83,0,0,1,0-.62.68.68,0,0,1,.47-.37,22.93,22.93,0,0,0,4.93-1.71q.18-.09,0-.24A13.53,13.53,0,0,1,78,187.22c-.07-.1-.13-.1-.2,0a17.25,17.25,0,0,1-1.64,2.18.75.75,0,0,1-.58.24.72.72,0,0,1-.58-.27.89.89,0,0,1,0-1.29,17.41,17.41,0,0,0,2.92-4.82,1.11,1.11,0,0,1,.47-.57,1,1,0,0,1,.68-.15.64.64,0,0,1,.51.34.7.7,0,0,1,.06.63c0,.06-.05.16-.1.28l-.12.29c-.07.13,0,.2.12.2Zm-.27,14.84a.7.7,0,0,1,.58-.09.67.67,0,0,1,.43.39,1,1,0,0,1-.35,1.23c-3,2-7,3.43-12,4.26a1,1,0,0,1-.67-.14.84.84,0,0,1-.43-.53.73.73,0,0,1,.06-.61.66.66,0,0,1,.5-.33A31.13,31.13,0,0,0,88.07,199.12Zm-11.22-1.93a.85.85,0,0,1-.64-.11,1,1,0,0,1-.42-.53.77.77,0,0,1,.06-.6.73.73,0,0,1,.48-.34,26.45,26.45,0,0,0,7.42-2.7.71.71,0,0,1,.59,0,.62.62,0,0,1,.42.4,1.06,1.06,0,0,1,0,.66.82.82,0,0,1-.42.52A26.21,26.21,0,0,1,76.85,197.19Zm-1.06,3.19a.76.76,0,0,1,.59-.94A27.47,27.47,0,0,0,86,196a.68.68,0,0,1,.59-.09.65.65,0,0,1,.44.38,1,1,0,0,1,0,.69.84.84,0,0,1-.41.53,29.36,29.36,0,0,1-9.83,3.56.76.76,0,0,1-.62-.12A1.2,1.2,0,0,1,75.79,200.38Zm9.38-14.32a.08.08,0,0,0,0-.11.13.13,0,0,0-.12-.07H79.26a.11.11,0,0,0-.11.07.07.07,0,0,0,0,.11A11.89,11.89,0,0,0,82,189c.13.1.25.11.34,0A9.55,9.55,0,0,0,85.17,186.06Z"/><path class="cls-2" d="M106.36,197.88a.75.75,0,0,1-.59-.26.87.87,0,0,1,0-1.2.81.81,0,0,1,.59-.24h9.43c.13,0,.19-.07.19-.2v-1a1,1,0,0,1,.29-.71.94.94,0,0,1,.7-.28H117a.47.47,0,0,0,.32-.1l0,0s0,0,0,0a33.3,33.3,0,0,0,3.21-2.5s0,0,0-.08a.09.09,0,0,0-.08,0h-9.91a.77.77,0,0,1-.58-.24.8.8,0,0,1-.23-.57.85.85,0,0,1,.24-.6.78.78,0,0,1,.57-.24h11.88a.77.77,0,0,1,.56.24.82.82,0,0,1,.25.6,2,2,0,0,1-.59,1.41,28.94,28.94,0,0,1-4.22,3.41.88.88,0,0,1-.42.15c-.15,0-.22.07-.22.2V196c0,.13.07.2.22.2h8.77a.8.8,0,0,1,.58.24.84.84,0,0,1,0,1.2.75.75,0,0,1-.58.26h-8.77c-.15,0-.22.07-.22.2V202c0,1.22-.16,2-.47,2.26a4.41,4.41,0,0,1-2.48.42l-3-.1a1,1,0,0,1-.59-.27,1,1,0,0,1-.27-.6.75.75,0,0,1,.22-.59.7.7,0,0,1,.59-.22c1.31,0,2.27.07,2.88.07a1.92,1.92,0,0,0,1-.15c.1-.1.14-.44.14-1v-3.71c0-.13-.06-.2-.19-.2Zm20.17-6.62a.85.85,0,0,1-.65.26.89.89,0,0,1-.66-.26.86.86,0,0,1-.27-.65v-2.92a.18.18,0,0,0-.2-.2h-16.2a.18.18,0,0,0-.2.2v2.92a.86.86,0,0,1-.27.65.89.89,0,0,1-.66.26.84.84,0,0,1-.65-.26.85.85,0,0,1-.26-.65v-3.34a1.38,1.38,0,0,1,1.37-1.39h2.06a.14.14,0,0,0,.12-.06.14.14,0,0,0,0-.11c-.22-.36-.53-.89-1-1.58a.77.77,0,0,1-.07-.63.72.72,0,0,1,.41-.49,1,1,0,0,1,1.33.4c.44.68.88,1.43,1.33,2.28a.29.29,0,0,0,.31.19h3.29a.13.13,0,0,0,.12-.07c0-.05,0-.09,0-.12-.18-.35-.52-.94-1-1.79a.72.72,0,0,1-.08-.65.76.76,0,0,1,.43-.48.91.91,0,0,1,.74-.05,1,1,0,0,1,.58.47c.51.82,1,1.66,1.43,2.52a.3.3,0,0,0,.29.17h2.7a.36.36,0,0,0,.32-.17c.64-1,1.12-1.81,1.45-2.42a1,1,0,0,1,.55-.49,1.14,1.14,0,0,1,.73,0,.78.78,0,0,1,.47.42.66.66,0,0,1,0,.61c-.41.75-.78,1.37-1.11,1.89a.09.09,0,0,0,0,.12.11.11,0,0,0,.11.07h2.06a1.32,1.32,0,0,1,1,.41,1.34,1.34,0,0,1,.41,1v3.34A.89.89,0,0,1,126.53,191.26Z"/><path class="cls-2" d="M132.78,185a.82.82,0,0,1-.79-.79.72.72,0,0,1,.24-.55.75.75,0,0,1,.55-.22h7.54a1.3,1.3,0,0,1,1,.41,1.33,1.33,0,0,1,.4,1v6.56a1.91,1.91,0,0,1-.29,1.29,1.12,1.12,0,0,1,.95-.3.71.71,0,0,1,.58.4.88.88,0,0,1,.06.71c0,.09-.08.2-.13.34a2.07,2.07,0,0,0-.11.28.16.16,0,0,0,0,.15.11.11,0,0,0,.11.07h7a1.38,1.38,0,0,1,1,.41,1.32,1.32,0,0,1,.41,1v8.16a.94.94,0,0,1-.28.69,1,1,0,0,1-.7.28h0a.9.9,0,0,1-.66-.27.88.88,0,0,1-.27-.67c0-.1,0-.15-.13-.15H136.34c-.08,0-.13.05-.13.15a1,1,0,0,1-.26.67.94.94,0,0,1-.67.27h0a1,1,0,0,1-.7-.28.94.94,0,0,1-.28-.69v-8.16a1.36,1.36,0,0,1,.41-1,1.38,1.38,0,0,1,1-.41h4.72a.3.3,0,0,0,.29-.22c.17-.39.29-.7.37-.91a1.35,1.35,0,0,1,.3-.47,3.94,3.94,0,0,1-1.94.27c-1,0-2,0-2.78-.05a.85.85,0,0,1-.54-.25.84.84,0,0,1-.24-.54.68.68,0,0,1,.19-.55.64.64,0,0,1,.54-.19c1.08,0,1.88.07,2.38.07a2.43,2.43,0,0,0,.78-.07c.07,0,.11-.23.11-.52v-5.67c0-.15-.07-.22-.2-.22h-5.57s-.05,0-.05,0a.14.14,0,0,0,0,.07c1.15.66,2.11,1.23,2.88,1.73a.7.7,0,0,1,.32.48.77.77,0,0,1-.15.58.83.83,0,0,1-.53.31.75.75,0,0,1-.6-.13c-.66-.43-1.4-.89-2.23-1.39a1,1,0,0,1-.51-.7,1,1,0,0,1,.21-.83s0-.07,0-.1a.08.08,0,0,0-.08-.05Zm6.33,3.88a.83.83,0,0,1,0,.62.8.8,0,0,1-.43.42,40.63,40.63,0,0,1-5.55,2,.73.73,0,0,1-.6-.07.74.74,0,0,1-.38-.48.66.66,0,0,1,.06-.58.68.68,0,0,1,.45-.36,37.53,37.53,0,0,0,5.6-1.93.58.58,0,0,1,.53,0A.74.74,0,0,1,139.11,188.85Zm-2.9,7.23V198c0,.15.07.22.2.22h12.77c.13,0,.2-.07.2-.22v-1.95c0-.15-.07-.23-.2-.23H136.41C136.28,195.85,136.21,195.93,136.21,196.08Zm0,3.83V202c0,.15.07.22.2.22h12.77c.13,0,.2-.07.2-.22v-2.08c0-.15-.07-.22-.2-.22H136.41C136.28,199.69,136.21,199.76,136.21,199.91Zm15.15-16.5a1.29,1.29,0,0,1,1,.41,1.34,1.34,0,0,1,.41,1v6.56c0,.73-.13,1.18-.38,1.35a4.24,4.24,0,0,1-1.9.26c-1.05,0-2,0-2.78-.05a.85.85,0,0,1-.54-.25.79.79,0,0,1-.24-.54.65.65,0,0,1,.19-.55.64.64,0,0,1,.54-.19c1.08,0,1.88.07,2.38.07a2.48,2.48,0,0,0,.78-.07c.07,0,.11-.23.11-.52v-5.67c0-.15-.07-.22-.2-.22h-5.42s-.05,0-.05.05,0,.06,0,.07c1,.55,1.89,1.09,2.73,1.63a.67.67,0,0,1,.31.49.73.73,0,0,1-.14.58A.75.75,0,0,1,147,188c-.37-.25-1.16-.72-2.35-1.43a1,1,0,0,1-.25-1.44c.08-.08.06-.12-.07-.12h-.54a.8.8,0,0,1-.79-.79.75.75,0,0,1,.23-.55.78.78,0,0,1,.56-.22Zm-7.21,8.31a.72.72,0,0,1-.61-.06.87.87,0,0,1-.38-.48.74.74,0,0,1,.06-.58.72.72,0,0,1,.46-.36,37.53,37.53,0,0,0,5.6-1.93.56.56,0,0,1,.52,0,.69.69,0,0,1,.36.41.83.83,0,0,1,0,.62.8.8,0,0,1-.43.42A38.78,38.78,0,0,1,144.15,191.72Z"/></svg>