<svg id="レイヤー_1" data-name="レイヤー 1" xmlns="http://www.w3.org/2000/svg" viewBox="0 0 230 230"><defs><style>.cls-1{fill:#003d80;}.cls-2{stroke:#003d80;stroke-miterlimit:10;}</style></defs><rect class="cls-1" x="18.8" y="82.71" width="35.57" height="94.84" rx="9.87"/><rect class="cls-1" x="101.07" y="104.97" width="11.45" height="127.05" transform="translate(-65.29 269.41) rotate(-88.02)"/><path class="cls-1" d="M42.62,172.48l.43-12.39.48,0L171,164.51l-.43,12.4-.47,0ZM44,161.07l-.36,10.5,126,4.36.36-10.5Z"/><path class="cls-1" d="M46.6,105.35l-3-2.61a4,4,0,0,1,.24-6.19l27.55-24a5.49,5.49,0,0,1,7.06-.17l3,2.61a4,4,0,0,1-.24,6.18l-27.54,24A5.51,5.51,0,0,1,46.6,105.35Z"/><path class="cls-1" d="M110.05,74.75l0-3.5a3.15,3.15,0,0,1,2.85-3.36L163,67A3.1,3.1,0,0,1,166,70.25l.05,3.5a3.15,3.15,0,0,1-2.85,3.36L113,78A3.1,3.1,0,0,1,110.05,74.75Z"/><line class="cls-1" x1="77.38" y1="32.23" x2="77.38" y2="81.85"/><path class="cls-1" d="M78.39,81.85h-2A4.81,4.81,0,0,1,71.65,77V37.12a4.81,4.81,0,0,1,4.72-4.89h2a4.8,4.8,0,0,1,4.71,4.89V77A4.81,4.81,0,0,1,78.39,81.85Z"/><path class="cls-1" d="M121.07,76.11l-11.36-1.48c.32-2.44.78-5,1.27-7.73,1.54-8.62,3.28-18.39.46-24.62l10.43-4.73c4.29,9.47,2.21,21.1.38,31.36C121.79,71.5,121.35,73.94,121.07,76.11Z"/><path class="cls-1" d="M111.78,43a73.78,73.78,0,0,0-6.69-11.08c-2.46-3.14-5.13-5.25-7.73-6.11a9.82,9.82,0,0,0-9.08,1.68,14.64,14.64,0,0,0-5.22,10.17l-11.41-1a26.07,26.07,0,0,1,9.64-18.28A21.25,21.25,0,0,1,101,15c4.81,1.59,9.23,4.92,13.15,9.92a83.7,83.7,0,0,1,7.79,12.78Z"/><path class="cls-1" d="M168,99h-.07c-3.25,0-5.7-1.89-5.18-3.93l.87-3.43c.42-1.62,2.57-2.84,5.14-2.87a53.11,53.11,0,0,0,12.49-1.6,16.29,16.29,0,0,0,2.75-.92c1.87-.89,1.8-2.35.93-3.34-1.37-1.57-5-3.1-9.62-4.11a86.81,86.81,0,0,0-12.43-1.58c-2.94-.19-5.1-1.85-4.83-3.72l.5-3.39c.28-1.87,2.89-3.27,5.84-3.1a126.13,126.13,0,0,1,19.08,2.41c9.56,2.07,16.75,5.4,20.26,9.4,4.5,5.14,2.27,11.1-5.57,14.83a41.81,41.81,0,0,1-7.29,2.55A90.87,90.87,0,0,1,168,99Z"/><path class="cls-1" d="M173.11,128.92h-1.6c-2.49,0-4.42-1.66-4.22-3.52l.53-4.86c.19-1.71,2.11-3,4.4-3a75.1,75.1,0,0,0,18.93-2.12,26.54,26.54,0,0,0,4.18-1.39c1.16-.54,1.66-1.06,1.74-1.35s-.18-.57-.34-.74c-1.34-1.5-5.39-3.66-12.73-5.21a118.07,118.07,0,0,0-18-2.11c-2.35-.12-4.15-1.62-4-3.39l.31-4.86c.12-1.81,2.2-3.21,4.61-3.08a136.91,136.91,0,0,1,21.23,2.51c7,1.47,16.32,4.37,21.18,9.8,2.58,2.88,3.5,6.24,2.58,9.47-1,3.44-4,6.5-8.56,8.61a42,42,0,0,1-7.21,2.47A93.23,93.23,0,0,1,173.11,128.92Z"/><path class="cls-1" d="M171.7,152.18c-.64,0-1.27,0-1.91,0a3.16,3.16,0,0,1-3.07-3.48l.45-4.37a3.15,3.15,0,0,1,3.19-2.81,56.3,56.3,0,0,0,16.72-2.07,20.25,20.25,0,0,0,3.56-1.35c2.28-1.22,1.57-2.12,1.24-2.55-1.17-1.49-4.65-3.62-10.92-5.14a89.37,89.37,0,0,0-15.86-2.1,3.15,3.15,0,0,1-3-3.32l.26-4.38a3.16,3.16,0,0,1,3.33-3,104.59,104.59,0,0,1,18.9,2.51c8.46,2,14.91,5.46,18.15,9.61,4.65,5.95,2.51,13.21-5.09,17.27a33.5,33.5,0,0,1-6.21,2.44A70.75,70.75,0,0,1,171.7,152.18Z"/><path class="cls-1" d="M166.85,177c-.66,0,.64-1.16,0-1.31-1.6-.36-2.21-.81-5.21-2.85l.46-6.31c3.27-1.71,5.15-3.13,7.13-2.76a29.5,29.5,0,0,0,14.06-1.09,17.55,17.55,0,0,0,3.25-1.31,4.23,4.23,0,0,0,.8-.56c-1.1-1.29-4.19-3.18-9.59-4.57a77.1,77.1,0,0,0-14-2,3.43,3.43,0,0,1-3.16-3.6l.22-5.37a3.41,3.41,0,0,1,3.56-3.31,87.7,87.7,0,0,1,16.3,2.35c5.39,1.38,12.62,4.11,16.44,9.28a11.92,11.92,0,0,1,2.23,9.62,13.55,13.55,0,0,1-7,8.89,29.23,29.23,0,0,1-5.55,2.3C181.5,176.1,173,177,166.85,177Z"/><path class="cls-2" d="M78.32,102.61a.14.14,0,0,1-.17-.06s0-.09.08-.11a10.2,10.2,0,0,0,3.63-1.67,3.91,3.91,0,0,0,1.62-2.37c0-.05,0-.08-.09-.08H78.92c-.08,0-.13,0-.13-.09s0-.09.13-.09h4.5c.08,0,.11,0,.11-.08V95.75s0-.08-.11-.08h-5c-.08,0-.13,0-.13-.09s0-.09.13-.09h10.5c.09,0,.13,0,.13.09s0,.09-.13.09h-5c-.08,0-.12,0-.12.08v2.31c0,.06,0,.08.12.08H88.4c.09,0,.13,0,.13.09s0,.09-.13.09H83.93c-.08,0-.11,0-.09.08a4,4,0,0,0,1.62,2.37,10.37,10.37,0,0,0,3.63,1.67c.09,0,.11.06.08.11a.13.13,0,0,1-.17.06,10.85,10.85,0,0,1-3.51-1.56,4.6,4.6,0,0,1-1.8-2.21s0,0,0,0,0,0,0,0a4.71,4.71,0,0,1-1.8,2.21A10.91,10.91,0,0,1,78.32,102.61Z"/><path class="cls-2" d="M90.86,99.21c-.09,0-.14,0-.14-.08s0-.1.12-.1h.48a.2.2,0,0,0,.14-.06l.79-.74a.11.11,0,0,0,0-.14c-.47-.65-.92-1.25-1.33-1.79-.05-.05,0-.1,0-.13a.15.15,0,0,1,.18,0c.15.2.27.36.35.48a.08.08,0,0,0,.11,0c.42-.49.85-1,1.3-1.65,0,0,.08-.06.17,0s.1.07.06.12c-.48.67-.94,1.25-1.38,1.75a.1.1,0,0,0,0,.13l.22.3.25.35.21.28a.06.06,0,0,0,.1,0,25.76,25.76,0,0,0,1.79-2.08.16.16,0,0,1,.17,0c.08,0,.09.07,0,.12a24.2,24.2,0,0,1-2.74,3s0,.06,0,.06l2.75-.13c.07,0,.1,0,.08-.08a12.68,12.68,0,0,0-.51-1.21s0-.09.07-.11a.13.13,0,0,1,.17.06,12.28,12.28,0,0,1,.77,2s0,.09-.1.1-.14,0-.16-.08-.1-.35-.13-.43a.12.12,0,0,0-.12-.07l-1.48.07c-.07,0-.1,0-.1.08v3.62c0,.06,0,.09-.13.09s-.13,0-.13-.09V99.21s0-.08-.1-.08Zm.68.64c0-.06,0-.09.14-.09s.12,0,.12.11a8.45,8.45,0,0,1-.67,2.4.12.12,0,0,1-.15.06c-.1,0-.13-.06-.09-.12A7.87,7.87,0,0,0,91.54,99.85Zm2.64-.13c.08,0,.14,0,.15.06a14.35,14.35,0,0,1,.41,2.19c0,.06,0,.09-.11.09s-.14,0-.14-.09a17,17,0,0,0-.41-2.15C94.06,99.76,94.09,99.73,94.18,99.72Zm1.09-3.51c-.09,0-.13,0-.13-.09s0-.09.13-.09h3.15c.08,0,.11,0,.11-.08V95c0-.06,0-.09.13-.09s.13,0,.13.09v1s0,.08.12.08h3.15c.08,0,.13,0,.13.09s0,.09-.13.09H98.91c-.08,0-.12,0-.12.08V98s0,.07.12.07h2.89c.09,0,.13,0,.13.09s0,.09-.13.09H95.52q-.12,0-.12-.09t.12-.09h2.9c.08,0,.11,0,.11-.07V96.29c0-.05,0-.08-.11-.08Zm6.27,6.61q-.12,0-.12-.09v-.37s0-.08-.11-.08H96c-.07,0-.1,0-.1.08v.37c0,.06,0,.09-.13.09s-.13,0-.13-.09v-2.9a.42.42,0,0,1,.22-.36.84.84,0,0,1,.51-.16h4.56a.85.85,0,0,1,.52.16.44.44,0,0,1,.21.36v2.9C101.67,102.79,101.63,102.82,101.54,102.82Zm-.24-.72c.08,0,.12,0,.12-.08V99.57s0-.08-.12-.08H96c-.07,0-.1,0-.1.08V102c0,.06,0,.08.1.08Z"/><path class="cls-2" d="M104,102.69c-.08,0-.13,0-.13-.09v-1.89c0-.06,0-.09.13-.09s.13,0,.13.09v1.18s0,.08.1.08h3.12c.07,0,.11,0,.11-.08v-1.55s0-.08-.11-.08h-1.72a.85.85,0,0,1-.51-.15.45.45,0,0,1-.22-.36V96.18a.42.42,0,0,1,.22-.36.85.85,0,0,1,.51-.15H108a.16.16,0,0,0,.15-.07,7.34,7.34,0,0,0,.4-.81c0-.06.07-.08.15-.07s.13,0,.09.11a4.84,4.84,0,0,1-.37.78s0,.06.07.06h3.9a.91.91,0,0,1,.52.15.44.44,0,0,1,.21.36v1.54a.44.44,0,0,1-.21.36.91.91,0,0,1-.52.15h-7c-.08,0-.11,0-.11.08v.61s0,.08.11.08h9.24q.12,0,.12.09t-.12.09h-9.24c-.08,0-.11,0-.11.07V100s0,.08.11.08h8.25a.85.85,0,0,1,.51.15.39.39,0,0,1,.21.36,3.43,3.43,0,0,1-.39,1.69,1.2,1.2,0,0,1-1.07.5c-.43,0-1,0-1.62-.08-.09,0-.13,0-.11-.1s.06-.09.14-.08c.64,0,1.17.08,1.59.08a1.13,1.13,0,0,0,.64-.17,1.3,1.3,0,0,0,.4-.68,4.77,4.77,0,0,0,.17-1.42s0-.07-.11-.07h-6c-.07,0-.11,0-.11.08v1.55s0,.08.11.08H111c.08,0,.12,0,.12-.08v-1.18c0-.06,0-.09.13-.09s.12,0,.12.09v.93a.46.46,0,0,1-.21.36.91.91,0,0,1-.52.15h-6.34c-.07,0-.1,0-.1.07v.38C104.17,102.66,104.13,102.69,104,102.69Zm1.16-6.76v.83s0,.08.11.08h7.4c.07,0,.11,0,.11-.08v-.83c0-.05,0-.08-.11-.08h-7.4C105.23,95.85,105.2,95.88,105.2,95.93Zm0,1.17V98s0,.07.11.07h7.4c.07,0,.11,0,.11-.07V97.1s0-.08-.11-.08h-7.4C105.23,97,105.2,97.05,105.2,97.1Z"/><path class="cls-2" d="M79.59,117.51c.07,0,.1-.05.1-.11V113s0-.08-.11-.08H78.15q-.12,0-.12-.09t.12-.09h1.43c.07,0,.11,0,.11-.08V111c0-.06,0-.09.13-.09s.13,0,.13.09v1.68s0,.08.11.08h1.68c.09,0,.13,0,.13.09s0,.09-.13.09H80.06c-.07,0-.11,0-.11.08v4.29c0,.06,0,.07.1.05q.67-.23,1.77-.63a.15.15,0,0,1,.18,0c0,.06,0,.1,0,.13a32.62,32.62,0,0,1-3.76,1.19A.13.13,0,0,1,78,118s0-.09.09-.11C78.53,117.81,79,117.68,79.59,117.51Zm1.7-4s0-.08.09-.11l1.41-.28c.07,0,.1,0,.1-.1v-1.8c0-.06,0-.09.13-.09s.13,0,.13.09V113s0,.07.1.06l2.3-.47a.11.11,0,0,0,.1-.1v-1.73c0-.06,0-.09.13-.09s.12,0,.12.09v1.68s0,.07.11.06l2.21-.45a.66.66,0,0,1,.48.06.33.33,0,0,1,.21.3,22.3,22.3,0,0,1-.09,2.36,2.33,2.33,0,0,1-.23,1,.5.5,0,0,1-.44.2c-.37,0-.76,0-1.16,0-.08,0-.12,0-.12-.1s0-.08.14-.08c.38,0,.76,0,1.14,0,.12,0,.21-.08.28-.25a4,4,0,0,0,.16-1c0-.53.07-1.28.07-2.27,0,0,0-.06-.1,0l-2.55.51c-.07,0-.11,0-.11.1v3.83q0,.09-.12.09c-.09,0-.13,0-.13-.09v-3.78s0-.06-.1,0l-2.3.47c-.07,0-.1,0-.1.1v4.3a.49.49,0,0,0,.39.54,18.92,18.92,0,0,0,2.56.09h.77l.59,0,.49,0a1.25,1.25,0,0,0,.36-.08,1.11,1.11,0,0,0,.29-.12,1.26,1.26,0,0,0,.19-.2.65.65,0,0,0,.14-.25c0-.07,0-.19.09-.36a3.22,3.22,0,0,0,.08-.44q0-.19.06-.57c0-.06,0-.08.14-.08s.11,0,.11.1c0,.31-.06.56-.08.73a2.34,2.34,0,0,1-.13.54,4,4,0,0,1-.15.41.79.79,0,0,1-.28.26,1.17,1.17,0,0,1-.37.17l-.57.08a7.06,7.06,0,0,1-.74,0h-1a16.9,16.9,0,0,1-2.71-.12.63.63,0,0,1-.5-.69v-4.25s0-.08-.1-.06l-1.34.28A.15.15,0,0,1,81.29,113.53Z"/><path class="cls-2" d="M92.14,117.13c.07,0,.11,0,.11-.11V113.3c0-.06,0-.08-.12-.08H90.71c-.09,0-.13,0-.13-.09s0-.09.13-.09h1.42c.08,0,.12,0,.12-.07v-2q0-.09.12-.09c.09,0,.13,0,.13.09v2s0,.07.12.07H94c.08,0,.13,0,.13.09s0,.09-.13.09H92.62c-.08,0-.12,0-.12.08v3.64c0,.06,0,.07.1,0,.41-.13,1-.34,1.66-.61a.12.12,0,0,1,.16,0c0,.06,0,.1,0,.13a30.59,30.59,0,0,1-3.62,1.19.13.13,0,0,1-.17-.06s0-.09.09-.11C91.06,117.46,91.55,117.32,92.14,117.13Zm2-5.17c-.09,0-.13,0-.13-.09s0-.09.13-.09H99c.07,0,.1,0,.1-.08,0-.44,0-.76,0-1,0-.07,0-.1.13-.1s.13,0,.13.09c0,.24,0,.57,0,1,0,0,0,.07.11.07h2.68c.08,0,.13,0,.13.09s0,.09-.13.09H99.44c-.06,0-.1,0-.1.07a15.19,15.19,0,0,0,.72,3.82s0,0,0,0a0,0,0,0,0,0,0,8.48,8.48,0,0,0,1.43-2.8c0-.06.07-.08.15-.07s.12.05.11.11a8.29,8.29,0,0,1-1.6,3s0,.06,0,.12a8.81,8.81,0,0,0,.66,1.34,2.55,2.55,0,0,0,.57.68.17.17,0,0,0,.18,0c.23-.17.41-.79.54-1.87,0-.05,0-.08.14-.08s.12,0,.12.1a7.59,7.59,0,0,1-.26,1.33,1.62,1.62,0,0,1-.29.61.52.52,0,0,1-.34.12c-.17,0-.4-.18-.68-.54a6.13,6.13,0,0,1-.82-1.49s0-.06-.09,0a9.44,9.44,0,0,1-3,2,.14.14,0,0,1-.18,0s0-.09,0-.12a8.93,8.93,0,0,0,3.08-2.07.12.12,0,0,0,0-.14,14.41,14.41,0,0,1-.79-4c0-.06,0-.08-.12-.08Zm-.07,5.31c0-.06,0-.1.09-.11A24.62,24.62,0,0,0,98.55,116a.11.11,0,0,1,.16,0c.05,0,0,.09,0,.12a25.85,25.85,0,0,1-4.39,1.2.16.16,0,0,1-.1,0A.1.1,0,0,1,94.1,117.27Zm3.37-1.8H95.34a.84.84,0,0,1-.51-.16.45.45,0,0,1-.22-.35v-1.5a.45.45,0,0,1,.22-.36.9.9,0,0,1,.51-.15h2.13a.85.85,0,0,1,.51.15.42.42,0,0,1,.22.36V115a.42.42,0,0,1-.22.35A.8.8,0,0,1,97.47,115.47Zm-2.6-.26c0,.05,0,.08.12.08h2.84c.08,0,.12,0,.12-.08v-2c0-.06,0-.08-.12-.08H95c-.08,0-.12,0-.12.08Zm5.1-4.48c-.07,0-.08-.07,0-.12a.14.14,0,0,1,.18,0,17,17,0,0,1,1.54.8c.07,0,.08.08,0,.13a.15.15,0,0,1-.18,0A16.51,16.51,0,0,0,100,110.73Z"/><path class="cls-2" d="M105.13,115.37c.07,0,.1-.06.1-.11v-2.55s0-.08-.11-.08h-1.55c-.09,0-.13,0-.13-.09s0-.09.13-.09h1.55c.08,0,.11,0,.11-.08v-1.54c0-.06,0-.09.13-.09s.13,0,.13.09v1.54c0,.06,0,.08.12.08h1.16c.09,0,.13,0,.13.09s0,.09-.13.09h-1.16c-.08,0-.12,0-.12.08v2.48s0,.07.1,0c.39-.11.77-.24,1.14-.38a.16.16,0,0,1,.17,0c0,.06,0,.1-.05.13q-.67.24-1.26.42c-.07,0-.1.06-.1.11v2.13a1.2,1.2,0,0,1-.12.68c-.08.09-.3.13-.65.13l-1,0a.1.1,0,0,1-.11-.1c0-.06,0-.08.13-.08l1,0c.26,0,.41,0,.45-.08a1.34,1.34,0,0,0,.06-.55v-2.06s0-.07-.1,0c-.55.15-1.06.28-1.54.37-.08,0-.13,0-.15-.07s0-.09.1-.11C104.06,115.65,104.58,115.52,105.13,115.37Zm1.19,3c-.07,0-.1-.06-.06-.12a8.66,8.66,0,0,0,1.09-4.47v-2.27a.42.42,0,0,1,.22-.36.8.8,0,0,1,.51-.16h6.57c.08,0,.13,0,.13.09s0,.09-.13.09h-6.93c-.08,0-.12,0-.12.08V114s0,.08.11.08h7.13c.09,0,.13,0,.13.09s0,.09-.13.09h-3.25q-.12,0-.09.06a7.31,7.31,0,0,0,1,1.89.1.1,0,0,0,.14,0,12.07,12.07,0,0,0,2.13-1.51.14.14,0,0,1,.18,0c.06,0,.07.08,0,.12a11,11,0,0,1-2.23,1.58s0,.06,0,.11A6.62,6.62,0,0,0,115,118.4c.06,0,.08.07,0,.13a.14.14,0,0,1-.18,0,6.71,6.71,0,0,1-2.23-1.72,7,7,0,0,1-1.38-2.47s0-.06-.13-.06H109.7c-.07,0-.11,0-.11.08V118s0,.07.1,0c.8-.16,1.63-.35,2.5-.58a.12.12,0,0,1,.15,0c0,.06,0,.1-.07.12a37.53,37.53,0,0,1-4.65.94c-.08,0-.13,0-.14-.07s0-.09.09-.11c.7-.1,1.25-.18,1.65-.26.07,0,.11,0,.11-.1v-3.63c0-.06,0-.08-.11-.08h-1.51c-.08,0-.12,0-.12.07a8.24,8.24,0,0,1-1.1,4A.13.13,0,0,1,106.32,118.39Zm2.18-5.85h5.76c.09,0,.13,0,.13.09s0,.09-.13.09H108.5c-.08,0-.13,0-.13-.09S108.42,112.54,108.5,112.54Z"/><path class="cls-2" d="M116.34,116.68c-.09,0-.13,0-.13-.09s0-.09.13-.09h.59c.08,0,.11,0,.11-.07l-.18-4.45a.53.53,0,0,1,.18-.4.93.93,0,0,1,.5-.23c.58-.11,1.12-.23,1.64-.38a.13.13,0,0,1,.17,0q0,.09-.06.12a18.44,18.44,0,0,1-2.07.46c-.06,0-.1,0-.1.1l0,1.1s0,.07.11.07h1.63c.09,0,.13,0,.13.09s0,.09-.13.09h-1.63c-.06,0-.1,0-.1.08l0,1.47s0,.07.12.07h1.56c.09,0,.13,0,.13.09s0,.09-.13.09h-1.56c-.07,0-.1,0-.1.08l.06,1.51s0,.07.1.07h2.1c.07,0,.11,0,.11-.07v-4.9a.44.44,0,0,1,.21-.36.85.85,0,0,1,.52-.16h3.4a.85.85,0,0,1,.52.16.44.44,0,0,1,.21.36v4.9s0,.07.12.07h2.09c.07,0,.1,0,.1-.07l.06-1.51c0-.06,0-.08-.11-.08h-1.55c-.09,0-.13,0-.13-.09s0-.09.13-.09h1.56c.08,0,.12,0,.12-.07l0-1.47c0-.06,0-.08-.12-.08h-1.61c-.09,0-.13,0-.13-.09s0-.09.13-.09h1.62c.08,0,.12,0,.12-.07l0-1.43s0-.08-.11-.08h-1.81c-.09,0-.13,0-.13-.09s0-.09.13-.09h1.46a.8.8,0,0,1,.51.16.39.39,0,0,1,.19.36l-.17,4.81s0,.07.11.07h.59c.09,0,.13,0,.13.09s0,.09-.13.09Zm4.11.43a.15.15,0,0,1,.18,0,.09.09,0,0,1,0,.07.06.06,0,0,1,0,.06,15.82,15.82,0,0,1-3.8,1.28.12.12,0,0,1-.15-.06s0-.08.08-.11A14.64,14.64,0,0,0,120.45,117.11Zm-.59-5.84v5.16s0,.07.12.07h4.14c.06,0,.1,0,.1-.07v-5.16s0-.08-.1-.08H120C119.9,111.19,119.86,111.22,119.86,111.27Zm.58,1c-.09,0-.13,0-.13-.09s0-.09.13-.09h3.2c.09,0,.13,0,.13.09s0,.09-.13.09Zm2.21.9a.91.91,0,0,1,.52.15.44.44,0,0,1,.21.36v1.4a.44.44,0,0,1-.21.36.85.85,0,0,1-.52.16h-1.23a.84.84,0,0,1-.51-.16.44.44,0,0,1-.21-.36v-1.4a.44.44,0,0,1,.21-.36.9.9,0,0,1,.51-.15Zm.48,2.17v-1.91c0-.06,0-.08-.12-.08h-1.94c-.08,0-.12,0-.12.08v1.91s0,.08.12.08H123C123.09,115.47,123.13,115.44,123.13,115.39Zm.49,1.73a26.92,26.92,0,0,1,3.77,1.34c.07,0,.08.06,0,.11a.14.14,0,0,1-.18,0,29.06,29.06,0,0,0-3.71-1.31c-.09,0-.11-.06-.08-.11A.13.13,0,0,1,123.62,117.12Z"/><path class="cls-2" d="M78.74,127.75q-.12,0-.12-.09t.12-.09h8.52a.08.08,0,0,0,.06,0,.06.06,0,0,0,0,0,.77.77,0,0,1-.2-.48.8.8,0,0,1,.39-.67,1.67,1.67,0,0,1,1-.27,1.64,1.64,0,0,1,1,.27.8.8,0,0,1,.39.67.79.79,0,0,1-.39.67,1.57,1.57,0,0,1-1,.28,1.82,1.82,0,0,1-.55-.08c-.06,0-.09,0-.09,0a5.12,5.12,0,0,1-2,4.11A11.24,11.24,0,0,1,80,133.86c-.08,0-.13,0-.14-.08s0-.08.1-.1a10.84,10.84,0,0,0,5.67-1.78,4.94,4.94,0,0,0,1.91-4.07s0-.08-.11-.08Zm10.51-1.26a1.32,1.32,0,0,0-.77-.22,1.29,1.29,0,0,0-.77.22.62.62,0,0,0,0,1.08,1.3,1.3,0,0,0,.77.23,1.32,1.32,0,0,0,.77-.23.62.62,0,0,0,0-1.08Z"/><path class="cls-2" d="M92.54,133.51a.85.85,0,0,1-.51-.15.42.42,0,0,1-.22-.36v-5.09a.45.45,0,0,1,.22-.37.85.85,0,0,1,.51-.15h7.76a.85.85,0,0,1,.51.15.45.45,0,0,1,.22.37V133a.42.42,0,0,1-.22.36.85.85,0,0,1-.51.15Zm-.47-5.86v5.61c0,.05,0,.07.11.07h8.49c.07,0,.11,0,.11-.07v-5.61c0-.05,0-.08-.11-.08H92.18C92.1,127.57,92.07,127.6,92.07,127.65Z"/><path class="cls-2" d="M104.76,129.66c-.09,0-.13,0-.12-.11s.07-.08.16-.07l3.84.5c.09,0,.12.05.1.11s-.06.09-.15.07Zm.51-2.25c-.09,0-.13,0-.11-.11s.07-.08.15-.07c1.32.14,2.68.31,4.1.5.09,0,.12,0,.1.11s-.07.09-.15.07C108,127.73,106.66,127.57,105.27,127.41Zm-.11,6.46c0-.06,0-.09.11-.1a13.58,13.58,0,0,0,6.09-1.51,6,6,0,0,0,2.75-3.81c0-.06.07-.08.14-.07s.12.05.1.1a6.12,6.12,0,0,1-2.83,3.9A13.94,13.94,0,0,1,105.3,134C105.2,134,105.16,133.94,105.16,133.87Zm8-6.15c-.28-.36-.63-.75-1-1.19,0-.06,0-.1,0-.13s.13,0,.18,0c.36.39.72.79,1.05,1.21,0,.05,0,.09-.05.12A.14.14,0,0,1,113.14,127.72Zm1.57-.15c-.42-.53-.77-.93-1-1.22,0-.06,0-.1,0-.13a.15.15,0,0,1,.18,0c.41.44.77.85,1.07,1.23,0,.06,0,.1,0,.13A.14.14,0,0,1,114.71,127.57Z"/><path class="cls-2" d="M118.27,133.49q-.12,0-.12-.09t.12-.09h3.53c.07,0,.11,0,.11-.08V129.1s0-.07-.11-.07h-3.22c-.08,0-.13,0-.13-.09s0-.09.13-.09h6.92c.08,0,.13,0,.13.09s0,.09-.13.09h-3.23c-.07,0-.1,0-.1.07v4.13c0,.06,0,.08.1.08h3.54q.12,0,.12.09t-.12.09Z"/><path class="cls-2" d="M130.51,130.64a.14.14,0,0,1-.18,0q-.09-.06,0-.12a5.54,5.54,0,0,0,2.68-3.76c0-.06.06-.09.14-.08s.13,0,.11.11a5.5,5.5,0,0,1-.2.8c0,.06,0,.08.07.08h5.18a.88.88,0,0,1,.51.15.41.41,0,0,1,.21.36,4.83,4.83,0,0,1-2.11,4,12.38,12.38,0,0,1-6.07,1.62c-.09,0-.14,0-.14-.08s0-.09.12-.1c2.74-.18,4.74-.71,6-1.61a4.76,4.76,0,0,0,1.94-4c0-.06,0-.09-.11-.09h-5.6c-.09,0-.13,0-.14.07A6.21,6.21,0,0,1,130.51,130.64Z"/><path class="cls-2" d="M145,134.05c-.09,0-.13,0-.13-.09v-7c0-.06,0-.09.13-.09s.13,0,.13.09v2.56c0,.05,0,.08.1.09a72.28,72.28,0,0,1,7.13,1.56c.08,0,.1.06.07.11a.13.13,0,0,1-.15.06,71.62,71.62,0,0,0-7.05-1.54c-.07,0-.1,0-.1.05V134C145.1,134,145.05,134.05,145,134.05Z"/><path class="cls-2" d="M78.23,147.33c-.08,0-.13,0-.13-.09s.05-.09.13-.09h5.09c.07,0,.12,0,.12-.07a.92.92,0,0,0,0-.29v-.87s0-.08-.11-.08H79.51c-.08,0-.13,0-.13-.09s.05-.09.13-.09h3.86c.07,0,.11,0,.11-.07v-1.06c0-.06,0-.08-.11-.08h-4q-.12,0-.12-.09t.12-.09h4c.07,0,.11,0,.11-.08v-.73c0-.06,0-.09.13-.09s.13,0,.13.09v.73c0,.05,0,.08.11.08h4c.08,0,.13,0,.13.09s0,.09-.13.09h-4c-.07,0-.11,0-.11.08v1.06s0,.07.11.07h3.86c.09,0,.13,0,.13.09s0,.09-.13.09H83.85c-.07,0-.11,0-.11.08v.87a.92.92,0,0,0,0,.29s0,.07.13.07H89c.09,0,.13,0,.13.09s0,.09-.13.09H84a.07.07,0,0,0-.06,0s0,0,0,.05a3.83,3.83,0,0,0,1.74,1.43,10.89,10.89,0,0,0,3.12.95c.08,0,.11.05.09.11s-.07.09-.15.07a10.89,10.89,0,0,1-3.25-1,3.91,3.91,0,0,1-1.81-1.53l0,0,0,0a3.93,3.93,0,0,1-1.8,1.53,11.05,11.05,0,0,1-3.26,1,.11.11,0,0,1-.15-.07c0-.06,0-.09.09-.11a10.89,10.89,0,0,0,3.12-.95,3.87,3.87,0,0,0,1.75-1.43s0,0,0-.05,0,0-.06,0Zm.39-3c-.09,0-.13,0-.13-.09v-.84a.42.42,0,0,1,.22-.36.85.85,0,0,1,.51-.15h4.15c.07,0,.11,0,.11-.08v-.69c0-.06,0-.09.13-.09s.13,0,.13.09v.69s0,.08.11.08H88a.91.91,0,0,1,.52.15.45.45,0,0,1,.22.36v.84c0,.06,0,.09-.13.09s-.13,0-.13-.09v-1.09c0-.06,0-.08-.1-.08H78.86c-.08,0-.12,0-.12.08v1.09Q78.74,144.36,78.62,144.36Z"/><path class="cls-2" d="M90.78,146.67a.12.12,0,0,1-.17,0c-.06,0,0-.08,0-.11a8.56,8.56,0,0,0,3.06-2.28.14.14,0,0,1,.18,0c.08,0,.1.07,0,.13a6.65,6.65,0,0,1-1.32,1.24.16.16,0,0,0-.07.14v4.34c0,.06,0,.09-.13.09s-.13,0-.13-.09v-4.16s0,0,0,0a0,0,0,0,0,0,0A9.91,9.91,0,0,1,90.78,146.67Zm.12-2.32a.13.13,0,0,1-.17,0c0-.05,0-.09,0-.12a8.74,8.74,0,0,0,3-1.92.14.14,0,0,1,.18,0c.07,0,.08.07,0,.13A9,9,0,0,1,90.9,144.35Zm3.68.77c-.09,0-.13,0-.13-.09s0-.09.13-.09h7.55c.09,0,.13,0,.13.09s0,.09-.13.09h-2.06c-.08,0-.11,0-.11.08v4a.83.83,0,0,1-.2.67,1.78,1.78,0,0,1-.89.14c-.48,0-1.06,0-1.73,0-.09,0-.13,0-.13-.1s0-.08.14-.08c.68,0,1.25,0,1.72,0a1.58,1.58,0,0,0,.71-.09q.12-.09.12-.54v-4s0-.08-.12-.08Zm.64-2.34c-.09,0-.13,0-.13-.09s0-.09.13-.09h6.27c.09,0,.13,0,.13.09s0,.09-.13.09Z"/><path class="cls-2" d="M103.8,146.21a.12.12,0,0,1-.15-.05c0-.06,0-.1.07-.12a19.43,19.43,0,0,0,5-1.82s0,0,0,0H103.9c-.08,0-.13,0-.13-.09s0-.09.13-.09H109c.08,0,.11,0,.11-.08v-1c0-.05,0-.07-.1-.07-1.55.06-3,.09-4.25.09-.09,0-.13,0-.13-.09s0-.09.13-.09q4.42,0,8.94-.4c.08,0,.14,0,.15.08s0,.09-.11.1c-1.44.13-2.86.23-4.27.29-.07,0-.1,0-.1.08v1c0,.05,0,.08.12.08h5.13c.09,0,.13,0,.13.09s0,.09-.13.09h-4.85s0,0,0,0a19.68,19.68,0,0,0,5,1.83c.07,0,.09,0,.07.11a.14.14,0,0,1-.16.05,18.8,18.8,0,0,1-5.27-2h0s0,0,0,0v1.6c0,.06,0,.09-.13.09s-.13,0-.13-.09v-1.6s0,0,0,0h0A19,19,0,0,1,103.8,146.21Zm8.76.6a7.11,7.11,0,0,1-2.66,1.82s0,0,0,0,0,0,0,0c1.4.3,2.88.69,4.43,1.17.08,0,.1.06.07.11s-.09.07-.17.05c-1.6-.49-3.14-.89-4.63-1.21a.28.28,0,0,0-.2,0A19,19,0,0,1,104.3,150c-.08,0-.13,0-.14-.08s0-.08.11-.1a19.7,19.7,0,0,0,4.79-1s0,0,0,0l0,0c-1.12-.22-2.26-.41-3.42-.54a.27.27,0,0,0-.17,0l-.21.12-.21.12a.15.15,0,0,1-.18,0s0-.09,0-.13a17.08,17.08,0,0,0,2.27-1.48s0,0,0,0l0,0H103.9c-.08,0-.13,0-.13-.09s0-.09.13-.09h3.43a.29.29,0,0,0,.17-.05,11.3,11.3,0,0,0,.9-.86.14.14,0,0,1,.18,0c.07,0,.08.07,0,.12a9.15,9.15,0,0,1-.79.77s0,.05.06.05h6.77c.09,0,.13,0,.13.09s0,.09-.13.09h-1.93A.24.24,0,0,0,112.56,146.81Zm-3,1.76a7.53,7.53,0,0,0,2.71-1.76s0,0,0-.05l0,0h-4.55a.27.27,0,0,0-.18.07,16.6,16.6,0,0,1-1.63,1.14s0,0,0,.06c1.26.16,2.42.35,3.47.57A.31.31,0,0,0,109.56,148.57Z"/><path class="cls-2" d="M116.83,150c-.08,0-.13,0-.14-.06s0-.09.07-.11a18,18,0,0,0,3.73-1,.14.14,0,0,1,.17,0s0,.09,0,.12A17.34,17.34,0,0,1,116.83,150Zm1.35-1.45a.84.84,0,0,1-.51-.16.45.45,0,0,1-.22-.36v-2.93a.45.45,0,0,1,.22-.36.9.9,0,0,1,.51-.15H126a.9.9,0,0,1,.51.15.42.42,0,0,1,.22.36v2.93a.42.42,0,0,1-.22.36.84.84,0,0,1-.51.16Zm-.47-3.7v.92c0,.05,0,.08.12.08h8.49c.07,0,.1,0,.1-.08v-.92c0-.06,0-.08-.1-.08h-8.49C117.75,144.81,117.71,144.83,117.71,144.89Zm0,1.26v.92c0,.05,0,.08.12.08h8.49c.07,0,.1,0,.1-.08v-.92c0-.06,0-.08-.1-.08h-8.49C117.75,146.07,117.71,146.09,117.71,146.15Zm0,1.26v.92s0,.08.12.08h8.49c.07,0,.1,0,.1-.08v-.92c0-.06,0-.08-.1-.08h-8.49C117.75,147.33,117.71,147.35,117.71,147.41Zm1-3.37a.91.91,0,0,1-.52-.15.44.44,0,0,1-.21-.36V143a.44.44,0,0,1,.21-.36.85.85,0,0,1,.52-.16h6.74a.84.84,0,0,1,.51.16.44.44,0,0,1,.21.36v.5a.44.44,0,0,1-.21.36.9.9,0,0,1-.51.15Zm-.48-1.27v1c0,.05,0,.07.12.07h7.47c.07,0,.1,0,.1-.07v-1c0-.05,0-.08-.1-.08h-7.47C118.26,142.69,118.22,142.72,118.22,142.77Zm5.25,6.18a.14.14,0,0,1,.17-.06,31.32,31.32,0,0,1,3.74,1.06c.09,0,.11.07.07.12a.14.14,0,0,1-.18,0,31.59,31.59,0,0,0-3.71-1.05C123.47,149,123.44,149,123.47,149Z"/><path class="cls-2" d="M129.39,145a.14.14,0,0,1-.18,0c0-.05,0-.09.07-.12a35,35,0,0,0,5.35-2.6.68.68,0,0,1,.28-.07.69.69,0,0,1,.29.07,35,35,0,0,0,5.35,2.6q.13,0,.06.12a.13.13,0,0,1-.17,0,35.43,35.43,0,0,1-5.45-2.63.16.16,0,0,0-.15,0A35.84,35.84,0,0,1,129.39,145Zm2.4,4.6a22.4,22.4,0,0,0,1.63-2.86s0-.07-.07-.07h-3.56c-.08,0-.13,0-.13-.09s.05-.09.13-.09H140c.08,0,.13,0,.13.09s0,.09-.13.09h-6.2a.19.19,0,0,0-.16.07,21.9,21.9,0,0,1-1.6,2.84s0,0,0,0,0,0,.06,0q3.32-.18,6.79-.59c.06,0,.08,0,.05-.07-.45-.48-.92-1-1.42-1.47,0,0,0-.08,0-.12a.14.14,0,0,1,.18,0q1.33,1.32,2.43,2.55c0,.05,0,.09,0,.12a.14.14,0,0,1-.18,0l-.73-.8a.2.2,0,0,0-.17,0q-4.65.57-9,.69c-.1,0-.14,0-.14-.09s0-.09.13-.09l1.58-.06A.19.19,0,0,0,131.79,149.58Zm6.58-4.55h-6.91c-.09,0-.13,0-.13-.09s0-.09.13-.09h6.91c.09,0,.13,0,.13.09S138.46,145,138.37,145Z"/><path class="cls-1" d="M94,201.28a1,1,0,0,1,.65.33.85.85,0,0,1,.24.67c0,.74,0,1.32,0,1.74a11.22,11.22,0,0,1-.11,1.29q-.08.65-.12,1a1.33,1.33,0,0,1-.24.62,1.54,1.54,0,0,1-.32.4,2.22,2.22,0,0,1-.48.18,2.64,2.64,0,0,1-.62.09h-.84a4.45,4.45,0,0,1-2-.27c-.26-.19-.38-.67-.38-1.45v-4s0-.06,0-.06-.06,0-.07,0a20,20,0,0,1-5.24,5.64,1.11,1.11,0,0,1-.88.2,1.24,1.24,0,0,1-.8-.49,1,1,0,0,1-.2-.84,1.09,1.09,0,0,1,.49-.72c.51-.37,1.14-.87,1.87-1.51.08-.08.08-.15,0-.22a1,1,0,0,1-.41-.41.66.66,0,0,0-.06-.12l-.06-.12c0-.11-.13-.13-.26-.07a32.68,32.68,0,0,1-5.19,2.76.87.87,0,0,1-.8-.05,1,1,0,0,1-.52-.64,1.17,1.17,0,0,1,.11-.88,1.23,1.23,0,0,1,.66-.59l.36-.14a.28.28,0,0,0,.19-.29V199s0,0-.06-.07h-.1a.71.71,0,0,1-.63.09.79.79,0,0,1-.48-.45c0-.13-.29-.73-.74-1.8l-.06,0s0,0,0,.05v10a1.16,1.16,0,0,1-.33.83,1.12,1.12,0,0,1-.82.35,1.2,1.2,0,0,1-1.18-1.18v-7.46a.05.05,0,0,1,0,0,19.21,19.21,0,0,1-.87,2.5.66.66,0,0,1-.6.41.68.68,0,0,1-.65-.36,2.55,2.55,0,0,1,0-2.4,28.34,28.34,0,0,0,2.13-6.89c0-.13,0-.19-.17-.19H73a1.06,1.06,0,0,1-.78-.32,1,1,0,0,1-.33-.76,1,1,0,0,1,.33-.77,1.06,1.06,0,0,1,.78-.31h1.15a.19.19,0,0,0,.21-.22v-2.45a1.16,1.16,0,0,1,.35-.83,1.13,1.13,0,0,1,.83-.34,1.11,1.11,0,0,1,.82.34,1.18,1.18,0,0,1,.33.83V190a.2.2,0,0,0,.22.22h.93a1,1,0,0,1,.84.4s0,.05.08,0a.05.05,0,0,0,0-.06v-2.14a1.35,1.35,0,0,1,.41-1,1.31,1.31,0,0,1,1-.4h4.23a1.37,1.37,0,0,1,1.36,1.36v8.62a1.29,1.29,0,0,1-.4,1,1.37,1.37,0,0,1-1,.39h-3.1a.2.2,0,0,0-.22.22v3.6a.13.13,0,0,0,.06.11.11.11,0,0,0,.11,0c.58-.32,1.15-.66,1.73-1,.1-.06.11-.16,0-.29s-.28-.44-.36-.55a.9.9,0,0,1-.13-.78.89.89,0,0,1,.49-.61,1.18,1.18,0,0,1,.83-.12,1,1,0,0,1,.68.48q.77,1.2,1.68,2.88c.06.1.13.1.19,0a18.56,18.56,0,0,0,3-5.08.1.1,0,0,0,0-.12.16.16,0,0,0-.12,0H87.23a1,1,0,0,1-.76-.33,1.06,1.06,0,0,1-.32-.78v0a1,1,0,0,1,.3-.73,1,1,0,0,1,.74-.3c.11,0,.16-.06.16-.17V189.4a.11.11,0,0,0-.12-.12.89.89,0,0,1-.84-.84v-.24a1,1,0,0,1,.32-.77,1,1,0,0,1,.76-.31h5.88a1.06,1.06,0,0,1,1.08,1.08v.24a.77.77,0,0,1-.25.58.8.8,0,0,1-.59.26c-.08,0-.12,0-.12.14a28.52,28.52,0,0,1-.86,5.35c0,.15,0,.22.14.22h.84a1.06,1.06,0,0,1,.77.3,1,1,0,0,1,.31.75,1.06,1.06,0,0,1-.31.78,1,1,0,0,1-.77.33H92.08a.25.25,0,0,0-.26.17c-.29.73-.51,1.28-.67,1.63,0,0,0,0,0,.07a.08.08,0,0,0,.07,0,.82.82,0,0,1,.81.81v5a1.1,1.1,0,0,0,.06.5s.17.07.38.07A.49.49,0,0,0,93,205a21.23,21.23,0,0,0,.12-2.9.77.77,0,0,1,.27-.6A.7.7,0,0,1,94,201.28Zm-17-8.72c.16.32.74,1.56,1.75,3.7,0,0,0,0,.06,0s0,0,0,0V192a.05.05,0,0,0,0-.06s-.06,0-.08,0a1,1,0,0,1-.84.41h-.76a.11.11,0,0,0-.11.06A.08.08,0,0,0,77,192.56Zm4.12-3.14v2.16a.2.2,0,0,0,.22.22h2.16a.2.2,0,0,0,.22-.22v-2.16c0-.13-.08-.19-.22-.19H81.33C81.19,189.23,81.11,189.29,81.11,189.42Zm0,4.51v2.28a.2.2,0,0,0,.22.22h2.16a.2.2,0,0,0,.22-.22v-2.28a.19.19,0,0,0-.22-.21H81.33A.19.19,0,0,0,81.11,193.93Zm9.22.84a25.8,25.8,0,0,0,.79-5.3.17.17,0,0,0-.19-.19h-1.2c-.14,0-.22.06-.22.19v5.3a.2.2,0,0,0,.22.22h.34A.24.24,0,0,0,90.33,194.77Z"/><path class="cls-1" d="M121.53,200.51a1,1,0,0,1-.71-.31,1,1,0,0,1-.3-.72,1,1,0,0,1,.3-.72,1,1,0,0,1,.71-.32h5a.5.5,0,0,0,.36-.16l.74-.92c.08-.11,0-.16-.09-.16h-4.44a1.4,1.4,0,0,1-1.37-1.37v-3.94a1.29,1.29,0,0,1,.41-.95,1.34,1.34,0,0,1,1-.39h3.6c.14,0,.21-.07.21-.22v-.91c0-.13-.07-.19-.21-.19h-5a1.06,1.06,0,0,1-1.06-1.06,1,1,0,0,1,.31-.74,1,1,0,0,1,.75-.31h18.77a1,1,0,0,1,.74.31,1,1,0,0,1,.31.74,1,1,0,0,1-.31.75,1.05,1.05,0,0,1-.74.31h-5c-.15,0-.22.06-.22.19v.91a.19.19,0,0,0,.22.22H139a1.37,1.37,0,0,1,1,.39,1.29,1.29,0,0,1,.4.95v3.94a1.31,1.31,0,0,1-.4,1,1.35,1.35,0,0,1-1,.41h-8.09a.36.36,0,0,0-.31.16c-.13.21-.34.52-.63.94-.06.1,0,.14.1.14h10.53a.94.94,0,0,1,.71.32,1,1,0,0,1,.3.72,1,1,0,0,1-.3.72,1,1,0,0,1-.71.31h-2.54a.35.35,0,0,0-.31.17A11.65,11.65,0,0,1,135,203.6a.12.12,0,0,0,0,.11.1.1,0,0,0,.06.09c1.77.57,3.44,1.17,5,1.8a.9.9,0,0,1,.54.6.93.93,0,0,1-.11.81,1.37,1.37,0,0,1-.76.58,1.39,1.39,0,0,1-.94-.05q-3.27-1.36-6.15-2.3a.5.5,0,0,0-.38,0,31.55,31.55,0,0,1-9.65,2.4,1.26,1.26,0,0,1-1.34-.94.85.85,0,0,1,.14-.74.89.89,0,0,1,.67-.39,33.34,33.34,0,0,0,6.89-1.32q.12,0,0-.09-1.95-.51-3.6-.84a.45.45,0,0,0-.34.09.22.22,0,0,1-.07.06l-.07.06a1.69,1.69,0,0,1-1.94.07.83.83,0,0,1-.39-.66.79.79,0,0,1,.31-.68c.64-.53,1.26-1.07,1.85-1.63.08-.08.06-.12-.07-.12Zm5.42-5.43v-2.47a.19.19,0,0,0-.21-.21h-2.35c-.15,0-.22.07-.22.21v2.47c0,.13.07.2.22.2h2.35A.18.18,0,0,0,127,195.08Zm.22,6.48c-.1.1-.08.16,0,.2,1.63.32,3.21.68,4.75,1.1a.38.38,0,0,0,.34-.05,11,11,0,0,0,2.66-2.13c.08-.12.06-.17-.07-.17h-6.48a.45.45,0,0,0-.34.12C127.89,200.84,127.59,201.15,127.17,201.56Zm2.28-12.14v.91a.19.19,0,0,0,.22.22h2.83c.14,0,.21-.07.21-.22v-.91c0-.13-.07-.19-.21-.19h-2.83C129.52,189.23,129.45,189.29,129.45,189.42Zm0,3.19v2.47c0,.13.07.2.22.2h2.83a.18.18,0,0,0,.21-.2v-2.47a.19.19,0,0,0-.21-.21h-2.83C129.52,192.4,129.45,192.47,129.45,192.61Zm5.76,0v2.47c0,.13.07.2.22.2h2.35a.18.18,0,0,0,.21-.2v-2.47a.19.19,0,0,0-.21-.21h-2.35C135.28,192.4,135.21,192.47,135.21,192.61Z"/></svg>