<svg id="レイヤー_1" data-name="レイヤー 1" xmlns="http://www.w3.org/2000/svg" viewBox="0 0 230 230"><defs><style>.cls-1,.cls-10,.cls-2,.cls-5{fill:#fff;}.cls-1,.cls-4,.cls-5,.cls-7{stroke:#003d80;}.cls-1,.cls-10,.cls-4,.cls-5,.cls-7,.cls-8,.cls-9{stroke-miterlimit:10;}.cls-1{stroke-width:2px;}.cls-3,.cls-4,.cls-8,.cls-9{fill:#003d80;}.cls-4{stroke-width:5px;}.cls-6{fill:#0064aa;}.cls-7{fill:none;stroke-width:6px;}.cls-8{stroke:#29abe2;stroke-width:0.25px;}.cls-9{stroke:#fff;stroke-width:0.5px;}.cls-10{font-size:92.79px;stroke:#f2f2f2;font-family:SimSun-ExtB;}</style></defs><g id="ルーペ"><rect id="cmall-square" class="cls-1" x="136.02" y="143.56" width="15.31" height="9.35" transform="translate(-59.09 109.48) rotate(-35.08)"/><g id="big-circle"><path class="cls-2" d="M103.43,159.33a70.89,70.89,0,0,1-58-30C22.9,97.33,31,52.73,63.46,30a72,72,0,0,1,41.6-13.21,70.92,70.92,0,0,1,58,30c22.49,32,14.38,76.63-18.07,99.42A72,72,0,0,1,103.43,159.33Z"/><path class="cls-3" d="M105.06,13.74v6a67.87,67.87,0,0,1,55.58,28.7c21.54,30.67,13.77,73.4-17.33,95.23a69.08,69.08,0,0,1-39.88,12.66,67.9,67.9,0,0,1-55.58-28.69,67.07,67.07,0,0,1-11.11-50.9,69.63,69.63,0,0,1,68.32-57v-6m0,0A75.28,75.28,0,0,0,61.73,27.49C27.87,51.27,19.46,97.65,42.94,131.08a73.62,73.62,0,0,0,60.49,31.25,75.21,75.21,0,0,0,43.33-13.75C180.62,124.81,189,78.43,165.55,45a73.62,73.62,0,0,0-60.49-31.25Z"/></g><g id="small-circe"><path class="cls-2" d="M104,152.86A64.82,64.82,0,0,1,66.9,35a64.29,64.29,0,0,1,89.84,15.79A65,65,0,0,1,141,141.09,63.89,63.89,0,0,1,104,152.86Z"/><path class="cls-3" d="M103.91,22.27v2a63.82,63.82,0,0,1,36.53,116A62.87,62.87,0,0,1,104,151.86a63.83,63.83,0,0,1-36.54-116,62.89,62.89,0,0,1,36.43-11.58v-2m0,0a65,65,0,0,0-37.58,12A65.82,65.82,0,0,0,104,153.86a65,65,0,0,0,37.58-12A65.82,65.82,0,0,0,103.91,22.27Z"/></g><rect id="big-square" class="cls-4" x="149.74" y="147.71" width="28.91" height="58.68" rx="5.41" transform="translate(-71.92 126.51) rotate(-35.08)"/><ellipse id="foot-round" class="cls-5" cx="180.15" cy="199.55" rx="14.86" ry="2.07" transform="translate(-81.96 139.76) rotate(-35.08)"/></g><g id="文字_天結島" data-name="文字：天結島"><path class="cls-3" d="M87.11,37.59a.13.13,0,0,0-.15.15v3c0,.08.05.13.15.13h4.58a.73.73,0,0,1,.52.21.77.77,0,0,1,.22.54.73.73,0,0,1-.22.52.7.7,0,0,1-.52.22H87.33c-.09,0-.13,0-.11.11.67,2.32,2.43,4.11,5.29,5.4a.69.69,0,0,1,.39.43.66.66,0,0,1-.06.58.94.94,0,0,1-.5.42.91.91,0,0,1-.65,0,12.12,12.12,0,0,1-3.27-2.2,10,10,0,0,1-2.21-3,0,0,0,0,0-.06,0,.13.13,0,0,0-.07,0,10,10,0,0,1-2.25,3,12.28,12.28,0,0,1-3.35,2.19.92.92,0,0,1-.65,0,1,1,0,0,1-.51-.42.66.66,0,0,1-.06-.58.68.68,0,0,1,.4-.43c2.86-1.29,4.62-3.08,5.28-5.4,0-.07,0-.11-.11-.11H80.48a.71.71,0,0,1-.53-.22.72.72,0,0,1-.21-.52.76.76,0,0,1,.21-.54.74.74,0,0,1,.53-.21h4.57c.1,0,.15-.05.15-.13v-3a.13.13,0,0,0-.15-.15H79.91a.72.72,0,0,1-.53-.21.73.73,0,0,1-.2-.53.76.76,0,0,1,.21-.54.73.73,0,0,1,.52-.21H92.25a.72.72,0,0,1,.52.21.73.73,0,0,1,.22.54.74.74,0,0,1-.21.53.72.72,0,0,1-.53.21Z"/><path class="cls-3" d="M96.91,48.87A.68.68,0,0,1,96,48.7a.72.72,0,0,1-.11-.51c.19-1,.34-2.09.44-3.16a.67.67,0,0,1,.7-.6.7.7,0,0,1,.63.76c-.1,1.11-.24,2.19-.44,3.24A.64.64,0,0,1,96.91,48.87Zm.33-6.76a1.57,1.57,0,0,0,.16-.25,2.27,2.27,0,0,1,.16-.25.17.17,0,0,0,0-.23c-.53-.85-1-1.6-1.41-2.23a1.19,1.19,0,0,1,0-1.38.52.52,0,0,1,.44-.25.48.48,0,0,1,.44.23l0,.07a.15.15,0,0,0,0,.06.06.06,0,0,0,.06,0,.11.11,0,0,0,.08,0c.29-.59.58-1.23.87-1.91a.78.78,0,0,1,.41-.39.66.66,0,0,1,.55,0,.72.72,0,0,1,.39.41.75.75,0,0,1,0,.55c-.42.93-.87,1.85-1.35,2.75a.22.22,0,0,0,0,.22c0,.06.08.14.15.25s.12.2.16.25.1.08.14,0c.39-.65.82-1.44,1.32-2.38a.64.64,0,0,1,.41-.36.71.71,0,0,1,.55,0,.73.73,0,0,1,.36.43.7.7,0,0,1,0,.55c-.27.5-.57,1-.9,1.63,0,0,0,0,0,0s0,0,0,0a.93.93,0,0,1,.71.1.88.88,0,0,1,.43.54c.24.91.43,1.72.58,2.43a.62.62,0,0,1-.09.49.72.72,0,0,1-.42.3h-.1a.53.53,0,0,1-.41-.07.54.54,0,0,1-.23-.35.12.12,0,0,0-.12-.08l-.86.07c-.1,0-.15.05-.15.14v5.48a.8.8,0,0,1-.24.58.81.81,0,0,1-1.15,0,.77.77,0,0,1-.25-.58V43.69c0-.08,0-.12-.14-.12l-1.22.08a.66.66,0,0,1-.5-.18.68.68,0,0,1-.22-.48.7.7,0,0,1,.18-.51.71.71,0,0,1,.49-.23l.43,0A.25.25,0,0,0,97.24,42.11ZM99,42a0,0,0,0,0,0,.06.08.08,0,0,0,.07,0l1.23-.09c.1,0,.14,0,.12-.14-.11-.43-.23-.88-.37-1.37,0-.09-.07-.11-.11,0Zm2,6.41a.64.64,0,0,1-.47-.16.63.63,0,0,1-.24-.44c-.07-1.06-.17-2-.27-2.74a.67.67,0,0,1,.13-.49.57.57,0,0,1,.43-.25.66.66,0,0,1,.49.13.58.58,0,0,1,.25.41c.07.55.17,1.48.29,2.8a.66.66,0,0,1-.15.5A.64.64,0,0,1,101,48.42Zm9-11.55a.73.73,0,0,1,.51,1.24.73.73,0,0,1-.51.2h-3c-.09,0-.13,0-.13.15v1.85c0,.09,0,.14.13.14h2.63a.68.68,0,0,1,.68.67.7.7,0,0,1-.2.49.64.64,0,0,1-.48.21h-7a.62.62,0,0,1-.47-.21.66.66,0,0,1-.2-.49.63.63,0,0,1,.2-.47.65.65,0,0,1,.47-.2H105c.1,0,.15-.05.15-.14V38.46a.13.13,0,0,0-.15-.15h-2.71a.71.71,0,0,1-.51-.2.76.76,0,0,1,0-1,.68.68,0,0,1,.51-.21H105a.13.13,0,0,0,.15-.15v-.59a.84.84,0,0,1,.25-.61.87.87,0,0,1,.61-.26.83.83,0,0,1,.61.26.81.81,0,0,1,.26.61v.59c0,.1,0,.15.13.15Zm-7,12.88h-.13a.82.82,0,0,1-.81-.82V44.08a.87.87,0,0,1,.27-.64.88.88,0,0,1,.64-.28h6.25a.86.86,0,0,1,.63.28.87.87,0,0,1,.27.64V48.9a.84.84,0,0,1-.85.85h-.18a.68.68,0,0,1-.69-.69.1.1,0,0,0-.11-.11H103.8c-.07,0-.1,0-.1.11a.65.65,0,0,1-.21.49A.7.7,0,0,1,103,49.75Zm.71-5V47.4c0,.1,0,.15.13.15h4.43c.09,0,.13,0,.13-.15V44.75c0-.09,0-.14-.13-.14h-4.43C103.74,44.61,103.7,44.66,103.7,44.75Z"/><path class="cls-3" d="M114,49.59a.82.82,0,0,1-.82-.82V47a.8.8,0,0,1,.24-.58.78.78,0,0,1,.58-.24.8.8,0,0,1,.58.24.77.77,0,0,1,.25.58v.35c0,.1,0,.15.13.15h2.14c.09,0,.14,0,.14-.15v-1.2a1,1,0,0,1,0-.29c0-.08,0-.13-.08-.13h-2a.87.87,0,0,1-.64-.27.86.86,0,0,1-.28-.64V37.25a.86.86,0,0,1,.28-.64.87.87,0,0,1,.64-.27h2.84c.11,0,.17,0,.18-.11s.06-.23.11-.45a1.07,1.07,0,0,1,1.09-.81.79.79,0,0,1,.56.31.73.73,0,0,1,.12.61c-.05.15-.08.26-.1.32s0,.13.1.13h4.35a.92.92,0,0,1,.91.91v3.57a.83.83,0,0,1-.27.63.89.89,0,0,1-.64.27h-8.3c-.09,0-.13.05-.13.14v.41c0,.09,0,.14.13.14h10.32a.65.65,0,0,1,.66.66.6.6,0,0,1-.19.46.65.65,0,0,1-.47.2H116.2c-.09,0-.13.05-.13.14v.4c0,.1,0,.15.13.15h9.66a.94.94,0,0,1,.65.26.87.87,0,0,1,.27.64,15.52,15.52,0,0,1-.21,2.78,2.42,2.42,0,0,1-.59,1.3,1.75,1.75,0,0,1-1.16.35q-.76,0-1.62-.06a.88.88,0,0,1-.53-.25.8.8,0,0,1-.24-.53v-.12a.09.09,0,0,0,0-.07s0,0-.05,0a1.07,1.07,0,0,1-.37.08h-7c-.07,0-.1,0-.1.11a.67.67,0,0,1-.21.49.7.7,0,0,1-.49.2Zm2-11.77v.59c0,.1,0,.14.13.14h7.35c.1,0,.15,0,.15-.14v-.59a.13.13,0,0,0-.15-.15H116.2C116.11,37.67,116.07,37.72,116.07,37.82Zm0,2v.61c0,.09,0,.13.13.13h7.35c.1,0,.15,0,.15-.13v-.61c0-.09,0-.14-.15-.14H116.2C116.11,39.68,116.07,39.73,116.07,39.82ZM125,45.7h-6c-.08,0-.11,0-.08.13a1.13,1.13,0,0,1,.06.29v1.2c0,.1,0,.15.14.15h2.12a.13.13,0,0,0,.15-.15v-.4a.74.74,0,0,1,.23-.54.79.79,0,0,1,.56-.23.79.79,0,0,1,.77.77v1a1,1,0,0,1,0,.3.06.06,0,0,0,.08.08h.18c.46,0,.83,0,1.12,0a.65.65,0,0,0,.67-.44,7.21,7.21,0,0,0,.21-2A.12.12,0,0,0,125,45.7Z"/></g><g id="島"><path id="man-island" class="cls-6" d="M142.83,65.27a3.37,3.37,0,0,1,.75-1.09,4,4,0,0,0,1.4-2.65c0-.42.06-.86.07-1.27a3.86,3.86,0,0,0-.83-2.53c-.87-1.08-1.32-2.78-2-4.57A3.91,3.91,0,0,0,136.9,51c-4.19,2-8.88,6.5-10.69,7.49-1,.55,3.19.21,2,.09a28.47,28.47,0,0,1-4.63-1.36c-6.27-1.83-12.74-3.37-19.33-3.45-3.58,0-11.21-.56-14.64.47-8.5,2.54-11.43,9.65-16.17,16.89S66,86.64,63.82,94.94c-2.07,8.08-.2,13.15,2.49,21.06,2.9,8.56,11.53,15.22,20,19.17s11.86,2.59,21.08,4.26c7.6,1.38,16.59,4.76,23.3,1.06,5.86-3.23,9.85-5.14,12.14-11.24a109.4,109.4,0,0,0,5.6-21.28,2,2,0,0,1,.05-.24c2.71-11.48,5.14-24.45-1.67-34.23A17.62,17.62,0,0,0,144,69.94,3.94,3.94,0,0,1,142.83,65.27Z"/><path id="remort-island" class="cls-6" d="M143.33,50c3-.53,6.31-.91,9.1.42s4.65,5,3,7.64c-1.53,2.4-5.32,2.53-7.55.76s-3.09-4.81-3-7.66c.58.33-.42,1.33-.75.75"/><path id="road" class="cls-7" d="M86.23,70.94c-3.37,3.31-5.42,8.12-7.59,12.15-2.5,4.66-1.4,10.28-3.55,15.15-5.37,12.14.17,21.37,14.39,24.22,9.52,1.9,18.41,6.93,27.9,5,5.19-1,10.4-3.27,13.6-7.5,4.86-6.46,3.78-15.5,2.46-23.51l-3.72-22.53c-2.66,1.52,3.72-6,2.09-8.6s-9.07,1.75-6.55,0c-3.12.27-7.8,1.92-10.92,2.19-5.25.44-10.91-2.31-16.11-1.52-4.69.71-13.53,2.47-11.85,9.27.66,2.64,2.39,4.65,4.09,6.68l6.23,7.44,7.59,9.08"/></g><g id="fish"><polygon id="bottom-fin" class="cls-3" points="65.85 63.9 60.58 62.94 61.4 65.03 64.12 65.53 65.85 63.9"/><polygon id="top-fin" class="cls-3" points="65.99 57.02 62.65 56.78 60.38 58.62 68.58 59.2 65.99 57.02"/><path id="fish-body" class="cls-8" d="M71.87,60.82l-3.2-2.11c-1-.63-3.75-1-6-.7l-3.14.36c-1.35.16-2.24,1.58-4.81,2.71l-1,0c2.54-.35,4.2,2.12,5.53,2.36l3.1.53c2.2.39,5,.22,6-.36l3.39-1.92C72.28,61.41,72.3,61.1,71.87,60.82Z"/><polygon id="fish-fin" class="cls-8" points="56.51 61 53.97 57.66 53.97 64.33 56.51 61"/><path id="gill" class="cls-8" d="M66.72,59.85A2.5,2.5,0,0,0,67.34,63"/><ellipse id="eye" class="cls-9" cx="69" cy="60.4" rx="0.13" ry="0.1"/><path id="white-fin" class="cls-8" d="M63.45,61.42l.57.47,1.24,1s.7-.38.77-.43a1.09,1.09,0,0,0,.39-.42c.1-.27-.23-.48-.94-.53S64.13,61.46,63.45,61.42Z"/></g><g id="fish-2" data-name="fish"><polygon id="bottom-fin-2" data-name="bottom-fin" class="cls-3" points="56.78 77.92 52.17 77.07 52.88 78.91 55.26 79.34 56.78 77.92"/><polygon id="top-fin-2" data-name="top-fin" class="cls-3" points="56.89 71.9 53.98 71.7 52 73.31 59.16 73.81 56.89 71.9"/><path id="fish-body-2" data-name="fish-body" class="cls-8" d="M62,75.22l-2.8-1.84c-.83-.55-3.26-.83-5.21-.61l-2.74.32c-1.18.14-2,1.37-4.2,2.37l-.83,0c2.22-.3,3.67,1.86,4.83,2.06l2.71.47c1.92.34,4.37.19,5.25-.31L62,76C62.4,75.74,62.41,75.47,62,75.22Z"/><polygon id="fish-fin-2" data-name="fish-fin" class="cls-8" points="48.62 75.38 46.4 72.46 46.4 78.3 48.62 75.38"/><path id="gill-2" data-name="gill" class="cls-8" d="M57.53,74.37a2.2,2.2,0,0,0,.54,2.77"/><ellipse id="eye-2" data-name="eye" class="cls-9" cx="59.52" cy="74.86" rx="0.11" ry="0.09"/><path id="white-fin-2" data-name="white-fin" class="cls-8" d="M54.68,75.75l.5.41,1.08.89s.61-.33.68-.37a1,1,0,0,0,.33-.37c.09-.24-.2-.42-.82-.46S55.27,75.78,54.68,75.75Z"/></g><g id="fish-3" data-name="fish"><polygon id="bottom-fin-3" data-name="bottom-fin" class="cls-3" points="55.23 92.88 51.1 91.9 51.74 94.03 53.87 94.53 55.23 92.88"/><polygon id="top-fin-3" data-name="top-fin" class="cls-3" points="55.33 85.9 52.72 85.67 50.94 87.53 57.36 88.11 55.33 85.9"/><path id="fish-body-3" data-name="fish-body" class="cls-8" d="M59.94,89.76l-2.51-2.14c-.75-.64-2.93-1-4.67-.71l-2.46.37c-1,.16-1.75,1.59-3.77,2.75l-.74,0c2-.35,3.29,2.15,4.33,2.39l2.43.54c1.72.39,3.92.22,4.71-.36l2.65-1.95A.49.49,0,0,0,59.94,89.76Z"/><polygon id="fish-fin-3" data-name="fish-fin" class="cls-8" points="47.91 89.94 45.93 86.55 45.93 93.32 47.91 89.94"/><path id="gill-3" data-name="gill" class="cls-8" d="M55.91,88.77A3.05,3.05,0,0,0,56.39,92"/><circle id="eye-3" data-name="eye" class="cls-9" cx="57.69" cy="89.33" r="0.1"/><path id="white-fin-3" data-name="white-fin" class="cls-8" d="M53.35,90.37l.44.47,1,1s.55-.38.61-.43a1,1,0,0,0,.3-.42c.08-.28-.18-.49-.74-.54S53.87,90.4,53.35,90.37Z"/></g><text class="cls-10" transform="translate(81.96 124.76)">?</text><g id="文字_知る" data-name="文字：知る"><path class="cls-3" d="M65,190.37a1.22,1.22,0,1,1,0-2.43h4a.21.21,0,0,0,.23-.24v-4.53c0-.14-.08-.21-.23-.21H67.73a.3.3,0,0,0-.29.21c-.29.9-.69,1.93-1.18,3.09a1.19,1.19,0,0,1-.69.65,1.23,1.23,0,0,1-1,0,1.19,1.19,0,0,1-.64-.66,1.1,1.1,0,0,1,0-.92,35.06,35.06,0,0,0,2-6.15,1.36,1.36,0,0,1,.55-.8,1.15,1.15,0,0,1,.91-.22,1.12,1.12,0,0,1,.79.49,1.16,1.16,0,0,1,.18.92l-.09.45q-.06.28-.09.39c0,.14,0,.21.16.21h5.76a1.19,1.19,0,0,1,.84,2,1.18,1.18,0,0,1-.84.34h-2a.19.19,0,0,0-.21.21v4.53q0,.24.21.24h2.31a1.15,1.15,0,0,1,.85.35,1.13,1.13,0,0,1,.35.85,1.2,1.2,0,0,1-1.2,1.23H72a.24.24,0,0,0-.26.21c0,.18-.06.44-.13.79a.68.68,0,0,0,.08.42c1.32,2,2.54,3.9,3.64,5.73a1.51,1.51,0,0,1,.18,1,1.3,1.3,0,0,1-.57.87,1.21,1.21,0,0,1-1,.17,1.26,1.26,0,0,1-.8-.57c-.52-.9-1.34-2.27-2.46-4.08-.07-.11-.13-.09-.19,0a15.4,15.4,0,0,1-4.14,6,1.2,1.2,0,0,1-1,.29,1.4,1.4,0,0,1-.92-.55,1.34,1.34,0,0,1-.26-1,1.51,1.51,0,0,1,.52-.94A13.18,13.18,0,0,0,69,190.58q0-.21-.18-.21ZM78.7,201.26a1.3,1.3,0,0,1-.93.38,1.3,1.3,0,0,1-1.31-1.31V181.57a1.46,1.46,0,0,1,.43-1,1.38,1.38,0,0,1,1-.45h7.52a1.54,1.54,0,0,1,1.5,1.5v18.7a1.4,1.4,0,0,1-1.37,1.37,1.25,1.25,0,0,1-.95-.41,1.36,1.36,0,0,1-.38-1q0-.18-.21-.18H79.26a.16.16,0,0,0-.18.18v.08A1.3,1.3,0,0,1,78.7,201.26Zm.38-18.54v14.75q0,.24.21.24H84a.21.21,0,0,0,.24-.24V182.72q0-.21-.24-.21H79.29A.19.19,0,0,0,79.08,182.72Z"/><path class="cls-3" d="M104.25,192.26a1.17,1.17,0,0,1-.86.08,1.09,1.09,0,0,1-.64-.53,1.17,1.17,0,0,1-.09-.86,1.07,1.07,0,0,1,.51-.68l12.26-7.6,0,0,0,0H105.24a1.13,1.13,0,0,1-.81-.33,1.12,1.12,0,0,1,0-1.61,1.1,1.1,0,0,1,.81-.34h13.94a1.14,1.14,0,0,1,.84.34,1.21,1.21,0,0,1,.37.84,1.79,1.79,0,0,1-1,1.72l-8.36,4.83v0h0a19,19,0,0,1,3.85-.42q4,0,5.86,1.47a5.22,5.22,0,0,1,1.87,4.38,6.63,6.63,0,0,1-2.65,5.65q-2.64,2-7.57,2a11.19,11.19,0,0,1-5.7-1.16,3.67,3.67,0,0,1-1.9-3.3,3.36,3.36,0,0,1,1.58-2.79,7.49,7.49,0,0,1,4.45-1.14,7.19,7.19,0,0,1,4.32,1,3.45,3.45,0,0,1,1.31,2.92,5,5,0,0,1-.23,1.47.12.12,0,0,0,0,.13.14.14,0,0,0,.14,0,4.39,4.39,0,0,0,3.3-4.51,3.51,3.51,0,0,0-1.31-3,7.76,7.76,0,0,0-4.4-1A22.28,22.28,0,0,0,104.25,192.26Zm9.43,6.36a3.78,3.78,0,0,0,.44-1.65c0-1.31-1.11-2-3.35-2a4.41,4.41,0,0,0-2.32.51,1.43,1.43,0,0,0-.82,1.19,1.75,1.75,0,0,0,1.18,1.56,8.6,8.6,0,0,0,3.66.59h.89A.34.34,0,0,0,113.68,198.62Z"/></g></svg>