<svg id="レイヤー_1" data-name="レイヤー 1" xmlns="http://www.w3.org/2000/svg" xmlns:xlink="http://www.w3.org/1999/xlink" viewBox="0 0 159.49 59.85"><defs><style>.cls-1{fill:none;}.cls-2{clip-path:url(#clip-path);}.cls-3{fill:#003d80;}.cls-4{fill:#fafbfc;}</style><clipPath id="clip-path" transform="translate(-18.68 -10.33)"><rect id="マスクのパス" class="cls-1" x="20" y="10" width="60" height="60"/></clipPath></defs><g class="cls-2"><circle class="cls-3" cx="14.68" cy="12.97" r="12.97"/><circle class="cls-3" cx="23.7" cy="35.85" r="0.24"/><polygon class="cls-3" points="44.89 39.83 5.46 59.83 61.26 59.83 44.89 39.83"/><polygon class="cls-4" points="44.73 53.31 32.52 59.85 49.8 59.85 44.73 53.31"/><path class="cls-3" d="M76.74,50.86c-3.82,0-5.86-2.61-7.07-4.17-.9-1.16-1-1.16-1.22-1.16s-.32,0-1.22,1.16C66,48.25,64,50.86,60.15,50.86s-5.86-2.61-7.07-4.17c-.9-1.16-1-1.16-1.22-1.16s-.32,0-1.22,1.16c-1.22,1.56-3.25,4.17-7.08,4.17s-5.86-2.61-7.07-4.17c-.9-1.16-1-1.16-1.22-1.16s-.32,0-1.22,1.16c-1.22,1.56-3.25,4.17-7.08,4.17s-5.86-2.61-7.07-4.17c-.9-1.16-1-1.16-1.22-1.16V36.4c3.83,0,5.86,2.61,7.07,4.17.9,1.16,1,1.16,1.22,1.16s.32,0,1.22-1.16c1.22-1.56,3.25-4.17,7.08-4.17s5.86,2.61,7.07,4.17c.9,1.16,1,1.16,1.22,1.16s.32,0,1.22-1.16C46,39,48,36.4,51.86,36.4s5.86,2.61,7.07,4.17c.9,1.16,1,1.16,1.22,1.16s.32,0,1.22-1.16c1.22-1.56,3.25-4.17,7.08-4.17s5.86,2.61,7.07,4.17c.9,1.16,1,1.16,1.22,1.16s.33,0,1.22-1.16a9.72,9.72,0,0,1,5.29-4A1.5,1.5,0,0,1,85,38.14v7.39c-.26,0-.32,0-1.22,1.16C82.61,48.25,80.57,50.86,76.74,50.86Z" transform="translate(-18.68 -10.33)"/><line class="cls-3" x1="24.06" y1="37.35" x2="23.94" y2="38.43"/><line class="cls-3" x1="84.66" y1="28.29" x2="84.66" y2="28.41"/></g><g id="short-name"><path class="cls-3" d="M104.45,25.17a17.69,17.69,0,0,0,2.82,3.46A17.42,17.42,0,0,0,111.85,32c.65.33,1,.59,1,.8s-.24.38-.71.57a6.84,6.84,0,0,1-2.11.57,1.81,1.81,0,0,1-1.12-.43,22.5,22.5,0,0,1-3.41-3.55,23.43,23.43,0,0,1-1.87-2.77,10.82,10.82,0,0,1-2.92,4.16,13,13,0,0,1-4.06,2.46,2.06,2.06,0,0,1-.66.14.8.8,0,0,1-.71-.38.92.92,0,0,1-.15-.47.85.85,0,0,1,.38-.69c.08-.06.3-.19.64-.38a12.07,12.07,0,0,0,4.33-3.95,9.26,9.26,0,0,0,1.22-2.72l-4.74.29a1.1,1.1,0,0,1-.58-.12,1,1,0,0,1-.44-1c0-.73.3-1.12.91-1.16l5.21-.33c0-.39,0-.76,0-1.1V20l-5.65.37h-.08c-.62,0-.93-.36-.93-1.09s.3-1.14.9-1.17L110,17.2a.86.86,0,0,1,.75.28,1.29,1.29,0,0,1,.29.91q0,1-.9,1.11l-5.54.35v2.06c0,.28,0,.61,0,1l5-.31a.88.88,0,0,1,.56.12,1,1,0,0,1,.45,1c0,.76-.3,1.16-.9,1.19Z" transform="translate(-18.68 -10.33)"/><path class="cls-3" d="M117.13,27.41a.9.9,0,0,1,1,1,4.53,4.53,0,0,1-.24,1.19,12.21,12.21,0,0,1-1.19,2.62.89.89,0,0,1-.75.49.94.94,0,0,1-.43-.12.71.71,0,0,1-.36-.65,2.26,2.26,0,0,1,.15-.65,25.63,25.63,0,0,0,.86-3A.9.9,0,0,1,117.13,27.41Zm1.59-5.59c.69-.86,1.32-1.7,1.88-2.54a1.22,1.22,0,0,1,1-.64,1,1,0,0,1,.66.26.94.94,0,0,1,.37.74,1.89,1.89,0,0,1-.5,1A36.61,36.61,0,0,1,118,25a25.66,25.66,0,0,0,3-.75c-.07-.15-.16-.32-.27-.53a1,1,0,0,1-.13-.46.62.62,0,0,1,.24-.49.71.71,0,0,1,.47-.18.94.94,0,0,1,.72.39,10.52,10.52,0,0,1,1.23,1.91,1.91,1.91,0,0,1,.23.76.83.83,0,0,1-.46.78,1.27,1.27,0,0,1-.53.14.77.77,0,0,1-.73-.49s-.06-.15-.17-.46c-.44.17-.81.29-1.11.39V33.3a.7.7,0,0,1-.25.56,1.19,1.19,0,0,1-.77.26,1,1,0,0,1-.9-.44.7.7,0,0,1-.1-.38V26.56l-.31.08a13.67,13.67,0,0,1-1.95.37.72.72,0,0,1-.66-.44,1.46,1.46,0,0,1-.21-.66.77.77,0,0,1,.15-.46c0-.06.2-.23.48-.52s.86-.94,1.6-1.79c-.27-.16-.68-.37-1.24-.64s-.88-.62-.88-1a2.31,2.31,0,0,1,.66-1.25,25.58,25.58,0,0,0,2.33-3.38,1.16,1.16,0,0,1,1-.69,1,1,0,0,1,.62.21.87.87,0,0,1,.4.77,1.93,1.93,0,0,1-.39,1,19.58,19.58,0,0,1-2.49,3l.3.18Zm3,5.15a.83.83,0,0,1,.72.49,16.5,16.5,0,0,1,1,2.15,3,3,0,0,1,.23.94.87.87,0,0,1-.51.82,1,1,0,0,1-.5.13q-.77,0-1-1A19.31,19.31,0,0,0,121,28a1.63,1.63,0,0,1-.07-.38.6.6,0,0,1,.34-.55A.84.84,0,0,1,121.73,27Zm7.74-5.71v1.86l2.6-.22h.11a.84.84,0,0,1,.62.24,1,1,0,0,1,.27.73c0,.65-.28,1-.86,1l-7.45.59h-.07a.86.86,0,0,1-.7-.31,1.14,1.14,0,0,1-.21-.7.85.85,0,0,1,.87-.95l2.51-.21V21.45l-3,.25H124a.88.88,0,0,1-.63-.22.92.92,0,0,1-.3-.74c0-.68.3-1,.88-1.08l3.2-.27V17a.89.89,0,0,1,.42-.8,1.27,1.27,0,0,1,.73-.2,1.19,1.19,0,0,1,.91.35.91.91,0,0,1,.25.65V19.2l3.24-.26h.12a.81.81,0,0,1,.61.24,1.09,1.09,0,0,1,.3.81.87.87,0,0,1-.87,1ZM132.39,31a.93.93,0,0,1,.5.92.87.87,0,0,1-.88,1l-5.12.3a1,1,0,0,1-1.06.64,1,1,0,0,1-1.11-.9l-.57-5.4a.71.71,0,0,1,0-.14.84.84,0,0,1,.43-.77,1.39,1.39,0,0,1,1.63.19l4.86-.44h.34c1,0,1.44.44,1.44,1.33a3.38,3.38,0,0,1,0,.47Zm-2.19,0,.25-2.12v-.08c0-.3-.17-.44-.5-.4l-3.41.33.23,2.48Z" transform="translate(-18.68 -10.33)"/><path class="cls-3" d="M142.05,18.16a25.93,25.93,0,0,0,1.91-2,1.35,1.35,0,0,1,1.06-.52,1.83,1.83,0,0,1,.71.16.79.79,0,0,1,.54.74.86.86,0,0,1-.36.68c-.2.16-.58.42-1.11.77l4.47-.31h.26c1,0,1.54.46,1.54,1.38a2.47,2.47,0,0,1,0,.44L150.46,23a1,1,0,0,1-1.15.94,1.22,1.22,0,0,1-1-.37l-6.4.47v.72L152.05,24h.07a.69.69,0,0,1,.77.78.74.74,0,0,1-.77.84L142,26.3l0,.74,10-.6h.3A1.41,1.41,0,0,1,154,28.06a10.57,10.57,0,0,1-.67,3.33,6.85,6.85,0,0,1-1.1,2.16,2,2,0,0,1-1.63.69,3.91,3.91,0,0,1-2.11-.69.93.93,0,0,1-.54-.78.86.86,0,0,1,.05-.3.56.56,0,0,1,.58-.42.75.75,0,0,1,.24,0,3.07,3.07,0,0,0,.85.13.9.9,0,0,0,.81-.57,8.52,8.52,0,0,0,.77-2.11,5.28,5.28,0,0,0,.16-1c0-.32-.18-.48-.55-.48h-.1l-7.58.53a.85.85,0,0,1,.7.89v1.23l1.79-.18,0-.79c0-.63.37-.94,1-.94h.07a1,1,0,0,1,.89.37,1,1,0,0,1,.21.75l-.12,2.22c0,.61-.4.92-1.09.92s-1-.25-1.08-.75l-6,.69c-.24,0-.45,0-.64,0a1.36,1.36,0,0,1-1.1-.38,1.69,1.69,0,0,1-.31-1l-.07-1.54V30c0-.65.42-1,1.27-1q.93,0,1,.84l.06.89c0,.23.1.34.26.34h.16l1.38-.13V29.5a.84.84,0,0,1,.47-.82l-.36,0a1.4,1.4,0,0,1-.89.26,1.28,1.28,0,0,1-.92-.31.89.89,0,0,1-.29-.62l-.27-9.16a.93.93,0,0,1,.2-.61,1.31,1.31,0,0,1,1.05-.41,1.35,1.35,0,0,1,1,.34ZM148.49,20l0-.35a.32.32,0,0,0-.37-.36h0l-6.3.47,0,.73Zm-.22,2,.08-.72-6.48.49,0,.72Z" transform="translate(-18.68 -10.33)"/><path class="cls-3" d="M98,57.11v5.31a1,1,0,0,1-.33.76,1.48,1.48,0,0,1-1,.36A1.31,1.31,0,0,1,95.4,63a.92.92,0,0,1-.16-.55V51.14a2.14,2.14,0,0,1,2.42-2.43h3.57a7.43,7.43,0,0,1,3.44.7,4,4,0,0,1,1.27,1.07,3.82,3.82,0,0,1,.79,2.39c0,2.19-1.21,3.49-3.61,3.9L107,61.52a1.14,1.14,0,0,1,.26.73,1.11,1.11,0,0,1-.6,1,1.9,1.9,0,0,1-1,.25,1.54,1.54,0,0,1-1.3-.69l-4.07-5.73Zm0-2.19h2.82c2,0,3-.67,3-2s-1-1.95-2.9-1.95H98.37a.35.35,0,0,0-.4.4Z" transform="translate(-18.68 -10.33)"/><path class="cls-3" d="M112.41,48.71h3a8.51,8.51,0,0,1,4.63,1.2,6.13,6.13,0,0,1,2.23,2.42,7.78,7.78,0,0,1,.84,3.66,7.42,7.42,0,0,1-1.47,4.67q-2.06,2.66-6.31,2.65h-3A2,2,0,0,1,110.1,61V51A2,2,0,0,1,112.41,48.71Zm.44,2.81v9c0,.31.16.46.48.46H115a6.13,6.13,0,0,0,3.14-.67,4.6,4.6,0,0,0,2.1-4.28,5.47,5.47,0,0,0-.76-3,3.89,3.89,0,0,0-2.56-1.83,9.14,9.14,0,0,0-1.86-.16h-1.72C113,51.06,112.85,51.21,112.85,51.52Z" transform="translate(-18.68 -10.33)"/><path class="cls-3" d="M129.13,57.91v4.53a1,1,0,0,1-.2.6,1.38,1.38,0,0,1-1.18.5,1.46,1.46,0,0,1-1.08-.39,1,1,0,0,1-.29-.71V51a2,2,0,0,1,2.25-2.26H132a7.6,7.6,0,0,1,3.88.92,3.89,3.89,0,0,1,2,3.56A4.12,4.12,0,0,1,136,56.92a7.53,7.53,0,0,1-4.11,1Zm0-2.25H132A3.58,3.58,0,0,0,134.2,55a2.14,2.14,0,0,0,.79-1.77,2,2,0,0,0-1.07-1.87,3.79,3.79,0,0,0-1.87-.4h-2.48a.39.39,0,0,0-.44.44Z" transform="translate(-18.68 -10.33)"/><path class="cls-3" d="M147,48.37a6.48,6.48,0,0,1,4.54,1.57,2.31,2.31,0,0,1,1,1.59,1.18,1.18,0,0,1-.36.84,1.34,1.34,0,0,1-1,.45,1,1,0,0,1-.79-.33l-.25-.3a3.63,3.63,0,0,0-3-1.49,3.7,3.7,0,0,0-2.61,1,5.59,5.59,0,0,0-1.56,4.3,6.28,6.28,0,0,0,.92,3.47,3.72,3.72,0,0,0,3.28,1.76,4.33,4.33,0,0,0,3.51-1.83,1.08,1.08,0,0,1,.9-.42,1.37,1.37,0,0,1,1,.38,1.27,1.27,0,0,1,.43,1,1.87,1.87,0,0,1-.57,1.23,7.49,7.49,0,0,1-10.63-.25A7.84,7.84,0,0,1,140,56a7.83,7.83,0,0,1,2.07-5.68A6.56,6.56,0,0,1,147,48.37Z" transform="translate(-18.68 -10.33)"/></g><text x="-18.68" y="-10.33"/></svg>