<svg id="レイヤー_1" data-name="レイヤー 1" xmlns="http://www.w3.org/2000/svg" xmlns:xlink="http://www.w3.org/1999/xlink" viewBox="0 0 340 80"><defs><style>.cls-1{fill:none;}.cls-2{clip-path:url(#clip-path);}.cls-3{fill:#003d80;}.cls-4{fill:#fafbfc;}</style><clipPath id="clip-path"><rect id="マスクのパス" class="cls-1" x="20" y="10" width="60" height="60"/></clipPath></defs><g class="cls-2"><circle class="cls-3" cx="33.36" cy="23.3" r="12.97"/><circle class="cls-3" cx="42.38" cy="46.18" r="0.24"/><polygon class="cls-3" points="63.57 50.16 24.14 70.16 79.94 70.16 63.57 50.16"/><polygon class="cls-4" points="63.41 63.64 51.2 70.18 68.48 70.18 63.41 63.64"/><path class="cls-3" d="M76.74,50.86c-3.82,0-5.86-2.61-7.07-4.17-.9-1.16-1-1.16-1.22-1.16s-.32,0-1.22,1.16C66,48.25,64,50.86,60.15,50.86s-5.86-2.61-7.07-4.17c-.9-1.16-1-1.16-1.22-1.16s-.32,0-1.22,1.16c-1.22,1.56-3.25,4.17-7.08,4.17s-5.86-2.61-7.07-4.17c-.9-1.16-1-1.16-1.22-1.16s-.32,0-1.22,1.16c-1.22,1.56-3.25,4.17-7.08,4.17s-5.86-2.61-7.07-4.17c-.9-1.16-1-1.16-1.22-1.16V36.4c3.83,0,5.86,2.61,7.07,4.17.9,1.16,1,1.16,1.22,1.16s.32,0,1.22-1.16c1.22-1.56,3.25-4.17,7.08-4.17s5.86,2.61,7.07,4.17c.9,1.16,1,1.16,1.22,1.16s.32,0,1.22-1.16C46,39,48,36.4,51.86,36.4s5.86,2.61,7.07,4.17c.9,1.16,1,1.16,1.22,1.16s.32,0,1.22-1.16c1.22-1.56,3.25-4.17,7.08-4.17s5.86,2.61,7.07,4.17c.9,1.16,1,1.16,1.22,1.16s.33,0,1.22-1.16a9.72,9.72,0,0,1,5.29-4A1.5,1.5,0,0,1,85,38.14v7.39c-.26,0-.32,0-1.22,1.16C82.61,48.25,80.57,50.86,76.74,50.86Z"/><line class="cls-3" x1="42.74" y1="47.68" x2="42.62" y2="48.76"/></g><g id="名称"><path class="cls-3" d="M107.58,25.43a18.66,18.66,0,0,0,3,3.64,18.39,18.39,0,0,0,4.81,3.51q1,.51,1,.84c0,.2-.25.4-.74.59a7.2,7.2,0,0,1-2.22.6,1.87,1.87,0,0,1-1.17-.45,23.39,23.39,0,0,1-3.59-3.72,27.44,27.44,0,0,1-2-2.92,11.34,11.34,0,0,1-3.06,4.37,13.51,13.51,0,0,1-4.27,2.59,2.17,2.17,0,0,1-.68.14.81.81,0,0,1-.75-.4,1,1,0,0,1-.16-.49.89.89,0,0,1,.39-.72,7.68,7.68,0,0,1,.68-.4,12.65,12.65,0,0,0,4.54-4.15,9.63,9.63,0,0,0,1.28-2.85l-5,.29a1,1,0,0,1-.6-.12,1.07,1.07,0,0,1-.48-1c0-.78.33-1.18,1-1.22l5.46-.35c0-.41,0-.8,0-1.15V20l-5.92.39h-.08c-.66,0-1-.39-1-1.15s.32-1.19,1-1.23l14.32-1a.92.92,0,0,1,.79.3,1.42,1.42,0,0,1,.31,1c0,.73-.32,1.12-1,1.16l-5.81.37V22q0,.43,0,1l5.3-.33a1,1,0,0,1,.59.13,1.08,1.08,0,0,1,.48,1c0,.8-.32,1.22-1,1.25Z"/><path class="cls-3" d="M120.46,27.79a.94.94,0,0,1,1.08,1.06,4.71,4.71,0,0,1-.25,1.25A13,13,0,0,1,120,32.85a.92.92,0,0,1-.78.52.94.94,0,0,1-.45-.14.73.73,0,0,1-.38-.67,2.64,2.64,0,0,1,.16-.69,26.75,26.75,0,0,0,.9-3.19A1,1,0,0,1,120.46,27.79Zm1.68-5.88c.72-.89,1.38-1.78,2-2.66a1.25,1.25,0,0,1,1-.67,1,1,0,0,1,.7.27,1,1,0,0,1,.39.78,2,2,0,0,1-.54,1.1,39.38,39.38,0,0,1-4.25,4.55,29.36,29.36,0,0,0,3.16-.79c-.08-.15-.17-.34-.29-.56a1,1,0,0,1-.13-.48.65.65,0,0,1,.24-.51.75.75,0,0,1,.51-.19.93.93,0,0,1,.74.41,10.29,10.29,0,0,1,1.3,2,1.9,1.9,0,0,1,.24.79.85.85,0,0,1-.48.81,1.17,1.17,0,0,1-.56.16.79.79,0,0,1-.76-.51,4.15,4.15,0,0,1-.19-.49c-.46.17-.84.31-1.16.4V34a.76.76,0,0,1-.26.59,1.24,1.24,0,0,1-.81.27,1,1,0,0,1-1-.46.85.85,0,0,1-.1-.4V26.9l-.33.08a14.79,14.79,0,0,1-2,.39.74.74,0,0,1-.68-.46,1.46,1.46,0,0,1-.23-.7.75.75,0,0,1,.16-.48,6.63,6.63,0,0,1,.51-.54c.34-.37.9-1,1.68-1.88-.29-.17-.72-.4-1.3-.68s-.93-.65-.93-1.05a2.41,2.41,0,0,1,.69-1.32,27.21,27.21,0,0,0,2.45-3.55,1.22,1.22,0,0,1,1-.72,1.1,1.1,0,0,1,.65.21A.92.92,0,0,1,124,17a2,2,0,0,1-.41,1.06A21.32,21.32,0,0,1,121,21.22l.31.18Zm3.15,5.42a.85.85,0,0,1,.76.51,15.75,15.75,0,0,1,1,2.26,3.13,3.13,0,0,1,.24,1,.89.89,0,0,1-.53.86,1,1,0,0,1-.52.15q-.81,0-1-1.05a20.21,20.21,0,0,0-.64-2.61,1.41,1.41,0,0,1-.08-.4.62.62,0,0,1,.36-.58A.9.9,0,0,1,125.29,27.33Zm8.14-6v2l2.72-.23h.13a.87.87,0,0,1,.64.26,1,1,0,0,1,.29.76q0,1-.9,1.08l-7.83.62h-.07a.88.88,0,0,1-.74-.33,1.13,1.13,0,0,1-.22-.73.89.89,0,0,1,.91-1l2.65-.22v-2l-3.19.27h-.13a1,1,0,0,1-.66-.22,1,1,0,0,1-.31-.78c0-.71.31-1.09.92-1.14l3.37-.28V16.88a.92.92,0,0,1,.44-.84,1.38,1.38,0,0,1,.76-.22,1.26,1.26,0,0,1,.95.37.93.93,0,0,1,.27.69v2.29l3.4-.28H137a.86.86,0,0,1,.65.26,1.15,1.15,0,0,1,.31.85.91.91,0,0,1-.92,1Zm3.06,10.26a1,1,0,0,1,.52,1,.9.9,0,0,1-.92,1l-5.37.32a1,1,0,0,1-1.12.67,1,1,0,0,1-1.16-.94l-.6-5.68a.71.71,0,0,1,0-.14.91.91,0,0,1,.45-.81,1.33,1.33,0,0,1,.7-.18,1.25,1.25,0,0,1,1,.38l5.11-.47h.36q1.5,0,1.5,1.41a3.68,3.68,0,0,1,0,.49Zm-2.3.06.26-2.24v-.08c0-.32-.17-.46-.52-.42l-3.58.35.25,2.6Z"/><path class="cls-3" d="M145.79,18.08a26.6,26.6,0,0,0,2-2.12,1.37,1.37,0,0,1,1.11-.55,1.86,1.86,0,0,1,.75.17.81.81,0,0,1,.57.78.87.87,0,0,1-.38.7q-.33.27-1.17.81l4.7-.32h.27c1.08,0,1.62.48,1.62,1.45a4.3,4.3,0,0,1,0,.46l-.6,3.66a1.08,1.08,0,0,1-1.21,1,1.24,1.24,0,0,1-1-.39l-6.72.5V25l10.61-.72h.08a.72.72,0,0,1,.8.82.77.77,0,0,1-.8.88l-10.64.68,0,.78,10.5-.64h.32a1.83,1.83,0,0,1,1.38.44,1.77,1.77,0,0,1,.38,1.28,10.88,10.88,0,0,1-.71,3.49,7.22,7.22,0,0,1-1.14,2.28,2.14,2.14,0,0,1-1.72.72,4.1,4.1,0,0,1-2.21-.72A.88.88,0,0,1,152,33.1a.58.58,0,0,1,.6-.44.87.87,0,0,1,.26,0,3,3,0,0,0,.89.13.94.94,0,0,0,.85-.59,8.79,8.79,0,0,0,.8-2.21,5.58,5.58,0,0,0,.18-1c0-.34-.2-.51-.58-.51h-.11l-8,.56a.9.9,0,0,1,.74.93v1.3l1.88-.2,0-.83c0-.66.39-1,1.08-1h.08a1.12,1.12,0,0,1,.93.39,1.09,1.09,0,0,1,.21.79l-.12,2.32c0,.65-.42,1-1.15,1s-1.05-.26-1.13-.78l-6.31.72c-.25,0-.47,0-.67,0a1.46,1.46,0,0,1-1.16-.4,1.84,1.84,0,0,1-.32-1L141,30.65v-.11c0-.69.45-1,1.34-1,.65,0,1,.3,1,.88l.06.94c0,.24.11.36.28.36h.16l1.45-.15V30a.89.89,0,0,1,.49-.86l-.37,0a1.48,1.48,0,0,1-.94.28,1.33,1.33,0,0,1-1-.33.89.89,0,0,1-.3-.65l-.29-9.62a1,1,0,0,1,.21-.64,1.65,1.65,0,0,1,2.14-.07Zm6.77,2,0-.37a.34.34,0,0,0-.39-.38h-.05l-6.61.5,0,.76Zm-.24,2.11.09-.76-6.8.51,0,.76Z"/><path class="cls-3" d="M169.5,23V19.69a.88.88,0,0,1,.5-.83,1.4,1.4,0,0,1,.7-.18,1.17,1.17,0,0,1,.92.38.92.92,0,0,1,.23.63v2.56l1.47-.49v-4.7a.88.88,0,0,1,.46-.79,1.43,1.43,0,0,1,.69-.19,1.23,1.23,0,0,1,.83.29.84.84,0,0,1,.33.69v4l2-.67a3.06,3.06,0,0,1,.93-.17c1,0,1.55.69,1.55,2.06a19.82,19.82,0,0,1-.58,4.85c-.34,1.36-.92,2-1.77,2a2.86,2.86,0,0,1-1.09-.29,5.67,5.67,0,0,1-1.08-.67V29a.89.89,0,0,1-.25.64,1.18,1.18,0,0,1-.91.35,1.09,1.09,0,0,1-1-.51.86.86,0,0,1-.13-.48V24.17l-1.47.51v5.95a1.47,1.47,0,0,0,.2.9,1.09,1.09,0,0,0,.75.29c.42,0,1,.06,1.84.06a10.51,10.51,0,0,0,3.57-.38.89.89,0,0,0,.54-.57,2.76,2.76,0,0,0,.1-.63,5.28,5.28,0,0,1,.09-.73.65.65,0,0,1,.67-.5c.4,0,.71.28.91.82a5.76,5.76,0,0,1,.34,2.07,1.8,1.8,0,0,1-1.46,1.82,19.43,19.43,0,0,1-5,.44,15.2,15.2,0,0,1-3.07-.21,2.06,2.06,0,0,1-1.65-1.27,4.17,4.17,0,0,1-.19-1.41V25.5l-.3.12a1.56,1.56,0,0,1-.5.09.88.88,0,0,1-.83-.5,1.63,1.63,0,0,1-.2-.76,1.12,1.12,0,0,1,.28-.77,1.27,1.27,0,0,1-.28.06l-1.23.16v4.52l.56-.27a2.86,2.86,0,0,1,1.09-.35.9.9,0,0,1,.8.43,1,1,0,0,1,.19.58,1.19,1.19,0,0,1-.63,1,31.61,31.61,0,0,1-4.71,2.59,3,3,0,0,1-1.09.34,1.12,1.12,0,0,1-1-.58,1.68,1.68,0,0,1-.24-.84,1.1,1.1,0,0,1,.58-1,3.81,3.81,0,0,1,.73-.28l1.3-.52V24.23l-1.4.19h-.16a.92.92,0,0,1-.94-.76,1.86,1.86,0,0,1-.07-.54,1,1,0,0,1,.89-1.07l1.68-.23V18a.88.88,0,0,1,.52-.85,1.4,1.4,0,0,1,.7-.18,1.33,1.33,0,0,1,1,.35.94.94,0,0,1,.26.68V21.5l1-.13h.17a.84.84,0,0,1,.68.31,1.45,1.45,0,0,1,.29.94,1.2,1.2,0,0,1-.26.8l.12-.05Zm6.13.34v3.49h.1a1.18,1.18,0,0,1,.37.07,2.27,2.27,0,0,0,.59.11.67.67,0,0,0,.65-.49,6.49,6.49,0,0,0,.2-.76,12.59,12.59,0,0,0,.27-2.48c0-.32-.14-.48-.44-.48a1.18,1.18,0,0,0-.38.07Z"/><path class="cls-3" d="M188.25,23.11v4.63l.24-.13a2.6,2.6,0,0,1,1.06-.39.75.75,0,0,1,.63.31.86.86,0,0,1,.2.57,1.17,1.17,0,0,1-.53.92,35.57,35.57,0,0,1-4.19,2.55,2.17,2.17,0,0,1-1,.34.91.91,0,0,1-.81-.45,1.5,1.5,0,0,1-.25-.84,1,1,0,0,1,.54-.94,5.27,5.27,0,0,1,.53-.23c.4-.16.82-.34,1.26-.55V23.42l-1.15.16h-.15a.88.88,0,0,1-.84-.55,1.39,1.39,0,0,1-.13-.63.94.94,0,0,1,.87-1.08l1.4-.18V17.32a.88.88,0,0,1,.5-.83,1.38,1.38,0,0,1,.67-.16,1.31,1.31,0,0,1,.83.27.91.91,0,0,1,.33.72v3.54l.59-.08H189c.66,0,1,.39,1,1.17a.92.92,0,0,1-.86,1.06Zm7.7,6a.77.77,0,0,1,.73.43.82.82,0,0,1,.11.41c0,.41-.29.73-.87,1a42,42,0,0,1-4.08,1.37,9,9,0,0,1-1.52.37.91.91,0,0,1-.94-.71,1.59,1.59,0,0,1-.08-.53.87.87,0,0,1,.56-.85,4.61,4.61,0,0,1,.71-.2c2-.44,3.54-.81,4.52-1.09A3.69,3.69,0,0,1,196,29.09Zm3.46-2.95c.29-.67.53-1.26.71-1.77a1.11,1.11,0,0,1,1.06-.9,1.27,1.27,0,0,1,.56.13,1,1,0,0,1,.66,1q0,.9-2.14,4.35l-.08.13a11.43,11.43,0,0,0,.92,2.36c.18.3.31.45.38.45s.11-.11.16-.34a8.62,8.62,0,0,0,.19-1.75c0-.63.27-.94.74-.94s.61.23.7.68a12.77,12.77,0,0,1,.09,2,8.53,8.53,0,0,1-.2,2.28,1.35,1.35,0,0,1-1.31,1.08,2.39,2.39,0,0,1-1.8-1.15,12.75,12.75,0,0,1-1.34-2.59,16.54,16.54,0,0,1-2.2,2.36,1.51,1.51,0,0,1-.91.45.78.78,0,0,1-.58-.26.84.84,0,0,1-.27-.58,1.68,1.68,0,0,1,.61-1,23.11,23.11,0,0,0,2.55-3.29,48.77,48.77,0,0,1-1.47-7.1l-5.31.52H191c-.59,0-.88-.32-.88-1s.28-1.07.84-1.13l5.23-.51c-.17-1.72-.26-2.77-.26-3.13a.84.84,0,0,1,.62-.86,1.62,1.62,0,0,1,.56-.1,1,1,0,0,1,1,.68,5.92,5.92,0,0,1,.1,1c0,.57.08,1.3.17,2.18l3.24-.31h.1a.84.84,0,0,1,.61.24,1.1,1.1,0,0,1,.28.79c0,.66-.29,1-.86,1.08l-3.13.31C198.83,23.15,199.09,24.68,199.41,26.14Zm-6.54,2.48c-.09.47-.42.71-1,.71s-1-.29-1.07-.86l-.42-4.27a.58.58,0,0,0,0-.1.78.78,0,0,1,.51-.79,1.36,1.36,0,0,1,.61-.13,1,1,0,0,1,.88.34l2.34-.28a2.36,2.36,0,0,1,.4,0c.85,0,1.27.38,1.27,1.15a1.93,1.93,0,0,1,0,.25l-.24,2.1a.86.86,0,0,1,.3.69c0,.51-.28.8-.86.87Zm-.12-1.72,1.36-.17.11-1.33c0-.22-.11-.34-.34-.34h0l-1.21.15Zm6.76-11.1a3.35,3.35,0,0,1,1.73.84,5.62,5.62,0,0,1,.61.5,1.09,1.09,0,0,1,.36.78A1.16,1.16,0,0,1,201.09,19a1,1,0,0,1-.89-.54,10,10,0,0,0-1.11-1.34,1,1,0,0,1-.32-.63.74.74,0,0,1,.74-.7Z"/><path class="cls-3" d="M211.22,22.15V24.6l.74-.33a1.69,1.69,0,0,1,.7-.18.85.85,0,0,1,.7.34.87.87,0,0,1,.19.54,1,1,0,0,1-.52.82,15.18,15.18,0,0,1-1.68.94l-.13.07V33c0,1.16-.49,1.74-1.48,1.74a5.41,5.41,0,0,1-2.53-.88c-.46-.26-.69-.55-.69-.86s.26-.68.78-.68a1.35,1.35,0,0,1,.33,0,4.21,4.21,0,0,0,.79.14c.33,0,.49-.19.49-.57V27.83a4.91,4.91,0,0,1-1.49.46,1,1,0,0,1-1-.6,1.36,1.36,0,0,1-.13-.58,1,1,0,0,1,.62-1l.62-.22,1.36-.45v-3l-1.32.17h-.15c-.65,0-1-.42-1-1.26a.88.88,0,0,1,.85-1l1.6-.21V16.88a.91.91,0,0,1,.55-.88,1.39,1.39,0,0,1,.6-.14,1.18,1.18,0,0,1,.93.38,1,1,0,0,1,.23.64v3l.9-.11h.13c.66,0,1,.39,1,1.18a1,1,0,0,1-.86,1.08Zm5.19-2.66a48.91,48.91,0,0,1-.35,5.19.88.88,0,0,1,.62-.3l7.69-.72a.85.85,0,0,1,.79.31,1.2,1.2,0,0,1,.26.78.86.86,0,0,1-.86,1l-5.73.49v6a11.75,11.75,0,0,0,1.26-.66,1.16,1.16,0,0,1,.55-.17.62.62,0,0,1,.55.29.91.91,0,0,1,.15.49,1.09,1.09,0,0,1-.44.77,13.53,13.53,0,0,1-2.36,1.7,1.45,1.45,0,0,1-.66.22,1.41,1.41,0,0,1-.85-.44,1.05,1.05,0,0,1-.33-.52,6,6,0,0,1,0-.78V26.4a.82.82,0,0,1-.74-.6,23.87,23.87,0,0,1-1.68,6.33,8,8,0,0,1-.64,1.22,1,1,0,0,1-.84.49.93.93,0,0,1-.52-.16.84.84,0,0,1-.42-.74,2.69,2.69,0,0,1,.26-.82,22.86,22.86,0,0,0,1.62-6.52c.18-1.55.3-3.54.38-6a1,1,0,0,1-.63-1.06c0-.66.3-1,.91-1.07l9.38-.85h.12a.87.87,0,0,1,.88.66,1.24,1.24,0,0,1,.1.5.95.95,0,0,1-.87,1Zm6.43,2.89-4.73.42H218a.87.87,0,0,1-.7-.33,1,1,0,0,1-.24-.68.87.87,0,0,1,.86-1l4.7-.47h.1a.93.93,0,0,1,.73.31,1,1,0,0,1,.25.68,1,1,0,0,1-.41.88A.88.88,0,0,1,222.84,22.38ZM223,30a17.2,17.2,0,0,0,2.77,2.65c.39.29.58.51.58.67s-.15.24-.46.36a5.53,5.53,0,0,1-1.67.45,1.21,1.21,0,0,1-.9-.49,22.33,22.33,0,0,1-3.48-5.33,3.61,3.61,0,0,1-.37-1.12.65.65,0,0,1,.35-.59,1,1,0,0,1,.5-.16.78.78,0,0,1,.63.34,5.1,5.1,0,0,1,.44.81,8.64,8.64,0,0,0,.6,1A16.86,16.86,0,0,0,223.4,27a1,1,0,0,1,.84-.5,1.18,1.18,0,0,1,.81.35,1.09,1.09,0,0,1,.43.83,1.18,1.18,0,0,1-.46.87A18.67,18.67,0,0,1,223,30Z"/><path class="cls-3" d="M241.86,27.83l1.95-.09.13-1.73-.77.09h-.12q-.78,0-.78-.84c0-.6.26-.93.8-1l1-.09.1-1.5-.91.1h-.13a.78.78,0,0,1-.55-.22.85.85,0,0,1-.23-.62c0-.59.26-.9.78-1l1.18-.12.08-1.14c0-.27-.1-.41-.29-.42H244l-.73.08h-.11a.72.72,0,0,1-.55-.24,1,1,0,0,1-.22-.67c0-.62.26-1,.79-1l1.74-.15h.19c.89,0,1.34.49,1.34,1.48,0,0,0,.12,0,.23l-.64,8.58,1.33-.08q1,0,1,1c0,.66-.3,1-.9,1l-17.65.91h-.09c-.59,0-.89-.33-.89-1s.3-1,.9-1l1.34-.07-.88-9v-.11a.91.91,0,0,1,.45-.84,1.19,1.19,0,0,1,1.19,0c.36-.29.69-.57,1-.83a1,1,0,0,1,.69-.32.92.92,0,0,1,.94.68l0-.72c0-.51.29-.77.91-.77a.83.83,0,0,1,.79.42l4.35-.51a2.62,2.62,0,0,1,.38,0c1,0,1.45.51,1.44,1.53Zm-6.65,2.64a1.26,1.26,0,0,1,1,.42,1.16,1.16,0,0,1,.31.82,1.2,1.2,0,0,1-.51,1,14.17,14.17,0,0,1-3.4,1.81,5.38,5.38,0,0,1-1.56.44,1,1,0,0,1-.82-.37,1,1,0,0,1-.2-.6c0-.37.31-.72.92-1a23.22,23.22,0,0,0,3.28-2.08A1.57,1.57,0,0,1,235.21,30.47Zm-.58-2.27-.41-9.66a1.12,1.12,0,0,1-.45.63c-.37.23-.93.53-1.69.91l.13,1.27.92-.15h.13a.7.7,0,0,1,.69.44,1.19,1.19,0,0,1,.11.54.82.82,0,0,1-.8.88l-.88.14.13,1.42.81-.11h.15c.5,0,.76.28.76.85a.84.84,0,0,1-.8.94l-.74.1.18,1.91Zm1.76-.08,3.72-.2.13-9.18c0-.26-.13-.39-.34-.4h-.11l-3.77.44Zm2.77-7.07-2,.24H237c-.48,0-.71-.29-.71-.86s.24-.69.74-.74l2-.24h.12a.67.67,0,0,1,.74.77A.75.75,0,0,1,239.16,21.05Zm.5,4.35a.81.81,0,0,1,.24.6.71.71,0,0,1-.74.79l-1.18.09a.52.52,0,0,1-.52.37.56.56,0,0,1-.61-.61l-.23-3.86V22.7a.5.5,0,0,1,.57-.57.67.67,0,0,1,.41.13l1.26-.15.2,0c.5,0,.73.28.71.83Zm-1.13-.1.07-1.39v-.06c0-.15-.09-.21-.26-.19l-.49.07.09,1.62Zm2.75,5a2.47,2.47,0,0,1,.92.22A21.38,21.38,0,0,1,246,32.4a1.4,1.4,0,0,1,.73,1.18,1.25,1.25,0,0,1-.45,1,1.43,1.43,0,0,1-.94.34,2.14,2.14,0,0,1-1.25-.58c-.57-.46-1.61-1.18-3.13-2.18a1.16,1.16,0,0,1-.63-.93,1,1,0,0,1,.19-.56A.88.88,0,0,1,241.28,30.27Z"/><path class="cls-3" d="M110.58,49.85a2.12,2.12,0,0,1,1.59.61,1.86,1.86,0,0,1,.53,1.38,8.82,8.82,0,0,1-.3,1.82,19.21,19.21,0,0,1-.69,2.23,15.38,15.38,0,0,1-6.41,7.7,6.08,6.08,0,0,1-2.55,1.09.85.85,0,0,1-.76-.4,1.17,1.17,0,0,1-.19-.59,1.14,1.14,0,0,1,.71-1,15.1,15.1,0,0,0,4.91-4.48A14.9,14.9,0,0,0,109.76,53a2.06,2.06,0,0,0,0-.35c0-.17-.09-.25-.29-.25l-.56,0c-.39,0-2.15.16-5.29.37-1.16.08-2.44.18-3.82.3l-.3,0a1.14,1.14,0,0,1-1.28-1.31,1.07,1.07,0,0,1,1-1.18c.29-.06,3.36-.27,9.19-.62l1.35-.09Zm4-3.91a2.38,2.38,0,0,1,2.35,2.35,2.29,2.29,0,0,1-.63,1.59,2.24,2.24,0,0,1-1.73.77,2.32,2.32,0,0,1-.93-.2,2.4,2.4,0,0,1-1.42-2.16,2.23,2.23,0,0,1,1.07-2A2.28,2.28,0,0,1,114.53,45.94Zm0,1.24a1.12,1.12,0,0,0-.59.18,1.1,1.1,0,0,0-.24,1.67,1.11,1.11,0,0,0,2-.73,1.09,1.09,0,0,0-.4-.86A1.14,1.14,0,0,0,114.52,47.18Z"/><path class="cls-3" d="M120.89,50.93l.69-.07c6-.45,9.26-.67,9.72-.67a2.1,2.1,0,0,1,1.53.6,1.92,1.92,0,0,1,.58,1.44c0,.39-.39,2.61-1.15,6.64l-.1.51a1.21,1.21,0,0,1,.69,1.24,1,1,0,0,1-.93,1.12,4.62,4.62,0,0,1-.89,0q-5.34,0-8.66.3a1.25,1.25,0,0,1-1.36.87,1.05,1.05,0,0,1-1.07-.8,7.67,7.67,0,0,1-.15-1.07q-.21-1.86-1-7.54-.24-1.62-.24-1.77a1.11,1.11,0,0,1,.72-1.13,1.71,1.71,0,0,1,.71-.15A1.14,1.14,0,0,1,120.89,50.93Zm8.84,8.41q.48-2.93.92-6.05a1.78,1.78,0,0,0,0-.28c0-.24-.14-.35-.41-.35-.42,0-2.65.16-6.67.48l-2.25.17c.27,2.46.54,4.6.79,6.43l.67,0Q127.27,59.45,129.73,59.34Z"/><path class="cls-3" d="M137.82,53.14a6.13,6.13,0,0,1,1.87.45,9.6,9.6,0,0,1,2.4,1.23,1.45,1.45,0,0,1,.67,1.2,1.31,1.31,0,0,1-.31.84,1.22,1.22,0,0,1-1,.54,1.74,1.74,0,0,1-1-.48,21.89,21.89,0,0,0-3-2,1,1,0,0,1-.61-.88,1,1,0,0,1,.14-.48A.93.93,0,0,1,137.82,53.14Zm14.57-.68a1.14,1.14,0,0,1,.58.17,1,1,0,0,1,.52.88,5.53,5.53,0,0,1-1,2.18,18.53,18.53,0,0,1-4.32,4.87,23.24,23.24,0,0,1-7.26,4,2.3,2.3,0,0,1-.76.16A1.26,1.26,0,0,1,139,64a1.48,1.48,0,0,1-.19-.71,1.25,1.25,0,0,1,.71-1.15l1.33-.48a20.92,20.92,0,0,0,6.21-3.45,16.62,16.62,0,0,0,4.27-4.95A1.26,1.26,0,0,1,152.39,52.46Zm-12.09-4a7.38,7.38,0,0,1,3.11,1.33,8,8,0,0,1,1,.65,1.45,1.45,0,0,1,.6,1.14,1.28,1.28,0,0,1-.31.81,1.38,1.38,0,0,1-1.08.56,1.56,1.56,0,0,1-1.08-.57,20.48,20.48,0,0,0-2.67-2.21,1.1,1.1,0,0,1-.54-.85.85.85,0,0,1,.15-.48A1,1,0,0,1,140.3,48.5Zm9.52-.59c.38,0,1,.38,1.83,1.15s1.08,1.16,1.08,1.55a.87.87,0,0,1-.35.68.93.93,0,0,1-.63.23A1,1,0,0,1,151,51a10.88,10.88,0,0,0-1.45-1.88.89.89,0,0,1-.29-.61A.53.53,0,0,1,149.82,47.91ZM152,46.36a3.35,3.35,0,0,1,1.77,1c.72.6,1.08,1.11,1.08,1.52a.81.81,0,0,1-.34.71.88.88,0,0,1-.55.19.93.93,0,0,1-.78-.52,11,11,0,0,0-1.47-1.71.89.89,0,0,1-.33-.61.53.53,0,0,1,.17-.38A.58.58,0,0,1,152,46.36Z"/><path class="cls-3" d="M162.45,55.84h-.19c-1.45.09-2.29.13-2.53.13a1,1,0,0,1-1.15-1.12.93.93,0,0,1,.77-1,5.2,5.2,0,0,1,.86-.08q4.31-.26,6.8-.64l.26,0a1,1,0,0,1,1,.73,1.46,1.46,0,0,1,.05.38,1,1,0,0,1-1,1.06c-.62.09-1.48.18-2.58.29V60l.39,0,2.68-.14,2.22-.13a1.1,1.1,0,0,1,.8.3,1.07,1.07,0,0,1,.32.81,1,1,0,0,1-.62,1,5.63,5.63,0,0,1-1.22.11c-1.42,0-4.6.25-9.54.58l-2.28.16a1,1,0,0,1-1-.56,1.34,1.34,0,0,1-.13-.58,1,1,0,0,1,.75-1c.13,0,1.38-.14,3.75-.31l1.15-.07.4,0Z"/><path class="cls-3" d="M182.94,49.11l3.7-.14c1.36-.06,2,.5,2,1.66a9.57,9.57,0,0,1-.83,3.16A19.8,19.8,0,0,1,180.31,63c-1.68,1.12-2.83,1.69-3.46,1.69a.92.92,0,0,1-.79-.43,1.05,1.05,0,0,1-.18-.56,1,1,0,0,1,.46-.78c.09-.07.36-.23.81-.49a20,20,0,0,0,4.43-3.54,16.72,16.72,0,0,0,3.81-6.12,6.2,6.2,0,0,0,.37-1.29c0-.16-.1-.24-.31-.23h0l-3.53.2a18.93,18.93,0,0,1-4.5,4.39,1.85,1.85,0,0,1-1,.38.79.79,0,0,1-.63-.29.94.94,0,0,1-.21-.57,1.08,1.08,0,0,1,.34-.77,6.31,6.31,0,0,1,.59-.55,16.57,16.57,0,0,0,2.95-3.56A14.37,14.37,0,0,0,180.3,49a1.33,1.33,0,0,1,1.27-.87,1.53,1.53,0,0,1,.64.13A1.22,1.22,0,0,1,182.94,49.11Z"/><path class="cls-3" d="M197.76,55.94v8a1.07,1.07,0,0,1-.37.88,1.36,1.36,0,0,1-.92.3c-.87,0-1.31-.4-1.31-1.18V48.65c0-.78.44-1.17,1.31-1.17a1.19,1.19,0,0,1,1.16.58,1.28,1.28,0,0,1,.13.59v5a19.49,19.49,0,0,1,5.69,2.3,1.65,1.65,0,0,1,.9,1.41,1.33,1.33,0,0,1-.37.93,1.26,1.26,0,0,1-1,.42,2.36,2.36,0,0,1-1.22-.5A32.45,32.45,0,0,0,197.76,55.94Z"/><path class="cls-3" d="M218.47,49.15l6.3-.41h.15c.9,0,1.35.35,1.35,1.06a5.19,5.19,0,0,1-1.09,2.34,6.35,6.35,0,0,1-.7.91,1,1,0,0,1-.74.35.92.92,0,0,1-.48-.14.68.68,0,0,1-.38-.6,1.17,1.17,0,0,1,.17-.55,3.3,3.3,0,0,0,.44-1.14c0-.15-.11-.23-.35-.23h-.09l-11.9.82a10.89,10.89,0,0,1-.25,1.7,1.17,1.17,0,0,1-1.16,1,1.52,1.52,0,0,1-.59-.12,1,1,0,0,1-.73-1.08,1.47,1.47,0,0,1,.16-.64,11.29,11.29,0,0,0,.75-2.44c.14-.63.43-.94.88-.94a.9.9,0,0,1,.95.6l4.68-.3V47.62a.91.91,0,0,1,.57-.86,1.78,1.78,0,0,1,.78-.16,1.39,1.39,0,0,1,1,.35.9.9,0,0,1,.28.67Zm-.75,12a9.31,9.31,0,0,1-3.48,3.2,13.36,13.36,0,0,1-3.75,1.41,1.79,1.79,0,0,1-.41,0,.73.73,0,0,1-.72-.45,1,1,0,0,1-.09-.41.72.72,0,0,1,.39-.62,3.21,3.21,0,0,1,.6-.26q3.75-1.31,5.08-3.57l-5.21.28a.94.94,0,0,1-.34,0,.83.83,0,0,1-.56-.89,1,1,0,0,1,.42-.87.94.94,0,0,1,.44-.13l5.92-.33c0-.09,0-.17,0-.22v-.86l-3.84.2-.55,0a.74.74,0,0,1-.55-.22.92.92,0,0,1-.21-.63.79.79,0,0,1,.67-.87l.17,0,4.31-.25v-1l-3.14.2-.56,0a.73.73,0,0,1-.64-.33.88.88,0,0,1-.17-.53.87.87,0,0,1,.57-.89,1.33,1.33,0,0,1,.3-.06l3.64-.24v-.58a.92.92,0,0,1,.55-.89,1.48,1.48,0,0,1,.7-.17,1.27,1.27,0,0,1,1,.42,1,1,0,0,1,.22.64v.42l3.24-.21h.07a.81.81,0,0,1,.71.34,1,1,0,0,1,.14.52.82.82,0,0,1-.84.94l-3.32.21v1l4.35-.26H223a.75.75,0,0,1,.84.85c0,.6-.27.91-.82,1l-4.45.23v1.09l6.3-.34a1,1,0,0,1,.64.2.86.86,0,0,1,.31.76q0,.95-.84,1l-5.78.31a18.49,18.49,0,0,0,6.68,3.9c.54.18.81.39.81.64s-.2.36-.59.46a11.23,11.23,0,0,1-2.52.5c-.75,0-1.84-.67-3.28-2A24,24,0,0,1,217.72,61.14Z"/><path class="cls-3" d="M232.46,58c-.51.41-1,.75-1.36,1a1.72,1.72,0,0,1-.92.33.94.94,0,0,1-.72-.33.87.87,0,0,1-.25-.61,1,1,0,0,1,.27-.66c.06-.07.25-.25.55-.53a30.19,30.19,0,0,0,4.07-4.66,1.65,1.65,0,0,1,1.26-.82,1.26,1.26,0,0,1,.72.23,1.12,1.12,0,0,1,.52,1,1.73,1.73,0,0,1-.31.94,21.19,21.19,0,0,1-1.35,1.74V64.3a1,1,0,0,1-.24.69,1.22,1.22,0,0,1-1,.4,1.14,1.14,0,0,1-1.15-.63,1.13,1.13,0,0,1-.11-.48Zm2.69-10.58a1.12,1.12,0,0,1,.88.4,1.15,1.15,0,0,1,.31.8,1.49,1.49,0,0,1-.48,1,16.42,16.42,0,0,1-3.77,2.74,4.73,4.73,0,0,1-1.69.71.84.84,0,0,1-.74-.4,1,1,0,0,1-.16-.51,1,1,0,0,1,.28-.65,4,4,0,0,1,.64-.49,24,24,0,0,0,3.65-3.12A1.53,1.53,0,0,1,235.15,47.37Zm9.41,8.23v8c0,1.35-.6,2-1.79,2a8,8,0,0,1-2.65-.61,9.11,9.11,0,0,1-1.16-.51,1,1,0,0,1-.6-.84.72.72,0,0,1,.81-.82,3,3,0,0,1,.56.08,7.31,7.31,0,0,0,1.62.2c.45,0,.67-.25.67-.75v-6.6l-4.15.25a1,1,0,0,1-.82-.29,1.3,1.3,0,0,1-.35-1,1.08,1.08,0,0,1,.52-1,1,1,0,0,1,.49-.14l9.56-.57h.07a1,1,0,0,1,.7.25,1.36,1.36,0,0,1,.37,1,1.1,1.1,0,0,1-.5,1,1.08,1.08,0,0,1-.47.15Zm1.35-5.19-7,.54h-.08a1,1,0,0,1-.7-.27,1.22,1.22,0,0,1-.34-.9c0-.76.33-1.16,1-1.21l6.95-.51a1.11,1.11,0,0,1,.54.1,1,1,0,0,1,.6,1.05C246.87,50,246.55,50.37,245.91,50.41Z"/><path class="cls-3" d="M262.36,57.43a1.12,1.12,0,0,1,1.15-.81,1.07,1.07,0,0,1,1.13.69l3.54-.17c.66,0,1,.3,1,1s-.29,1-.88,1l-4,.2a10.57,10.57,0,0,1-1.95,3,37.36,37.36,0,0,1,3.74,1.18c.67.25,1,.63,1,1.15a1.26,1.26,0,0,1-.15.59,1.08,1.08,0,0,1-1,.61,4.71,4.71,0,0,1-1.39-.44c-1.36-.58-2.72-1.09-4.08-1.55a11.85,11.85,0,0,1-2.23,1,17.14,17.14,0,0,1-2.67.65,14.46,14.46,0,0,1-2.4.24c-.67,0-1-.3-1-.89a.76.76,0,0,1,.56-.75,5.55,5.55,0,0,1,.92-.14,16.06,16.06,0,0,0,4.07-1c-.4-.12-1.07-.29-2-.53s-1.5-.66-1.5-1.26a2.16,2.16,0,0,1,.62-1.3l.14-.16-3.45.16h-.09a.75.75,0,0,1-.74-.4,1.15,1.15,0,0,1-.15-.61q0-1,.9-1.05l5-.26q.23-.34.42-.69.51-.93,1.23-.93a1.43,1.43,0,0,1,.65.17,1,1,0,0,1,.64.91,1.29,1.29,0,0,1-.08.4Zm.33-5a28.72,28.72,0,0,0,5.47,2.39c.65.19,1,.42,1,.68s-.19.38-.57.53a5.19,5.19,0,0,1-1.78.46,4.14,4.14,0,0,1-1.67-.58,24.67,24.67,0,0,1-4.26-2.84v2.2a.93.93,0,0,1-.26.66,1.3,1.3,0,0,1-1,.38,1.2,1.2,0,0,1-1.08-.52.9.9,0,0,1-.14-.52V53.63a19.75,19.75,0,0,1-4.88,2.95,6.24,6.24,0,0,1-1.8.59.77.77,0,0,1-.71-.38.87.87,0,0,1-.13-.46.82.82,0,0,1,.38-.68l.68-.33A25.91,25.91,0,0,0,256,53l.16-.12-3.6.23h-.11a.8.8,0,0,1-.8-.51,1.42,1.42,0,0,1-.11-.55.84.84,0,0,1,.88-.94l6-.4V49.61l-.3,0c-2,.17-3.15.26-3.41.26-.79,0-1.19-.29-1.19-.87a.78.78,0,0,1,.62-.81,6.88,6.88,0,0,1,.92-.1,48.18,48.18,0,0,0,7.77-1.32,6.93,6.93,0,0,1,1.08-.2,1,1,0,0,1,.82.33,1,1,0,0,1,.24.7,1,1,0,0,1-.71,1,17.79,17.79,0,0,1-3.24.64l-.14,0v1.26l6-.41H267a.76.76,0,0,1,.81.51,1.33,1.33,0,0,1,.11.54.83.83,0,0,1-.86,1Zm-1.15,7.11-3.69.18c-.18.24-.39.47-.62.72s-.33.4-.33.51.05.14.14.2a6.37,6.37,0,0,0,1,.23c.62.13,1.24.27,1.85.42A8,8,0,0,0,261.54,59.53Z"/><path class="cls-3" d="M277.4,62.18a1.22,1.22,0,0,1,1,.44,1.06,1.06,0,0,1,.26.72c0,.51-.32.91-.95,1.21a18.74,18.74,0,0,1-4,1.34,5,5,0,0,1-.85.11.9.9,0,0,1-.85-.41,1.13,1.13,0,0,1-.14-.52.85.85,0,0,1,.42-.74A3.63,3.63,0,0,1,273,64a21.13,21.13,0,0,0,3.64-1.66A1.44,1.44,0,0,1,277.4,62.18Zm9.18-11.85a.82.82,0,0,1,.39.76.74.74,0,0,1-.77.84l-10.1.55a1.33,1.33,0,0,1-1.09.43q-1.12,0-1.26-.9l-.51-3.21c0-.09,0-.15,0-.18a1,1,0,0,1,.77-1,1.88,1.88,0,0,1,.65-.11,1.38,1.38,0,0,1,1.12.44l9.51-.68h.34q1.5,0,1.5,1.08a2.52,2.52,0,0,1-.16.84Zm-2.16,11.35-8,.42a1.27,1.27,0,0,1-1.1.47,1.19,1.19,0,0,1-1.11-.53.9.9,0,0,1-.15-.51V54.24a.94.94,0,0,1,.5-.86,1.43,1.43,0,0,1,.76-.21,1.53,1.53,0,0,1,.9.29l8.47-.57H285a1.56,1.56,0,0,1,1.46.61,2.45,2.45,0,0,1,.27,1.27v6.29a.93.93,0,0,1-.32.72,1.37,1.37,0,0,1-1,.32A1.32,1.32,0,0,1,284.42,61.68Zm-.4-11.3.23-.85a.68.68,0,0,0,0-.19q0-.27-.36-.27h-.09l-7.74.52.14,1.27Zm.16,5v-.22c0-.44-.18-.64-.56-.61h-.12l-6.91.47v.8Zm0,1.34-7.59.45v.91l7.59-.44Zm0,2.33-7.59.46v.85l7.59-.39Zm-.68,2.85a3,3,0,0,1,.68.11,26.28,26.28,0,0,1,3.94,1.33,1.31,1.31,0,0,1,.9,1.21,1.44,1.44,0,0,1-.19.69,1.16,1.16,0,0,1-1.09.62,2.47,2.47,0,0,1-1.2-.42,30.23,30.23,0,0,0-3.27-1.71c-.5-.22-.76-.53-.76-.92a.92.92,0,0,1,.15-.51A.89.89,0,0,1,283.5,61.92Z"/><path class="cls-3" d="M301,48.36a23.83,23.83,0,0,0,3.18,2.73,30,30,0,0,0,5,3c.54.26.81.48.81.69s-.25.38-.76.57a6,6,0,0,1-1.9.51,2.74,2.74,0,0,1-1.45-.63,41.24,41.24,0,0,1-5.83-5.33,29.1,29.1,0,0,1-7,6.3,3.88,3.88,0,0,1-1.58.69.78.78,0,0,1-.67-.3.89.89,0,0,1-.2-.55.9.9,0,0,1,.35-.69l.82-.56a22.66,22.66,0,0,0,5.14-4.86,19.13,19.13,0,0,0,1.6-2.31,1.45,1.45,0,0,1,1.25-.87,1.22,1.22,0,0,1,.8.31,1.21,1.21,0,0,1,.52,1A1.15,1.15,0,0,1,301,48.36Zm1.87,14-.09-.1c-.24-.27-.46-.52-.67-.74a1.2,1.2,0,0,1-.39-.78.89.89,0,0,1,.25-.61.81.81,0,0,1,.63-.28c.53,0,1.5.64,2.9,1.93s1.94,2.08,1.94,2.67a1.08,1.08,0,0,1-.34.79,1.44,1.44,0,0,1-1.05.47,1.23,1.23,0,0,1-1-.43c-.06-.07-.18-.24-.36-.5a8.49,8.49,0,0,0-.58-.83q-3.48.71-7.71,1.31c-.85.12-1.35.19-1.52.19a1.14,1.14,0,0,1-1-.59,1.82,1.82,0,0,1-.38-1,2.13,2.13,0,0,1,.66-1.13c.77-.88,1.55-1.85,2.33-2.92l.11-.16-3.32.26a1.26,1.26,0,0,1-.63-.15,1,1,0,0,1-.57-1,1.06,1.06,0,0,1,.62-1,1.24,1.24,0,0,1,.38-.09l13.53-1h.1a1,1,0,0,1,.79.31,1.05,1.05,0,0,1,.34.82,1.08,1.08,0,0,1-.47.95,1.18,1.18,0,0,1-.52.17l-7.09.55a28.72,28.72,0,0,1-3.31,3.65Q299.83,62.8,302.9,62.37Zm.06-7-5.93.46H297a1,1,0,0,1-.82-.36,1,1,0,0,1-.23-.68,1.07,1.07,0,0,1,.46-1,1.09,1.09,0,0,1,.46-.15l5.87-.46h.09a1,1,0,0,1,.87.4,1.13,1.13,0,0,1,.23.7,1,1,0,0,1-.48.93A1.09,1.09,0,0,1,303,55.4Z"/></g></svg>