<svg id="レイヤー_1" data-name="レイヤー 1" xmlns="http://www.w3.org/2000/svg" xmlns:xlink="http://www.w3.org/1999/xlink" viewBox="0 0 208.93 220"><defs><style>.cls-1,.cls-7{fill:none;}.cls-2{clip-path:url(#clip-path);}.cls-3,.cls-5,.cls-6{fill:#fff;}.cls-4{fill:#003d80;}.cls-5,.cls-7{stroke:#003d80;stroke-width:6px;}.cls-5,.cls-6,.cls-7,.cls-8{stroke-miterlimit:10;}.cls-6{stroke:#fff;stroke-width:5px;}.cls-8{fill:#f9f9f9;stroke:#f9f9f9;stroke-width:7.5px;}</style><clipPath id="clip-path" transform="translate(-11.07 -16)"><rect class="cls-1" width="230" height="230"/></clipPath></defs><g class="cls-2"><g id="ベル"><ellipse class="cls-3" cx="104.41" cy="117.11" rx="72.18" ry="99.73"/><path class="cls-4" d="M115.48,36.38c38.15,0,69.18,43.4,69.18,96.73s-31,96.74-69.18,96.74S46.3,186.45,46.3,133.11s31-96.73,69.18-96.73m0-6c-41.52,0-75.18,46-75.18,102.73S74,235.85,115.48,235.85s75.18-46,75.18-102.74S157,30.38,115.48,30.38Z" transform="translate(-11.07 -16)"/><rect class="cls-3" x="29.23" y="149.48" width="150.36" height="70.52"/><rect class="cls-3" x="103.38" y="20.01" height="2.31"/><polygon points="103.38 20.01 103.38 22.32 103.38 20.01 103.38 20.01"/><path class="cls-5" d="M99,186.91H45.83c-5,0-9.14-4.6-9.14-10.26v-.28c0-5.67,4.1-10.26,9.14-10.26H186.15c5,0,9.14,4.59,9.14,10.26v.28c0,5.66-4.09,10.26-9.14,10.26H111.52c-3.23,0-6.53-.27-9.75,0-6,.57-.89,11.82,2.38,15.55,2.62,3,3,2.51,5.15,3.47,5.15,2.31,13.47,2.5,18.93.41s11.45-9.88,11.22-16.35" transform="translate(-11.07 -16)"/><rect class="cls-6" x="41.07" y="128.16" width="126.68" height="31.19" rx="6.5"/><path class="cls-7" d="M107.57,33c1.32-3.17,1.42-6.92,3.1-9.86a8,8,0,0,1,5.06-3.94,7.07,7.07,0,0,1,7,2.75,17.34,17.34,0,0,1,2,4l3.36,8.33" transform="translate(-11.07 -16)"/><ellipse class="cls-8" cx="106.47" cy="21.31" rx="4.12" ry="10.4"/></g><g id="音"><path class="cls-7" d="M185.25,68.28c17.13,12.92,24.57,28.51,9.18,48.77" transform="translate(-11.07 -16)"/><path class="cls-7" d="M33.48,118.35C24.26,99,24.86,81.69,47.87,70.86" transform="translate(-11.07 -16)"/><path class="cls-7" d="M191.89,55.76c19.33,14.27,33.73,35,19.15,61.5-2,3.71-5,6.31-7.74,9.56" transform="translate(-11.07 -16)"/><path class="cls-7" d="M21.14,125.67C11.74,106.11,8.79,82.89,31,65.59c3.1-2.42,6.49-3.53,9.93-5.3" transform="translate(-11.07 -16)"/></g></g></svg>