<svg id="レイヤー_1" data-name="レイヤー 1" xmlns="http://www.w3.org/2000/svg" viewBox="0 0 230 230"><defs><style>.cls-1{fill:#fff;}.cls-2{fill:#003d80;}.cls-3{fill:#369;stroke:#003d80;stroke-miterlimit:10;stroke-width:5px;}</style></defs><rect class="cls-1" x="18.33" y="74.04" width="193.33" height="108.71" rx="13.05"/><path class="cls-2" d="M198.61,77a10.07,10.07,0,0,1,10.06,10V169.7a10.07,10.07,0,0,1-10.06,10.05H31.39A10.07,10.07,0,0,1,21.33,169.7V87.09A10.07,10.07,0,0,1,31.39,77H198.61m0-6H31.39a16.06,16.06,0,0,0-16.06,16V169.7a16.06,16.06,0,0,0,16.06,16.05H198.61a16.06,16.06,0,0,0,16.06-16.05V87.09a16.06,16.06,0,0,0-16.06-16Z"/><rect class="cls-1" x="28.93" y="56.37" width="20.94" height="15.61" rx="2.5"/><path class="cls-2" d="M47.37,58.87h0v10.6H31.43V58.87H47.37m0-5H31.43a5,5,0,0,0-5,5v10.6a5,5,0,0,0,5,5H47.37a5,5,0,0,0,5-5V58.87a5,5,0,0,0-5-5Z"/><path class="cls-1" d="M72.33,72.07a3.57,3.57,0,0,1-3.07-1.7,3.63,3.63,0,0,1-.2-3.58l8.37-17.47a3.66,3.66,0,0,1,3.28-2.07h67.22a3.64,3.64,0,0,1,3.27,2.08l8.38,17.46a3.63,3.63,0,0,1-.21,3.58,3.57,3.57,0,0,1-3.07,1.7Z"/><path class="cls-2" d="M147.93,50.25a.63.63,0,0,1,.57.37l8.37,17.46a.65.65,0,0,1,0,.69.57.57,0,0,1-.53.3h-84a.58.58,0,0,1-.53-.3.68.68,0,0,1,0-.69l8.38-17.46a.62.62,0,0,1,.57-.37h67.22m0-6H80.71a6.63,6.63,0,0,0-6,3.78L66.35,65.49a6.68,6.68,0,0,0,6,9.58h84a6.67,6.67,0,0,0,6-9.58L153.91,48a6.64,6.64,0,0,0-6-3.78Z"/><rect class="cls-1" x="176.8" y="83.97" width="21.94" height="11.11" rx="3.15"/><path class="cls-2" d="M195.6,86a1.14,1.14,0,0,1,1.14,1.14v4.82a1.14,1.14,0,0,1-1.14,1.15H180a1.15,1.15,0,0,1-1.15-1.15V87.11A1.15,1.15,0,0,1,180,86H195.6m0-4H180a5.15,5.15,0,0,0-5.15,5.14v4.82A5.15,5.15,0,0,0,180,97.08H195.6a5.14,5.14,0,0,0,5.14-5.15V87.11A5.14,5.14,0,0,0,195.6,82Z"/><rect class="cls-3" x="18.75" y="113.63" width="192.5" height="65.87" rx="6.41"/><path class="cls-1" d="M114.32,157.77a34.53,34.53,0,1,1,34.27-34.53A34.45,34.45,0,0,1,114.32,157.77Z"/><path class="cls-2" d="M114.32,94.72A28.53,28.53,0,1,1,86,123.24a28.42,28.42,0,0,1,28.28-28.52m0-12a40.53,40.53,0,1,0,40.27,40.52,40.4,40.4,0,0,0-40.27-40.52Z"/></svg>