<svg id="レイヤー_1" data-name="レイヤー 1" xmlns="http://www.w3.org/2000/svg" viewBox="0 0 320 320"><defs><style>.cls-1,.cls-3{fill:#fff;}.cls-2,.cls-4{fill:#003d80;}.cls-3,.cls-4{stroke:#003d80;stroke-miterlimit:10;}.cls-3{stroke-width:2px;}.cls-4{stroke-width:5px;}</style></defs><g id="big-circle"><path class="cls-1" d="M125,213.51c-25.67,0-48.12-11-61.59-30.19C39,148.48,51.61,97.29,91.63,69.18c16.52-11.59,36.17-18,55.34-18,25.67,0,48.12,11,61.6,30.19,24.45,34.83,11.79,86-28.23,114.13C163.58,207.29,144.45,213.51,125,213.51Z"/><path class="cls-2" d="M147,57.2c23.68,0,44.34,10.07,56.67,27.64,10.76,15.32,14,34.62,9.27,54.35-4.92,20.3-17.72,38.56-36,51.42-15.52,10.9-33.94,16.9-51.89,16.9-23.69,0-44.35-10.08-56.68-27.64C45.76,147.74,57.77,100.29,95.08,74.09,110.59,63.2,129,57.2,147,57.2h0m0-12A102.81,102.81,0,0,0,88.18,64.27C45.39,94.32,32.09,149.16,58.5,186.76c15.12,21.54,40,32.75,66.5,32.75a102.72,102.72,0,0,0,58.79-19.08c42.79-30.05,56.09-84.89,29.69-122.49C198.35,56.4,173.5,45.2,147,45.2Z"/></g><rect id="cmall-square" class="cls-3" x="175.46" y="197.89" width="21.17" height="11.51" transform="translate(-83.24 143.89) rotate(-35.08)"/><rect id="big-square" class="cls-4" x="190.1" y="201.8" width="39.99" height="72.2" rx="5.41" transform="translate(-98.55 163.93) rotate(-35.08)"/></svg>