<svg id="レイヤー_1" data-name="レイヤー 1" xmlns="http://www.w3.org/2000/svg" viewBox="0 0 213.1 185.79"><defs><style>.cls-1{fill:#039;}.cls-1,.cls-2{stroke:#039;stroke-miterlimit:10;}.cls-2{fill:none;stroke-width:1.5px;}.cls-3{fill:#fff;}</style></defs><g id="左の人"><ellipse class="cls-1" cx="60.37" cy="56.39" rx="29.08" ry="32.07"/><path class="cls-1" d="M98,140.23,121.73,97.9a1.68,1.68,0,0,0-2.45-2.18l-68.93,50a1.68,1.68,0,0,0,1.27,3l45.23-7.66A1.7,1.7,0,0,0,98,140.23Z" transform="translate(-8.15 -22.11)"/><path class="cls-1" d="M45.49,150.73l14.6-35.19a1.68,1.68,0,0,0-2.71-1.86L9.43,159.44a1.68,1.68,0,0,0,1.67,2.81l33.34-10.56A1.67,1.67,0,0,0,45.49,150.73Z" transform="translate(-8.15 -22.11)"/><path class="cls-1" d="M98.28,132.26l-9.89-17.61a20.84,20.84,0,0,0-36.57,0l-9.89,17.61A22.12,22.12,0,0,0,39.3,146l7.59,57.27H65.73a27.62,27.62,0,0,1-1-7.34c0-8.79,3.81-15.92,8.5-15.92s8.5,7.13,8.5,15.92a27.22,27.22,0,0,1-1,7.34H93.31l7.6-57.27A22.26,22.26,0,0,0,98.28,132.26Z" transform="translate(-8.15 -22.11)"/></g><g id="右の人"><ellipse class="cls-1" cx="163.49" cy="52.66" rx="27.77" ry="29.47"/><path class="cls-1" d="M145.34,131.87l36.49,3.24a1.68,1.68,0,0,0,1-3.12L124.69,97.43a1.68,1.68,0,0,0-2.24,2.4l21.66,31.32A1.62,1.62,0,0,0,145.34,131.87Z" transform="translate(-8.15 -22.11)"/><path class="cls-1" d="M200.17,132.3l20.35-35.8A1.69,1.69,0,0,0,218,94.33l-58.79,45a1.68,1.68,0,0,0,1.42,3l38.44-9.19A1.68,1.68,0,0,0,200.17,132.3Z" transform="translate(-8.15 -22.11)"/><path class="cls-1" d="M150.29,190.85a22.11,22.11,0,0,0,2.22,7h8.24a21.62,21.62,0,0,1-.84-6.05c0-7.29,3.38-13.2,7.54-13.2s7.55,5.91,7.55,13.2a21.62,21.62,0,0,1-.84,6.05h15.78a21.85,21.85,0,0,0,2.22-7l7.63-54a22,22,0,0,0-2.88-14.32l-7.63-12.76a20.93,20.93,0,0,0-36.11,0l-7.62,12.76a21.91,21.91,0,0,0-2.88,14.32Z" transform="translate(-8.15 -22.11)"/></g><ellipse id="大楕円" class="cls-2" cx="114.21" cy="115" rx="117.98" ry="75.21" transform="translate(-53.86 66.56) rotate(-35.85)"/><ellipse class="cls-3" cx="208.95" cy="66.7" rx="4" ry="5"/><ellipse class="cls-3" cx="143.15" cy="182.63" rx="5.04" ry="8.01" transform="translate(-27.23 -5.39) rotate(-6.27)"/><ellipse class="cls-3" cx="82.1" cy="43.8" rx="5" ry="4" transform="translate(-12.32 56.57) rotate(-50.09)"/><ellipse class="cls-3" cx="35.1" cy="84.8" rx="5" ry="4" transform="translate(-63.33 79.23) rotate(-77.89)"/></svg>