<svg id="レイヤー_1" data-name="レイヤー 1" xmlns="http://www.w3.org/2000/svg" viewBox="0 0 50 50"><defs><style>.cls-1{fill:#2e7d32;}</style></defs><path class="cls-1" d="M32.93,24.42l1.43,4.75a5.57,5.57,0,0,0,10.36.8l3.15-6.58a5.57,5.57,0,0,0-7.1-7.57L36.2,17.65A5.58,5.58,0,0,0,32.93,24.42Z"/><path class="cls-1" d="M34.72,17.63l4.48-.35A5.57,5.57,0,0,0,41.88,7.11L36,3.14a5.57,5.57,0,0,0-8.42,6.32L29,13.78A5.58,5.58,0,0,0,34.72,17.63Z"/><path class="cls-1" d="M24.41,25.78l-3.53,3.06a5.57,5.57,0,0,0,3.88,9.78l7.32-.31a5.57,5.57,0,0,0,3-10.07l-3.78-2.75A5.57,5.57,0,0,0,24.41,25.78Z"/><path class="cls-1" d="M27.06,14.39l1.46-5.75A5.57,5.57,0,0,0,20.3,2.47l-7.15,4.2a5.57,5.57,0,0,0,1.36,10.18l5.68,1.54A5.57,5.57,0,0,0,27.06,14.39Z"/><path class="cls-1" d="M19.31,18.16l-5-1.92a5.57,5.57,0,0,0-6.9,7.83l3.85,7.22a5.57,5.57,0,0,0,10.35-1.41l1.19-5.29A5.59,5.59,0,0,0,19.31,18.16Z"/><path class="cls-1" d="M27.82,36.41a16.65,16.65,0,1,1,15.8-17.33A16.61,16.61,0,0,1,27.82,36.41ZM26.58,7.31a12.48,12.48,0,1,0,12.91,12A12.44,12.44,0,0,0,26.58,7.31Z"/><ellipse class="cls-1" cx="27.4" cy="22.38" rx="1.03" ry="1.04" transform="translate(-0.92 1.18) rotate(-2.43)"/><path class="cls-1" d="M27.4,24h-.12a1.63,1.63,0,0,1-.94-2.86,1.59,1.59,0,0,1,1.17-.39h0A1.63,1.63,0,0,1,27.4,24Zm0-2.08a.43.43,0,0,0-.29.1.42.42,0,0,0-.15.31.45.45,0,0,0,.41.49.45.45,0,0,0,.06-.9h0Z"/><ellipse class="cls-1" cx="28.25" cy="17.84" rx="1.03" ry="1.04" transform="translate(-0.73 1.21) rotate(-2.43)"/><path class="cls-1" d="M28.25,19.47a1.64,1.64,0,0,1-1.62-1.56,1.64,1.64,0,0,1,1.56-1.7h0a1.64,1.64,0,0,1,1.69,1.56,1.66,1.66,0,0,1-.43,1.17,1.61,1.61,0,0,1-1.13.53Zm0-2.08a.45.45,0,0,0-.43.47.5.5,0,0,0,.15.32.44.44,0,0,0,.31.11.41.41,0,0,0,.31-.14.48.48,0,0,0,.12-.33A.44.44,0,0,0,28.24,17.39Z"/><path class="cls-1" d="M29.63,20.9a1.05,1.05,0,0,0-.06,1.47,1,1,0,0,0,1.46.06A1.05,1.05,0,0,0,31.09,21,1,1,0,0,0,29.63,20.9Z"/><path class="cls-1" d="M30.33,23.3h-.06a1.6,1.6,0,0,1-1.13-.52,1.65,1.65,0,0,1,.08-2.3h0A1.64,1.64,0,0,1,30.39,20a1.6,1.6,0,0,1,1.13.52,1.64,1.64,0,0,1-.08,2.3A1.65,1.65,0,0,1,30.33,23.3Zm-.3-2a.46.46,0,0,0,.28.79.42.42,0,0,0,.32-.12.46.46,0,0,0,0-.64.41.41,0,0,0-.3-.14A.36.36,0,0,0,30,21.33Z"/><ellipse class="cls-1" cx="30.7" cy="19.17" rx="1.03" ry="1.04" transform="translate(-0.78 1.32) rotate(-2.43)"/><path class="cls-1" d="M30.7,20.8a1.63,1.63,0,0,1-1.2-2.73,1.6,1.6,0,0,1,1.13-.52,1.63,1.63,0,0,1,.14,3.25Zm0-2.08h0a.46.46,0,0,0-.31.15.42.42,0,0,0-.11.32.44.44,0,0,0,.46.44.46.46,0,0,0,.42-.47A.45.45,0,0,0,30.7,18.72Z"/><ellipse class="cls-1" cx="25.95" cy="19.67" rx="1.03" ry="1.04" transform="translate(-0.81 1.12) rotate(-2.43)"/><path class="cls-1" d="M25.94,21.3a1.62,1.62,0,0,1-1.61-1.56A1.62,1.62,0,0,1,25.88,18h0a1.63,1.63,0,0,1,1.26,2.73A1.61,1.61,0,0,1,26,21.3Zm0-2.08a.45.45,0,0,0-.43.47.46.46,0,0,0,.15.31.47.47,0,0,0,.31.12.44.44,0,0,0,.43-.47.47.47,0,0,0-.46-.43Z"/><path class="cls-1" d="M17.4,39.27c-1.21.66-1,3.19-.21,5.4.49,1.41,1.36,3.08,2.35,3.53a1.12,1.12,0,0,0,1,0A2.32,2.32,0,0,0,21.43,46a2.54,2.54,0,0,0,1,.51,1.24,1.24,0,0,0,1.16-.25c1.14-.94.68-3.47-.37-5.48-.82-1.56-1.89-2.67-2.81-2.89a1.48,1.48,0,0,0-.35,0,1.21,1.21,0,0,0-.81.3,1.63,1.63,0,0,0-.46.65L18,37.06a.27.27,0,0,0-.4-.14.38.38,0,0,0-.13.47l.82,1.8A1,1,0,0,0,17.4,39.27Z"/><path class="cls-1" d="M38.88,36.69c-1.07,1.23.23,3.72,2,5.64,1.12,1.23,2.78,2.56,4.06,2.58a1.42,1.42,0,0,0,1.14-.47,2.47,2.47,0,0,0,.06-2.59,3,3,0,0,0,1.28.1,1.67,1.67,0,0,0,1.2-.77c.87-1.48-.69-3.86-2.68-5.46-1.54-1.25-3.19-1.91-4.29-1.73a2.33,2.33,0,0,0-.42.11,1.66,1.66,0,0,0-.78.67,1.91,1.91,0,0,0-.24.87l-1.61-1.46a.35.35,0,0,0-.51,0,.41.41,0,0,0,.05.55l1.65,1.48A1.33,1.33,0,0,0,38.88,36.69Z"/><path class="cls-1" d="M14.07,35.17c-.71-2.09-4.22-2.08-7.39-1.15-2,.6-4.47,1.79-5.26,3.35a2.15,2.15,0,0,0-.17,1.71c.36,1.05,1.43,1.57,2.81,1.7a4.7,4.7,0,0,0-.88,1.52,2.42,2.42,0,0,0,.14,2c1.09,2,4.64,1.62,7.59.19,2.3-1.11,4-2.71,4.47-4.17a2.79,2.79,0,0,0,.13-.58,2.3,2.3,0,0,0-1.08-2.23L17,36.4a.49.49,0,0,0,.27-.64.47.47,0,0,0-.63-.27L14,36.56A2.08,2.08,0,0,0,14.07,35.17Z"/></svg>