<svg id="レイヤー_1" data-name="レイヤー 1" xmlns="http://www.w3.org/2000/svg" viewBox="0 0 50 50"><defs><style>.cls-1{fill:#2e7d32;}</style></defs><path class="cls-1" d="M29.64,11.12V6.94C29.64,5.6,28,4.5,25.9,4.5H23.76C21.7,4.5,20,5.6,20,6.94v4.18Z"/><rect class="cls-1" x="15.58" y="14.29" width="17.77" height="0.98" rx="0.43"/><rect class="cls-1" x="15.58" y="10.31" width="18.39" height="0.98" rx="0.43"/><rect class="cls-1" x="19.34" y="10.18" width="1.25" height="4.6" rx="0.4"/><rect class="cls-1" x="14.96" y="10.52" width="1.25" height="4.6" rx="0.4"/><rect class="cls-1" x="17.22" y="10.52" width="1.25" height="4.6" rx="0.4"/><rect class="cls-1" x="21.36" y="11.12" width="1.25" height="4.6" rx="0.4"/><rect class="cls-1" x="23.86" y="10.52" width="1.25" height="4.6" rx="0.4"/><rect class="cls-1" x="26.37" y="10.52" width="1.25" height="4.6" rx="0.4"/><rect class="cls-1" x="28.7" y="10.8" width="1.25" height="4.6" rx="0.4"/><rect class="cls-1" x="30.71" y="10.52" width="1.25" height="4.6" rx="0.4"/><rect class="cls-1" x="32.72" y="10.52" width="1.25" height="4.6" rx="0.4"/><path class="cls-1" d="M29.67,14.29H19.83a2.41,2.41,0,0,0-.94,1.8L17.22,46.35c0,1.65,3.7,2.3,6.17,2.3h2.72c2.48,0,6.81-1.14,6.81-2.79L30.61,16.09A2.41,2.41,0,0,0,29.67,14.29Z"/><path class="cls-1" d="M30.38,6.62c-.38-2-2.73-3.55-5.6-3.55s-5.23,1.55-5.61,3.55Z"/><ellipse class="cls-1" cx="25.07" cy="2.79" rx="0.95" ry="0.9" transform="translate(9.79 22.86) rotate(-59.08)"/><rect class="cls-1" x="24.78" y="0.81" width="0.67" height="2.65"/><path class="cls-1" d="M13.77,47.47v.3c0,.78.88,1.42,2,1.42H34.26c1.09,0,2-.64,2-1.42v-.3c0-.78-.88-1.42-2-1.42H15.74C14.65,46.05,13.77,46.69,13.77,47.47Z"/></svg>