<svg id="レイヤー_1" data-name="レイヤー 1" xmlns="http://www.w3.org/2000/svg" xmlns:xlink="http://www.w3.org/1999/xlink" viewBox="0 0 1000 1000"><defs><style>.cls-1{fill:none;}.cls-2{clip-path:url(#clip-path);}.cls-3{fill:#003d80;}.cls-4{fill:#fafbfc;}</style><clipPath id="clip-path"><rect id="マスクのパス" class="cls-1" width="1000" height="1000"/></clipPath></defs><g class="cls-2"><circle class="cls-3" cx="222.75" cy="221.75" r="216.25"/><circle class="cls-3" cx="373" cy="603" r="4"/><polygon class="cls-3" points="726.14 669.29 69 1002.71 999 1002.71 726.14 669.29"/><polygon class="cls-4" points="723.5 894 520 1003 808 1003 723.5 894"/><path class="cls-3" d="M945.74,681c-63.78,0-97.67-43.53-117.92-69.53-15-19.26-16-19.26-20.33-19.26s-5.34,0-20.33,19.26C766.91,637.47,733,681,669.24,681s-97.67-43.53-117.92-69.53c-15-19.26-16-19.26-20.33-19.26s-5.34,0-20.33,19.26c-20.25,26-54.14,69.53-117.92,69.53s-97.67-43.53-117.92-69.53c-15-19.26-16-19.26-20.33-19.26s-5.34,0-20.33,19.26C213.91,637.47,180,681,116.24,681S18.57,637.47-1.67,611.47c-15-19.26-16-19.26-20.33-19.26V440c63.79,0,97.67,43.53,117.92,69.53,15,19.26,16,19.26,20.32,19.26s5.34,0,20.33-19.26c20.25-26,54.14-69.53,117.92-69.53s97.67,43.53,117.92,69.53c15,19.26,16,19.26,20.33,19.26s5.34,0,20.33-19.26C433.32,483.53,467.2,440,531,440s97.67,43.53,117.92,69.53c15,19.26,16,19.26,20.33,19.26s5.34,0,20.33-19.26c20.25-26,54.13-69.53,117.92-69.53s97.67,43.53,117.92,69.53c15,19.26,16,19.26,20.33,19.26s5.35,0,20.34-19.26c16.84-21.63,43.11-55.37,88.17-66.12,15.26-3.64,29.75,8.79,29.75,25.57V592.21c-4.32,0-5.34,0-20.34,19.26C1043.42,637.47,1009.53,681,945.74,681Z"/><line class="cls-3" x1="379" y1="628" x2="377" y2="646"/></g></svg>