<svg id="レイヤー_1" data-name="レイヤー 1" xmlns="http://www.w3.org/2000/svg" xmlns:xlink="http://www.w3.org/1999/xlink" viewBox="0 0 1000 1000"><defs><style>.cls-1{fill:none;}.cls-2{clip-path:url(#clip-path);}.cls-3{fill:url(#名称未設定グラデーション_45);}.cls-4{fill:#fff;}.cls-5{fill:#3da8f5;}.cls-6{fill:#0fb400;}.cls-7{fill:#003d80;}</style><clipPath id="clip-path"><rect id="マスクのパス" class="cls-1" width="1000" height="1000"/></clipPath><radialGradient id="名称未設定グラデーション_45" cx="215.74" cy="213.81" fx="74.78089080253125" fy="52.457342980104954" r="214.25" gradientTransform="translate(7.51 7.44)" gradientUnits="userSpaceOnUse"><stop offset="0" stop-color="#fff"/><stop offset="0" stop-color="#fff2e4"/><stop offset="0" stop-color="#ffdebb"/><stop offset="0.01" stop-color="#ffcc95"/><stop offset="0.01" stop-color="#ffbd75"/><stop offset="0.01" stop-color="#ffb059"/><stop offset="0.01" stop-color="#ffa543"/><stop offset="0.02" stop-color="#ff9d32"/><stop offset="0.02" stop-color="#ff9727"/><stop offset="0.03" stop-color="#ff9420"/><stop offset="0.05" stop-color="#ff931e"/><stop offset="0.42" stop-color="#ff931e"/><stop offset="0.48" stop-color="#ff931e"/></radialGradient></defs><g class="cls-2"><circle class="cls-3" cx="223.5" cy="221.5" r="214.5"/><circle class="cls-4" cx="373" cy="603" r="3"/><path class="cls-5" d="M373,601a2,2,0,1,1-2,2,2,2,0,0,1,2-2m0-2a4,4,0,1,0,4,4,4,4,0,0,0-4-4Z"/><polygon class="cls-6" points="726.14 669.29 69 1002.71 999 1002.71 726.14 669.29"/><polygon class="cls-4" points="710.5 894 507 1003 795 1003 710.5 894"/><path class="cls-7" d="M945.74,681c-63.78,0-97.67-43.53-117.92-69.53-15-19.26-16-19.26-20.33-19.26s-5.34,0-20.33,19.26C766.91,637.47,733,681,669.24,681s-97.67-43.53-117.92-69.53c-15-19.26-16-19.26-20.33-19.26s-5.34,0-20.33,19.26c-20.25,26-54.14,69.53-117.92,69.53s-97.67-43.53-117.92-69.53c-15-19.26-16-19.26-20.33-19.26s-5.34,0-20.33,19.26C213.91,637.47,180,681,116.24,681S18.57,637.47-1.67,611.47c-15-19.26-16-19.26-20.33-19.26V440c63.79,0,97.67,43.53,117.92,69.53,15,19.26,16,19.26,20.32,19.26s5.34,0,20.33-19.26c20.25-26,54.14-69.53,117.92-69.53s97.67,43.53,117.92,69.53c15,19.26,16,19.26,20.33,19.26s5.34,0,20.33-19.26C433.32,483.53,467.2,440,531,440s97.67,43.53,117.92,69.53c15,19.26,16,19.26,20.33,19.26s5.34,0,20.33-19.26c20.25-26,54.13-69.53,117.92-69.53s97.67,43.53,117.92,69.53c15,19.26,16,19.26,20.33,19.26s5.35,0,20.34-19.26c16.84-21.63,43.11-55.37,88.17-66.12,15.26-3.64,29.75,8.79,29.75,25.57V592.21c-4.32,0-5.34,0-20.34,19.26C1043.42,637.47,1009.53,681,945.74,681Z"/><line class="cls-1" x1="379" y1="628" x2="377" y2="646"/></g></svg>