<svg id="レイヤー_1" data-name="レイヤー 1" xmlns="http://www.w3.org/2000/svg" viewBox="0 0 50 50"><defs><style>.cls-1{fill:#2e7d3e;}.cls-2{fill:#2d7d32;}</style></defs><path id="トリ" class="cls-1" d="M34.15,22.71l-7.78-4.16-.16-.13C23.48,16.49,14,10.77,11.91,6.85A6.63,6.63,0,0,0,11,4.07C9.44,1.33,6.36.11,4.14,1.34c-1.88,1-2.52,3.51-1.71,5.91L1.47,9l1.65-.31A7.14,7.14,0,0,0,4.34,10.2a33.65,33.65,0,0,0,1.82,8.71,15.88,15.88,0,0,0,6.52,8.17v2.43l-1.48-.08c-.26,0-.49.11-.49.27l0,.45c0,.16.2.31.47.32l4,.21a.44.44,0,0,0,.32.13h.67a.55.55,0,0,0,.25-.07l.89,0c.26,0,.49-.11.5-.27v-.44c0-.17-.2-.31-.47-.33l-.74,0V28c.73-.19,1.49-.52,2.26-.67a15.44,15.44,0,0,0,8.46-4.47l6.73.37A.29.29,0,0,0,34.15,22.71ZM14.22,29.59V27.83c.23.09.45.19.68.27H15v1.52Z"/><ellipse class="cls-2" cx="35.47" cy="5" rx="0.98" ry="1.36"/><ellipse class="cls-2" cx="37.58" cy="5" rx="0.98" ry="1.36"/><path class="cls-2" d="M36.48,7h0c.41,0,1.25.2,1.25.83L37,23.39c0,.63-.07,1.33-.48,1.33h0c-.4,0-.49-1-.49-1.68L35.47,7.87A1,1,0,0,1,36.48,7Z"/><path class="cls-2" d="M25,13.66h0c-.11-.62-.21-2,.15-2.08l9.17-2.11c.37-.12.75.29.85.91h0c.11.62-.47,1-.83,1.07l-8.56,3.61C25.42,15.17,25.11,14.28,25,13.66Z"/><path class="cls-2" d="M48.19,13.39h0c-.11.62-.45,1.89-.81,1.76L38.5,11.32c-.36-.12-.57-.72-.47-1.34h0c.11-.62.74-.56,1.1-.44l8.81,2.12C48.31,11.78,48.3,12.77,48.19,13.39Z"/><path class="cls-2" d="M25,3.93h0c.14-.61.54-1.84.9-1.68L34.57,7c.36.16.54.79.4,1.39h0c-.14.61-.76.49-1.12.33l-8.68-3C24.82,5.53,24.88,4.54,25,3.93Z"/><path class="cls-2" d="M48.14,4.29h0c.12.61.24,2-.12,2.08L38.88,8.75c-.36.12-.75-.28-.86-.89h0c-.12-.62.45-1,.82-1.1l8.5-3.85C47.7,2.79,48,3.67,48.14,4.29Z"/><path id="カメ" class="cls-1" d="M48.21,38.39c.63-2.24-.92-4-3.45-3.9a6.59,6.59,0,0,0-5.1,2.91c-1.47-6-6.27-10.14-12.29-9.93-6.75.24-12.75,5.89-14.47,13.13l-5-1.12L9.6,40.62a23.13,23.13,0,0,0,3.07,1.72l.28.13a2,2,0,0,0,1.57,1,.86.86,0,0,0,0,.16,2.81,2.81,0,0,0-.33.91c-.17,1,.16,1.77.73,1.79l3.39.09a.88.88,0,0,0,.57-.25.74.74,0,0,0,.59.58l3.38.34c.57.06,1.24-.67,1.49-1.62s0-1.78-.58-1.84h-.13l.14-.46,5.42-.19c0,.18,0,.36,0,.53a2.89,2.89,0,0,0-.32.91c-.17,1,.16,1.77.72,1.79l3.4.09c.39,0,.8-.37,1.07-.93.11.47.37.78.72.79l3.39.09c.57,0,1.17-.77,1.34-1.74s-.16-1.77-.73-1.79H38.6v-.05l4.47-.45s0,0,.05-.05C45.46,41.86,47.63,40.46,48.21,38.39ZM11.89,41.86l.88.12v0Zm21.87.91.62,0a5.14,5.14,0,0,0-.05.66l-.06.13A1,1,0,0,0,33.76,42.77Z"/></svg>