<svg id="レイヤー_1" data-name="レイヤー 1" xmlns="http://www.w3.org/2000/svg" viewBox="0 0 1000 1000"><defs><style>.cls-1{fill:#a5d6a7;}.cls-2{fill:#757575;}.cls-3{fill:#2e7d32;}.cls-4{fill:#f6f6f8;}</style></defs><path class="cls-1" d="M898.86,262.31l-41.15,1.48c-16.8.61-29.63-18.55-23.53-35.14,10.09-27.48,9.93-25.57,1.93-5.25-1.8,4.57,3.3,41,.95,35L765.64,151.53a14.59,14.59,0,0,1-2.57-8.93c.22-3.34,4.42-10.6,4-7.63-3,22.07-7.78-1.14-4.42-18.13a.78.78,0,0,1,.21-.4l51-53.12c1.36-1.41,3.74.44,3,2.31-1.91,4.5-9.14,9.56-9,4.32,1.47-42.45,77.84-55.58,94.25,26.17,1.82,9.07,4.34,16.18,27.37,67.84a3.25,3.25,0,0,1,.28,1.44l-2.23,59.34a.86.86,0,0,0,.14.47c14.24,21.13-42.57,48.92-58.43,37.54-3.76-2.7,38.91-23.31,39.43-21.59,1.49,4.85,16.78-7.14,12.33,7.22C918,258.29,906.76,262,898.86,262.31Z"/><path class="cls-1" d="M733.51,175.16c1.26.66.28-.47,0,0Z"/><path class="cls-1" d="M802,333.31a.71.71,0,0,1,0-.29c3.73-15.18-8.09-65.72-13.12-74.14l-30.3-50.75,0,0c-16.12-23.92-19.05-30.78-19.15-32.52a.8.8,0,0,0-.37-.67,73.38,73.38,0,0,1-7.6-5.86c-47.11-39.64-82.41,11.3-94.16,70a.83.83,0,0,1-.48.58A83.84,83.84,0,0,0,606.59,260a.83.83,0,0,1-.55.25l-80.72,2a.78.78,0,0,1-.26,0c-32.81-10.7-81.91-17.5-136.79-17.5-58.68,0-110.76,7.77-143.37,19.78l0,0c-18.45-13.17-73,31.65-121.87,100.11C88.9,412.34,66.6,459,62.5,487.31a.76.76,0,0,1-.14.35l-2.53,3.45a56.26,56.26,0,0,0-10.58,37.73l7.87,96.78a.71.71,0,0,1,0,.32c-6.66,18.95-10.57,42-10.57,66.83,0,44.71,12.65,83.56,31.24,103.26a.91.91,0,0,1,.11.16A79.33,79.33,0,0,0,127.48,836l15.83,4.2a.76.76,0,0,1,.39.24c23.39,26.92,94.27,63.06,181.92,90.47,112.59,35.22,210.21,42.71,218.06,16.73a10.15,10.15,0,0,0,.3-1.35l.84-.64a44,44,0,0,0,6.49,0,50.18,50.18,0,0,0,37.6-22.69l4.5-6.84a.76.76,0,0,1,.24-.23C623.18,897,661.57,859.89,698,812.62c58.12-75.34,90.52-149.37,75.86-171.18a.79.79,0,0,1-.06-.77,56.46,56.46,0,0,0,5.33-26.47,1102.65,1102.65,0,0,0-12.52-120.81.75.75,0,0,1,.13-.58c13.52-19,25.34-47.77,32-81C804.57,382.62,805.38,355.08,802,333.31Z"/><path class="cls-1" d="M130.25,456.89A68.18,68.18,0,0,0,153.58,420c1-4.1,1.9-8.25,3.23-12.28A64.31,64.31,0,0,1,162,396.29a191.27,191.27,0,0,1,12.45-18.81,237.11,237.11,0,0,1,28.58-32.15,239.9,239.9,0,0,1,34-26.64,235,235,0,0,1,38.24-20.1q2.48-1,5-2c1.78-.69,1-3.59-.8-2.9a240.72,240.72,0,0,0-38.9,19.21,246,246,0,0,0-35,26A240.31,240.31,0,0,0,176,370.6c-4.47,5.73-8.7,11.66-12.62,17.78-4.5,7-8.38,14.25-10.56,22.33-1.12,4.16-2,8.4-3.21,12.53a61.88,61.88,0,0,1-4.14,10.33,64.29,64.29,0,0,1-13.19,17.65q-2,1.86-4.11,3.55c-1.51,1.2.63,3.31,2.12,2.12Z"/><path class="cls-1" d="M281.87,293.58a1.5,1.5,0,0,0,0-3,1.5,1.5,0,0,0,0,3Z"/><path class="cls-2" d="M74.72,695.34a.81.81,0,0,1-.86-.74c-.67-8.74-1.2-17.46-1.56-25.93-1.67-38.8-.06-75.72,4.79-109.74a444.7,444.7,0,0,1,24.29-95.59A367.94,367.94,0,0,1,146,379.52a301.38,301.38,0,0,1,66.63-67.83,273.86,273.86,0,0,1,84.89-42.17,236.73,236.73,0,0,1,96.19-8c24,3,47.42,9.28,70,15.34,11.67,3.13,23.75,6.36,35.63,9.06,27.27,6.2,62.85,12.08,96.2,2.5,26.81-7.71,47.57-23.61,58.44-44.78,2.07-4,4-8.65,6.11-13.53,7.69-18.09,17.24-40.54,40.05-47.47a.81.81,0,0,1,1,.56l5,17.7a.82.82,0,0,1-.54,1c-13.67,4.38-20.52,20.48-27.14,36.05-2.13,5-4.33,10.18-6.73,14.85-13.42,26.13-38.53,45.61-70.71,54.86-37.72,10.85-76.55,4.51-106.16-2.22-12.25-2.78-24.51-6.07-36.37-9.24-22-5.89-44.69-12-67.35-14.81a216.63,216.63,0,0,0-88.1,7.34,254,254,0,0,0-78.7,39.12,281.32,281.32,0,0,0-62.19,63.35,348.17,348.17,0,0,0-42.18,79.27,424.73,424.73,0,0,0-23.18,91.29c-4.67,32.8-6.22,68.49-4.61,106.06.36,8.24.87,16.73,1.52,25.24a.8.8,0,0,1-.73.86Z"/><path class="cls-2" d="M474.92,932.69a260.67,260.67,0,0,1-43.87-3.89c-28.34-4.85-56.57-13.45-80.81-21.13-25.63-8.12-52.06-17.46-78.56-27.76-25.7-10-51.33-20.92-76.18-32.5-20.73-9.66-42.54-20.37-61.27-35.8s-33.1-35.89-42.9-61c-9.65-24.72-14.5-51.07-18.75-74.41a.79.79,0,0,1,.64-.92L91.33,672a.8.8,0,0,1,.93.63c4.08,22.45,8.75,47.78,17.7,70.72,8.55,21.88,21,39.65,37,52.82,16.92,13.93,37.43,24,57,33.11,24.47,11.4,49.69,22.16,75,32,26.11,10.15,52.14,19.34,77.36,27.33,23.6,7.48,51.06,15.85,78.15,20.49,28.48,4.87,54.87,4.8,78.42-.22,19.83-4.22,39.67-12.71,59-25.24,16.76-10.87,33.45-24.86,51-42.76,18.95-19.31,36.3-40.47,49.29-56.75,6.64-8.32,13.76-16.31,20.65-24q2.91-3.26,5.79-6.51a.79.79,0,0,1,1.12-.07l13.8,12.18a.8.8,0,0,1,.07,1.13c-1.94,2.2-3.9,4.39-5.85,6.58-6.71,7.52-13.65,15.3-20,23.19-13.29,16.66-31.06,38.33-50.65,58.29-18.62,19-36.42,33.86-54.42,45.53-21.36,13.86-43.46,23.29-65.7,28A201.58,201.58,0,0,1,474.92,932.69Z"/><path class="cls-2" d="M703.1,775.39l-14.68-10.78a.81.81,0,0,1-.17-1.12c22.09-30.1,42.22-60.1,46.9-95.52.5-5.6.07-11.44-.39-17.61-.33-4.43-.67-9-.67-13.69v-.5l0-.5c.37-3.61.86-7,1.33-10.36a124.5,124.5,0,0,0,1.62-16.66v-.08c-1-11.32-1.91-22-5.47-32.51l-.09-.29A312.5,312.5,0,0,1,719.14,514l0-1c0-8.17,0-15.89,2.28-24.89a182.47,182.47,0,0,1,7.38-25.76l.22-.55c3.81-8.41,8.21-16.09,12.47-23.52,5-8.78,9.77-17.07,13.35-26.1l.09-.22c7.88-18.56,10.52-40.29,8.29-68.35a.25.25,0,0,0,0-.08c-.51-2.69-.77-5.22-1-7.67-.23-2.27-.45-4.42-.85-6.39l-.11-.54-.11-1.21c-2.83-31.55-5.76-64.15-20.08-92.3a.65.65,0,0,0-.16-.21l-2.6-2.56a1,1,0,0,1-.13-.16l-.6-1a58.79,58.79,0,0,0-38.79-27.3.8.8,0,0,1-.62-.92l3.38-17.91a.81.81,0,0,1,.95-.64,78.64,78.64,0,0,1,51.35,35.39,1.34,1.34,0,0,0,.11.14l3.08,3a.56.56,0,0,1,.14.2l.67,1.26c16.81,32,20,67.18,23,101.22v.14c.52,2.72.78,5.28,1,7.76.23,2.27.45,4.42.85,6.39l.12.58,0,.59c2.58,31.6-.5,56.45-9.7,78.18-4.1,10.3-9.4,19.57-14.54,28.53-4.15,7.26-8.08,14.11-11.47,21.55a.14.14,0,0,0,0,.06,168.55,168.55,0,0,0-6.48,22.88l-.06.26c-1.65,6.49-1.69,12.32-1.69,19.6v.09a292.67,292.67,0,0,0,11.52,57.27c4.35,12.88,5.41,25.41,6.44,37.54l0,.84a138.58,138.58,0,0,1-1.82,19.89c-.42,2.95-.85,6-1.18,9v.1c0,3.78.31,7.62.61,11.67.5,6.78,1,13.78.35,21.08l0,.37c-5.24,40.12-27.81,73.82-50.6,104.88A.8.8,0,0,1,703.1,775.39Z"/><path class="cls-2" d="M355.76,597.71a7.5,7.5,0,0,1-10.57,1.89A277.07,277.07,0,0,1,237.53,309.86a10,10,0,0,1,12.39-7.28h0a9.93,9.93,0,0,1,7,11.88A259.21,259.21,0,0,0,265.44,463c17.33,47.32,51.91,103.15,92.56,133,4.2,3.09,2.26-4.9-.67-.59Z"/><path class="cls-2" d="M380.55,613.12A208.17,208.17,0,0,1,334.61,589c-.25-.17-.3-.42-.13-.55h0c1.77-1.33,5.17-1.06,7.71.62,29.66,19.66,67.24,31.91,101.62,33,36,1.12,66.9-10,82.87-29.85a.6.6,0,0,1,.71,0l.47.25c2.55,1.37,3.57,3.72,2.26,5.18-17.25,19.25-48.59,30-84.78,28.85C424.11,625.83,401.72,621.1,380.55,613.12Z"/><path class="cls-2" d="M295.89,878l-1.57-12.39a.77.77,0,0,1,.7-.84l8-.91a.78.78,0,0,1,.88.66h0a.81.81,0,0,0,1.12.61c35.15-15.15,70.94-31.24,100.4-55.07,34.44-27.86,54.32-63.37,54.53-97.42.19-30.57-14.93-60.1-28.42-86.21a.74.74,0,0,1,.37-1l7.19-3.37a.82.82,0,0,1,1.07.34c13.95,27,29.6,57.59,29.4,90.3-.23,36.73-21.34,74.76-57.92,104.34-32.44,26.25-71.67,43.12-109.62,59.43l-5,2.14A.8.8,0,0,1,295.89,878Z"/><path class="cls-3" d="M188.33,240l-1.25,0c-14.77-.59-28.76-11.74-35.65-28.41l7.07-2.7c5.78,14,17.12,23.32,28.9,23.8s23.43-7.91,29.82-21.34l6.92,3.05C216.67,230.06,202.72,240,188.33,240Z"/><polygon class="cls-3" points="146.39 192.91 146 218.41 165.77 210.29 146.39 192.91"/><polygon class="cls-3" points="231 192.57 211.1 209.4 230.61 218.07 231 192.57"/><rect class="cls-3" x="183.81" y="166.77" width="8.25" height="69.92"/><rect class="cls-3" x="170.05" y="189.55" width="36.32" height="5.83"/><ellipse class="cls-3" cx="187.52" cy="166.77" rx="14.31" ry="13.77"/><ellipse class="cls-4" cx="187.52" cy="167.04" rx="9.08" ry="8.74"/><rect class="cls-1" x="120.05" y="280.38" width="70.04" height="8.03" transform="translate(246.52 -26.36) rotate(45)"/><rect class="cls-1" x="124.19" y="190.09" width="7.03" height="70.68" transform="translate(287.38 429.47) rotate(171.49)"/><rect class="cls-1" x="239" y="217" width="23" height="54" transform="translate(-94.95 189.67) rotate(-35.31)"/><rect class="cls-1" x="210.88" y="230.89" width="105" height="32.59" transform="translate(-92.43 184.97) rotate(-33.27)"/><rect class="cls-1" x="176" y="270" width="23" height="32" transform="translate(-147.32 216.35) rotate(-45)"/><rect class="cls-1" x="279.36" y="225.75" width="70.95" height="31.37" transform="translate(-32.27 49.27) rotate(-8.51)"/></svg>