<svg id="レイヤー_1" data-name="レイヤー 1" xmlns="http://www.w3.org/2000/svg" viewBox="0 0 50 50"><defs><style>.cls-1{fill:#2e7d32;}</style></defs><path class="cls-1" d="M47,6.63a.49.49,0,0,0,0-.12.24.24,0,0,0,0-.08.42.42,0,0,1,0-.1l0-.07-.07-.09-.06,0-.09-.07-.08,0-.1,0h-.28L39.82,7a3.11,3.11,0,0,0-.32,0H10.86L3.66,5.88H3.49l-.1,0-.11,0L3.2,6,3.11,6l-.06.06L3,6.19l0,.08a.42.42,0,0,0,0,.1.31.31,0,0,0,0,.08.49.49,0,0,0,0,.12v.08s0,.09,0,.14,0,0,0,.06A.8.8,0,0,0,3.06,7L8.6,12.78a2.46,2.46,0,0,0,1.5,1.16,1.76,1.76,0,0,0,.4.06h2.38l-.34,5h-6A1.5,1.5,0,0,0,5,20.5v3A1.5,1.5,0,0,0,6.5,25h5.64L10.83,44.19a1.52,1.52,0,0,0,1.4,1.6l3,.21a1.51,1.51,0,0,0,1.59-1.4L18.2,25H32.74l1.95,19.55a1.51,1.51,0,0,0,1.64,1.35l2.91-.29A1.51,1.51,0,0,0,40.59,44L38.7,25h3.8A1.5,1.5,0,0,0,44,23.5v-3A1.5,1.5,0,0,0,42.5,19H38.1l-.49-5H40.5A1.51,1.51,0,0,0,42,12.88l4.87-5.79a.72.72,0,0,0,.11-.19s0,0,0-.06l0-.13S47,6.65,47,6.63ZM23,19H18.61L19,14H23Zm9.15,0H27V14h4.65Z"/></svg>