<svg id="レイヤー_1" data-name="レイヤー 1" xmlns="http://www.w3.org/2000/svg" viewBox="0 0 50 50"><defs><style>.cls-1{fill:#2e7d32;}.cls-2{fill:#006837;}</style></defs><path class="cls-1" d="M42.15,39c.25,10.48-9.66,7.4-19.21,7.63s-20.15.93-20.4-9.55S12.48,8.91,22,8.68,41.9,28.51,42.15,39Z"/><ellipse class="cls-1" cx="8.61" cy="42.64" rx="2.42" ry="6.88" transform="translate(-34.84 44.75) rotate(-81.38)"/><path class="cls-1" d="M49,43.76c.32,2.05-10.49,2.23-13.65,2.46-6,.44-.06-.72-.84-2.89-1.35-3.79,2.24-4.27,6.84-3.51C44.5,40.34,48.7,41.71,49,43.76Z"/><ellipse class="cls-1" cx="10.56" cy="41" rx="4.57" ry="5.17" transform="translate(-0.98 0.26) rotate(-1.37)"/><ellipse class="cls-1" cx="16.54" cy="41.46" rx="6.59" ry="5.53" transform="translate(-0.99 0.41) rotate(-1.37)"/><ellipse class="cls-2" cx="27.94" cy="30.58" rx="7.84" ry="14.44" transform="translate(-0.72 0.68) rotate(-1.37)"/><path class="cls-2" d="M39.44,42.56c2.85,3.66-4,5.48-14.12,4.46-6.06-.62-8.89-9.83-4.24-15.21,1.78-2.06-.07,1,3.49.91S37.75,40.39,39.44,42.56Z"/><path class="cls-2" d="M40.39,40.28C40.72,43,37.63,42,35.56,42s-3.8-2.13-3.87-4.86,3.94-3.37,3.63-5C32.09,14.21,39.88,36.05,40.39,40.28Z"/><path class="cls-1" d="M37.68,23.67l-4.84-3.91a1.23,1.23,0,0,1-.49-.9,5.43,5.43,0,0,0-2.6-4.08,13.08,13.08,0,0,0-6.72-2l.35-4.16a19.08,19.08,0,0,1,9.79,2.94C36.17,13.64,38,20.75,37.68,23.67Z"/><path class="cls-2" d="M39.82,45.92,23.18,47.34a1.7,1.7,0,0,1-1.89-1.46L21,43a1.69,1.69,0,0,1,1.61-1.77l17.11-1.47a1.21,1.21,0,0,1,1.37,1l.3,3.39A1.68,1.68,0,0,1,39.82,45.92Z"/><path class="cls-1" d="M24.61,7.26,23.22,3.81a.44.44,0,0,0-.82,0L21.18,7.35a.45.45,0,0,0,.42.59l.91,0,0-.67.8,0,0,.67.9,0A.44.44,0,0,0,24.61,7.26Z"/><rect class="cls-1" x="22.52" y="7.9" width="0.8" height="1.13" transform="translate(-0.2 0.55) rotate(-1.37)"/><rect class="cls-1" x="22.5" y="7.23" width="0.8" height="0.68" transform="translate(-0.17 0.55) rotate(-1.37)"/><path class="cls-1" d="M45,38.16l-1.44-4a.44.44,0,0,0-.85,0l-1.24,4.1a.5.5,0,0,0,.44.68l.93,0,0-.79.83,0,0,.79.93,0A.51.51,0,0,0,45,38.16Z"/><rect class="cls-1" x="42.83" y="38.9" width="0.83" height="1.32" transform="translate(-0.93 1.05) rotate(-1.37)"/><rect class="cls-1" x="42.8" y="38.11" width="0.83" height="0.79" transform="translate(-0.91 1.05) rotate(-1.37)"/><path class="cls-1" d="M43.12,31.9l-1.34-3.7a.41.41,0,0,0-.79,0L39.83,32a.47.47,0,0,0,.41.63l.87,0,0-.73h.77l0,.72.86,0A.47.47,0,0,0,43.12,31.9Z"/><rect class="cls-1" x="41.12" y="32.58" width="0.77" height="1.21" transform="translate(-0.78 1) rotate(-1.37)"/><rect class="cls-1" x="41.1" y="31.86" width="0.77" height="0.72" transform="translate(-0.76 1) rotate(-1.37)"/><path class="cls-1" d="M17.13,9.34,15.61,5.22a.47.47,0,0,0-.9,0L13.39,9.43a.53.53,0,0,0,.47.71l1,0,0-.81.88,0,0,.81,1,0A.52.52,0,0,0,17.13,9.34Z"/><rect class="cls-1" x="14.86" y="10.1" width="0.87" height="1.35" transform="translate(-0.25 0.37) rotate(-1.37)"/><rect class="cls-1" x="14.83" y="9.29" width="0.87" height="0.81" transform="translate(-0.23 0.37) rotate(-1.37)"/><path class="cls-1" d="M21.13,7.76,19.54,4.25a.54.54,0,0,0-1,0L17.16,7.86a.46.46,0,0,0,.49.59l1.05,0,0-.69.92,0,0,.69,1,0A.46.46,0,0,0,21.13,7.76Z"/><rect class="cls-1" x="18.71" y="8.42" width="0.92" height="1.15" transform="translate(-0.21 0.46) rotate(-1.37)"/><rect class="cls-1" x="18.69" y="7.73" width="0.92" height="0.69" transform="translate(-0.19 0.46) rotate(-1.37)"/></svg>