<svg id="レイヤー_1" data-name="レイヤー 1" xmlns="http://www.w3.org/2000/svg" viewBox="0 0 50 50"><defs><style>.cls-1{fill:#2e7d32;}.cls-2{fill:#fff;}</style></defs><polygon class="cls-1" points="44.5 20.4 5.57 20.67 9.64 8.95 39.83 8.6 44.5 20.4"/><rect class="cls-1" x="9.99" y="24.76" width="29.84" height="16.4"/><polygon class="cls-1" points="39.83 22.64 9.64 22.64 9.9 20.22 40.09 20.22 39.83 22.64"/><polygon class="cls-1" points="43.72 24.91 6.06 25.35 9.54 22.44 39.63 22.09 43.72 24.91"/><ellipse class="cls-1" cx="10.83" cy="10.09" rx="1.15" ry="1.92" transform="translate(-1.89 2.52) rotate(-12.19)"/><ellipse class="cls-1" cx="38.81" cy="10.12" rx="2.24" ry="1.13" transform="translate(26.08 48.16) rotate(-86.1)"/><rect class="cls-1" x="6.94" y="41.16" width="36.25" height="0.95" rx="0.39"/><path class="cls-2" d="M18.61,31.27h-.25v.43H21.3v-.43h-.25a3.65,3.65,0,0,1-2.44,0Z"/><path class="cls-2" d="M23.33,28.29h-7a3.21,3.21,0,0,0,2.28,3h2.44A3.21,3.21,0,0,0,23.33,28.29Z"/><path class="cls-2" d="M19.83,31.48a3.76,3.76,0,0,0,1.22-.21H18.61A3.76,3.76,0,0,0,19.83,31.48Z"/><rect class="cls-2" x="17.15" y="32.23" width="5.35" height="0.66" rx="0.15"/><rect class="cls-2" x="25.99" y="24.27" width="3.16" height="7.25" rx="1.19" transform="translate(29.29 -11.29) rotate(47.18)"/><rect class="cls-1" x="25.84" y="27.83" width="3.16" height="0.41" transform="translate(29.35 -11.14) rotate(47.18)"/><ellipse class="cls-1" cx="27.67" cy="26.9" rx="0.91" ry="0.4" transform="translate(-2.33 51.18) rotate(-83.18)"/><ellipse class="cls-1" cx="28.34" cy="27.93" rx="0.43" ry="0.64" transform="translate(-0.64 55.18) rotate(-87.82)"/><rect class="cls-1" x="26.4" y="26.55" width="0.43" height="2.61" rx="0.21" transform="translate(47.87 -4.27) rotate(77.18)"/><rect class="cls-1" x="27.23" y="27.45" width="0.43" height="2.61" rx="0.21" transform="translate(3.61 -3.06) rotate(6.82)"/><rect class="cls-2" x="28.67" y="28.07" width="3.16" height="7.25" rx="1.19" transform="translate(31.27 -12.11) rotate(45)"/><rect class="cls-1" x="28.52" y="31.64" width="3.16" height="0.41" transform="translate(31.33 -11.96) rotate(45)"/><ellipse class="cls-1" cx="30.3" cy="30.7" rx="0.91" ry="0.4" transform="translate(-2.75 58.42) rotate(-85.36)"/><ellipse class="cls-1" cx="31.02" cy="31.7" rx="0.64" ry="0.43"/><rect class="cls-1" x="29.07" y="30.39" width="0.43" height="2.61" rx="0.21" transform="translate(52.32 -4.8) rotate(75)"/><rect class="cls-1" x="29.94" y="31.25" width="0.43" height="2.61" rx="0.21" transform="translate(2.73 -2.33) rotate(4.64)"/><rect class="cls-2" x="31.76" y="31.4" width="3.16" height="7.25" rx="1.19" transform="translate(34.54 -13.32) rotate(45)"/><rect class="cls-1" x="31.62" y="34.97" width="3.16" height="0.41" transform="translate(34.6 -13.17) rotate(45)"/><ellipse class="cls-1" cx="33.4" cy="34.03" rx="0.91" ry="0.4" transform="translate(-3.23 64.57) rotate(-85.36)"/><ellipse class="cls-1" cx="34.11" cy="35.03" rx="0.64" ry="0.43"/><rect class="cls-1" x="32.17" y="33.72" width="0.43" height="2.61" rx="0.21" transform="translate(57.84 -5.31) rotate(75)"/><rect class="cls-1" x="33.03" y="34.59" width="0.43" height="2.61" rx="0.21" transform="translate(3.01 -2.57) rotate(4.64)"/></svg>